<svg xmlns="http://www.w3.org/2000/svg" xmlns:xlink="http://www.w3.org/1999/xlink" width="500" zoomAndPan="magnify" viewBox="0 0 375 374.999991" height="500" preserveAspectRatio="xMidYMid meet" version="1.0"><defs><g/><clipPath id="d90c4f3f0d"><path d="M 119.105469 114 L 255.605469 114 L 255.605469 232.167969 L 119.105469 232.167969 Z M 119.105469 114 " clip-rule="nonzero"/></clipPath></defs><rect x="-37.5" width="450" fill="#ffffff" y="-37.499999" height="449.999989" fill-opacity="1"/><rect x="-37.5" width="450" fill="#f8f1e8" y="-37.499999" height="449.999989" fill-opacity="1"/><g fill="#000000" fill-opacity="1"><g transform="translate(56.090115, 231.173382)"><g><path d="M 0.84375 -8.136719 L 1.121094 -10.78125 L -17.375 -12.699219 L -16.640625 -19.785156 L -19.164062 -20.046875 L -20.910156 -3.203125 L -18.390625 -2.941406 L -17.652344 -10.058594 Z M 0.84375 -8.136719 "/></g></g></g><g fill="#000000" fill-opacity="1"><g transform="translate(58.093931, 211.241569)"><g><path d="M 4.519531 -16.320312 L 5.230469 -18.878906 L -15.136719 -24.519531 L -15.84375 -21.960938 L -7.085938 -19.535156 L -10.078125 -8.742188 L -18.832031 -11.167969 L -19.542969 -8.609375 L 0.820312 -2.96875 L 1.53125 -5.527344 L -7.632812 -8.066406 L -4.644531 -18.859375 Z M 4.519531 -16.320312 "/></g></g></g><g fill="#000000" fill-opacity="1"><g transform="translate(64.673356, 188.489026)"><g><path d="M 1.292969 -2.792969 L 6.828125 -14.734375 L 4.582031 -15.777344 L 0.164062 -6.246094 L -6.242188 -9.214844 L -2.28125 -17.761719 L -4.5 -18.789062 L -8.460938 -10.242188 L -14.515625 -13.046875 L -10.238281 -22.277344 L -12.480469 -23.320312 L -17.878906 -11.679688 Z M 1.292969 -2.792969 "/></g></g></g><g fill="#000000" fill-opacity="1"><g transform="translate(73.299506, 170.766384)"><g/></g></g><g fill="#000000" fill-opacity="1"><g transform="translate(77.443745, 162.962832)"><g><path d="M 8.136719 -9.492188 C 12.207031 -14.550781 11.113281 -21.046875 5.628906 -25.300781 L -1.558594 -16.363281 L 0.414062 -14.773438 L 5.808594 -21.476562 C 8.570312 -18.558594 8.773438 -14.523438 6.105469 -11.203125 C 3.136719 -7.511719 -1.621094 -7.039062 -5.433594 -10.101562 C -9.242188 -13.167969 -9.820312 -17.894531 -6.851562 -21.585938 C -4.808594 -24.128906 -1.933594 -25.148438 1.015625 -24.480469 L 2.832031 -26.738281 C -1.265625 -28.289062 -5.949219 -26.945312 -8.976562 -23.179688 C -12.855469 -18.359375 -12.074219 -11.960938 -7.136719 -7.984375 C -2.171875 -3.992188 4.242188 -4.648438 8.136719 -9.492188 Z M 8.136719 -9.492188 "/></g></g></g><g fill="#000000" fill-opacity="1"><g transform="translate(93.5566, 143.005219)"><g><path d="M 9.980469 -7.832031 C 14.914062 -11.953125 15.484375 -18.332031 11.359375 -23.265625 C 7.234375 -28.199219 0.855469 -28.769531 -4.074219 -24.644531 C -9.007812 -20.523438 -9.554688 -14.164062 -5.433594 -9.230469 C -1.308594 -4.296875 5.046875 -3.707031 9.980469 -7.832031 Z M -3.347656 -10.972656 C -6.503906 -14.746094 -6.101562 -19.492188 -2.371094 -22.605469 C 1.355469 -25.722656 6.097656 -25.28125 9.25 -21.503906 C 12.40625 -17.730469 12.003906 -12.984375 8.277344 -9.867188 C 4.546875 -6.75 -0.191406 -7.195312 -3.347656 -10.972656 Z M -3.347656 -10.972656 "/></g></g></g><g fill="#000000" fill-opacity="1"><g transform="translate(113.6177, 126.330946)"><g><path d="M 11.328125 -5.703125 C 16.980469 -8.773438 18.800781 -14.914062 15.730469 -20.5625 C 12.664062 -26.214844 6.523438 -28.03125 0.871094 -24.964844 C -4.777344 -21.898438 -6.570312 -15.773438 -3.503906 -10.121094 C -0.433594 -4.46875 5.679688 -2.636719 11.328125 -5.703125 Z M -1.113281 -11.417969 C -3.460938 -15.742188 -2.132812 -20.3125 2.140625 -22.628906 C 6.410156 -24.949219 10.96875 -23.578125 13.316406 -19.253906 C 15.664062 -14.929688 14.332031 -10.359375 10.0625 -8.039062 C 5.789062 -5.71875 1.234375 -7.09375 -1.113281 -11.417969 Z M -1.113281 -11.417969 "/></g></g></g><g fill="#000000" fill-opacity="1"><g transform="translate(136.685963, 114.022215)"><g><path d="M 2.933594 -0.929688 L 9.898438 -3.140625 C 16.085938 -5.101562 18.925781 -10.53125 17.035156 -16.484375 C 15.148438 -22.441406 9.699219 -25.242188 3.511719 -23.28125 L -3.453125 -21.074219 Z M 4.699219 -4.152344 L -0.152344 -19.460938 L 4.164062 -20.828125 C 8.851562 -22.316406 12.996094 -20.238281 14.445312 -15.664062 C 15.898438 -11.089844 13.738281 -7.015625 9.132812 -5.554688 Z M 4.699219 -4.152344 "/></g></g></g><g fill="#000000" fill-opacity="1"><g transform="translate(160.026103, 107.224034)"><g/></g></g><g fill="#000000" fill-opacity="1"><g transform="translate(168.814407, 105.357913)"><g><path d="M 10.117188 -0.273438 C 14.726562 -0.578125 17.558594 -3.035156 17.316406 -6.710938 C 17.109375 -9.8125 14.910156 -11.542969 9.429688 -12.511719 C 5.269531 -13.234375 3.839844 -14.230469 3.726562 -15.976562 C 3.59375 -17.996094 5.316406 -19.378906 8.328125 -19.578125 C 11.429688 -19.785156 13.460938 -18.34375 13.691406 -15.816406 L 16.308594 -15.992188 C 16.011719 -20.085938 12.890625 -22.421875 8.160156 -22.109375 C 3.554688 -21.804688 0.78125 -19.351562 1.015625 -15.796875 C 1.230469 -12.546875 3.667969 -10.890625 8.929688 -9.996094 C 12.785156 -9.34375 14.453125 -8.394531 14.582031 -6.4375 C 14.71875 -4.359375 12.933594 -3 9.949219 -2.804688 C 6.667969 -2.585938 4.269531 -4.0625 4.03125 -6.769531 L 1.378906 -6.59375 C 1.683594 -2.472656 5.085938 0.0585938 10.117188 -0.273438 Z M 10.117188 -0.273438 "/></g></g></g><g fill="#000000" fill-opacity="1"><g transform="translate(189.407835, 104.104902)"><g><path d="M 8.148438 0.730469 L 10.792969 0.96875 L 12.457031 -17.550781 L 19.554688 -16.914062 L 19.78125 -19.4375 L 2.914062 -20.953125 L 2.6875 -18.429688 L 9.8125 -17.789062 Z M 8.148438 0.730469 "/></g></g></g><g fill="#000000" fill-opacity="1"><g transform="translate(209.382617, 105.862018)"><g><path d="M 10.542969 3.113281 C 15.484375 4.394531 19.304688 1.921875 20.714844 -3.511719 L 23.863281 -15.636719 L 21.292969 -16.304688 L 18.191406 -4.355469 C 17.105469 -0.175781 14.703125 1.507812 11.195312 0.597656 C 7.71875 -0.304688 6.410156 -2.953125 7.496094 -7.128906 L 10.597656 -19.082031 L 8.054688 -19.742188 L 4.90625 -7.613281 C 3.496094 -2.179688 5.605469 1.828125 10.542969 3.113281 Z M 10.542969 3.113281 "/></g></g></g><g fill="#000000" fill-opacity="1"><g transform="translate(231.550333, 111.653635)"><g><path d="M 2.796875 1.289062 L 9.429688 4.351562 C 15.320312 7.070312 21.078125 4.972656 23.695312 -0.699219 C 26.316406 -6.375 24.175781 -12.117188 18.285156 -14.835938 L 11.652344 -17.894531 Z M 6.269531 0.101562 L 13 -14.480469 L 17.113281 -12.582031 C 21.578125 -10.519531 23.242188 -6.195312 21.230469 -1.839844 C 19.21875 2.519531 14.875 4.074219 10.492188 2.050781 Z M 6.269531 0.101562 "/></g></g></g><g fill="#000000" fill-opacity="1"><g transform="translate(253.202379, 121.953757)"><g><path d="M 2.546875 1.730469 L 13.429688 9.132812 L 14.820312 7.085938 L 6.136719 1.179688 L 10.105469 -4.664062 L 17.894531 0.632812 L 19.269531 -1.386719 L 11.484375 -6.683594 L 15.234375 -12.199219 L 23.644531 -6.480469 L 25.039062 -8.527344 L 14.429688 -15.742188 Z M 2.546875 1.730469 "/></g></g></g><g fill="#000000" fill-opacity="1"><g transform="translate(269.172443, 132.68346)"><g><path d="M 2.226562 2.125 L 4.128906 3.9375 L 15.546875 -8.027344 L 12.578125 12.003906 L 14.371094 13.714844 L 28.957031 -1.574219 L 27.082031 -3.367188 L 15.660156 8.601562 L 18.628906 -11.433594 L 16.816406 -13.160156 Z M 2.226562 2.125 "/></g></g></g><g fill="#000000" fill-opacity="1"><g transform="translate(286.308754, 149.378943)"><g><path d="M 4.894531 6.554688 L 6.480469 8.683594 L 21.382812 -2.4375 L 25.644531 3.273438 L 27.679688 1.757812 L 17.550781 -11.816406 L 15.515625 -10.300781 L 19.796875 -4.566406 Z M 4.894531 6.554688 "/></g></g></g><g fill="#000000" fill-opacity="1"><g transform="translate(298.237335, 166.044996)"><g/></g></g><g fill="#000000" fill-opacity="1"><g transform="translate(303.108021, 173.425139)"><g><path d="M 4.433594 11.625 C 6.414062 16.363281 10.886719 19.007812 15.722656 18.359375 L 14.640625 15.769531 C 11.296875 15.988281 8.304688 14 6.917969 10.6875 C 5.105469 6.339844 6.960938 1.933594 11.472656 0.046875 C 15.984375 -1.835938 20.421875 -0.0625 22.238281 4.285156 C 23.589844 7.515625 22.96875 10.882812 20.574219 13.0625 L 21.667969 15.679688 C 25.421875 12.605469 26.574219 7.773438 24.65625 3.175781 C 22.257812 -2.5625 16.300781 -4.914062 10.421875 -2.457031 C 4.546875 -0.00390625 2.035156 5.890625 4.433594 11.625 Z M 4.433594 11.625 "/></g></g></g><g fill="#000000" fill-opacity="1"><g transform="translate(312.858466, 196.867604)"><g><path d="M 2.128906 12.503906 C 3.402344 18.808594 8.738281 22.347656 15.042969 21.074219 C 21.34375 19.796875 24.886719 14.460938 23.609375 8.160156 C 22.335938 1.855469 17.003906 -1.652344 10.703125 -0.378906 C 4.402344 0.894531 0.855469 6.203125 2.128906 12.503906 Z M 11.242188 2.285156 C 16.066406 1.308594 20.042969 3.921875 21.007812 8.6875 C 21.96875 13.449219 19.320312 17.40625 14.496094 18.378906 C 9.675781 19.355469 5.695312 16.742188 4.734375 11.976562 C 3.769531 7.214844 6.417969 3.261719 11.242188 2.285156 Z M 11.242188 2.285156 "/></g></g></g><g fill="#000000" fill-opacity="1"><g transform="translate(317.464855, 223.06254)"><g><path d="M 0.00390625 3.871094 C 0.0820312 5.105469 0.976562 5.867188 2.121094 5.792969 C 3.265625 5.722656 4.027344 4.855469 3.949219 3.621094 C 3.875 2.414062 3.007812 1.652344 1.863281 1.726562 C 0.71875 1.800781 -0.0742188 2.667969 0.00390625 3.871094 Z M 0.00390625 3.871094 "/></g></g></g><g clip-path="url(#d90c4f3f0d)"><path fill="#3a322b" d="M 255.605469 172.109375 C 255.613281 171.816406 255.496094 171.53125 255.289062 171.320312 L 246.925781 162.855469 C 246.714844 162.640625 246.441406 162.53125 246.128906 162.53125 C 245.832031 162.539062 245.546875 162.667969 245.347656 162.890625 L 229.3125 180.75 L 225.679688 180.75 L 229.242188 143.8125 C 229.246094 143.75 229.226562 143.695312 229.222656 143.636719 C 229.21875 143.582031 229.234375 143.523438 229.21875 143.46875 L 226.722656 132.394531 C 226.617188 131.9375 226.234375 131.597656 225.769531 131.554688 C 225.308594 131.511719 224.863281 131.765625 224.671875 132.195312 L 220.109375 142.570312 C 220.085938 142.625 220.085938 142.679688 220.070312 142.734375 C 220.054688 142.792969 220.023438 142.84375 220.019531 142.90625 L 216.371094 180.75 L 213.542969 180.75 L 213.542969 133.933594 C 213.542969 133.859375 213.527344 133.785156 213.511719 133.714844 C 213.511719 133.699219 213.515625 133.6875 213.511719 133.671875 L 211.144531 124.09375 C 211.027344 123.609375 210.589844 123.269531 210.09375 123.269531 L 208.808594 123.269531 L 208.808594 120.761719 C 208.808594 120.164062 208.324219 119.675781 207.726562 119.675781 C 207.128906 119.675781 206.644531 120.164062 206.644531 120.761719 L 206.644531 123.269531 L 205.359375 123.269531 C 204.863281 123.269531 204.429688 123.609375 204.308594 124.09375 L 201.941406 133.671875 C 201.941406 133.6875 201.945312 133.699219 201.941406 133.714844 C 201.925781 133.785156 201.910156 133.859375 201.910156 133.933594 L 201.910156 165.238281 C 201.734375 165.203125 201.554688 165.183594 201.367188 165.183594 L 201.070312 165.183594 C 199.578125 165.183594 198.363281 166.398438 198.363281 167.894531 L 198.363281 180.75 L 189.53125 180.75 L 199.304688 145.664062 C 199.320312 145.605469 199.3125 145.546875 199.320312 145.492188 C 199.324219 145.433594 199.347656 145.378906 199.34375 145.320312 L 198.820312 133.972656 C 198.796875 133.503906 198.480469 133.105469 198.027344 132.980469 C 197.578125 132.851562 197.097656 133.03125 196.835938 133.417969 L 190.53125 142.816406 C 190.5 142.863281 190.492188 142.917969 190.46875 142.96875 C 190.441406 143.023438 190.402344 143.070312 190.386719 143.128906 L 188.699219 149.191406 L 188.699219 146.996094 C 188.699219 146.9375 188.671875 146.886719 188.664062 146.828125 C 188.65625 146.769531 188.664062 146.714844 188.644531 146.65625 L 185.09375 135.878906 C 184.949219 135.4375 184.535156 135.132812 184.066406 135.132812 C 183.597656 135.132812 183.183594 135.433594 183.035156 135.878906 L 179.488281 146.65625 C 179.46875 146.710938 179.476562 146.769531 179.46875 146.828125 C 179.457031 146.886719 179.433594 146.9375 179.433594 146.996094 L 179.433594 177.261719 L 169.242188 157.328125 L 184.480469 128.78125 C 184.761719 128.257812 184.566406 127.605469 184.046875 127.316406 L 171.558594 120.488281 C 171.304688 120.347656 171.003906 120.316406 170.726562 120.398438 C 170.453125 120.480469 170.21875 120.671875 170.082031 120.925781 L 168.640625 123.628906 C 164.542969 117.5625 156.84375 113.027344 150.984375 115.679688 C 147.246094 117.367188 145.488281 121.320312 144.6875 124.128906 C 141.902344 123.332031 137.65625 122.757812 134.269531 125.074219 C 131.332031 127.085938 129.722656 130.832031 129.746094 135.621094 C 129.765625 139.847656 131.09375 144.296875 133.292969 147.519531 C 136.808594 152.660156 143.25 155.636719 150.542969 155.636719 C 150.882812 155.636719 151.226562 155.621094 151.566406 155.609375 L 145.265625 167.414062 L 144.933594 163.707031 C 144.90625 163.417969 144.769531 163.152344 144.546875 162.96875 C 144.328125 162.785156 144.042969 162.699219 143.753906 162.722656 L 143.535156 162.742188 L 143.347656 160.691406 C 143.269531 159.828125 142.863281 159.046875 142.199219 158.496094 C 141.539062 157.949219 140.707031 157.699219 139.863281 157.769531 L 133.671875 158.339844 C 131.914062 158.503906 130.613281 160.078125 130.773438 161.851562 L 130.957031 163.90625 L 130.734375 163.929688 C 130.140625 163.984375 129.703125 164.511719 129.753906 165.105469 L 131.167969 180.75 L 129.652344 180.75 C 129.054688 180.75 128.566406 181.234375 128.566406 181.832031 L 128.566406 188.148438 C 126.613281 188.585938 124.738281 189.382812 123.113281 190.527344 C 122.492188 190.964844 121.898438 191.453125 121.351562 191.976562 C 119.921875 193.339844 119.105469 195.269531 119.105469 197.269531 L 119.105469 224.726562 C 119.105469 228.746094 122.339844 232.015625 126.316406 232.015625 L 239.457031 232.015625 C 243.433594 232.015625 246.667969 228.746094 246.667969 224.726562 L 246.667969 197.269531 C 246.667969 195.269531 245.851562 193.339844 244.421875 191.976562 C 243.875 191.453125 243.28125 190.964844 242.660156 190.527344 C 241.351562 189.609375 239.886719 188.914062 238.347656 188.441406 L 255.253906 172.882812 C 255.46875 172.683594 255.597656 172.402344 255.605469 172.109375 Z M 223.503906 180.75 L 222.113281 180.75 L 225.605469 144.542969 L 226.980469 144.679688 Z M 225.332031 136.078125 L 226.777344 142.480469 L 222.691406 142.078125 Z M 222.074219 144.195312 L 223.449219 144.328125 L 219.9375 180.75 L 218.550781 180.75 Z M 211.378906 137.066406 C 209.953125 136.570312 208.660156 136.441406 207.730469 136.441406 C 206.3125 136.441406 205.082031 136.714844 204.082031 137.066406 L 204.082031 134.609375 C 204.980469 134.203125 206.226562 133.820312 207.730469 133.820312 C 208.632812 133.820312 209.957031 133.964844 211.378906 134.605469 Z M 204.082031 167.894531 L 204.082031 139.398438 C 204.980469 138.996094 206.226562 138.613281 207.730469 138.613281 C 208.632812 138.613281 209.957031 138.757812 211.378906 139.398438 L 211.378906 180.75 L 204.082031 180.75 Z M 206.210938 125.4375 L 209.246094 125.4375 L 210.898438 132.121094 C 209.664062 131.753906 208.554688 131.652344 207.730469 131.652344 C 206.652344 131.652344 205.585938 131.832031 204.554688 132.140625 Z M 200.53125 167.894531 C 200.53125 167.59375 200.773438 167.351562 201.074219 167.351562 L 201.371094 167.351562 C 201.671875 167.351562 201.914062 167.59375 201.914062 167.894531 L 201.914062 180.75 L 200.53125 180.75 Z M 187.285156 180.75 L 182.160156 180.75 L 192.183594 144.761719 L 196.933594 146.117188 Z M 163.117188 168.8125 L 170.128906 180.75 L 156.746094 180.75 Z M 172.640625 180.75 L 164.316406 166.570312 L 165.367188 164.601562 L 172.332031 168.128906 L 178.785156 180.75 Z M 197.113281 143.914062 L 193.164062 142.789062 L 196.808594 137.355469 Z M 181.605469 174.667969 L 181.605469 148.082031 L 186.535156 148.082031 L 186.535156 156.96875 Z M 184.070312 139.683594 L 186.121094 145.914062 L 182.019531 145.914062 Z M 170.65625 164.847656 L 166.386719 162.6875 L 168.003906 159.660156 Z M 171.480469 122.917969 L 182.070312 128.707031 L 163.941406 162.664062 L 154.289062 180.75 L 140.609375 180.75 L 144.488281 173.484375 L 149.773438 176.375 C 149.9375 176.464844 150.113281 176.507812 150.292969 176.507812 C 150.675781 176.507812 151.046875 176.304688 151.242188 175.941406 C 151.527344 175.417969 151.335938 174.757812 150.8125 174.472656 L 145.507812 171.570312 L 147.859375 167.164062 L 153.148438 170.054688 C 153.3125 170.144531 153.488281 170.1875 153.664062 170.1875 C 154.050781 170.1875 154.421875 169.984375 154.617188 169.621094 C 154.902344 169.097656 154.710938 168.4375 154.1875 168.152344 L 148.882812 165.25 L 151.234375 160.84375 L 156.519531 163.734375 C 156.6875 163.824219 156.863281 163.867188 157.039062 163.867188 C 157.421875 163.867188 157.796875 163.664062 157.992188 163.300781 C 158.277344 162.777344 158.085938 162.117188 157.558594 161.828125 L 152.257812 158.929688 L 154.609375 154.523438 L 159.894531 157.414062 C 160.058594 157.503906 160.238281 157.546875 160.414062 157.546875 C 160.796875 157.546875 161.167969 157.339844 161.367188 156.980469 C 161.652344 156.457031 161.460938 155.796875 160.933594 155.507812 L 155.632812 152.609375 L 157.984375 148.199219 L 163.269531 151.089844 C 163.433594 151.179688 163.613281 151.222656 163.789062 151.222656 C 164.171875 151.222656 164.542969 151.019531 164.742188 150.660156 C 165.027344 150.132812 164.835938 149.472656 164.308594 149.1875 L 159.007812 146.289062 L 161.359375 141.878906 L 166.644531 144.769531 C 166.808594 144.859375 166.988281 144.902344 167.164062 144.902344 C 167.546875 144.902344 167.917969 144.699219 168.113281 144.335938 C 168.402344 143.8125 168.210938 143.152344 167.683594 142.867188 L 162.382812 139.964844 L 164.734375 135.558594 L 170.019531 138.449219 C 170.183594 138.539062 170.363281 138.582031 170.539062 138.582031 C 170.921875 138.582031 171.292969 138.378906 171.488281 138.019531 C 171.777344 137.492188 171.582031 136.832031 171.058594 136.546875 L 165.753906 133.648438 L 168.109375 129.238281 L 173.394531 132.128906 C 173.558594 132.21875 173.738281 132.261719 173.914062 132.261719 C 174.296875 132.261719 174.667969 132.058594 174.863281 131.699219 C 175.152344 131.171875 174.957031 130.515625 174.433594 130.226562 L 169.128906 127.328125 Z M 132.234375 165.96875 L 142.652344 165.003906 C 142.65625 165.003906 142.65625 165 142.65625 165 L 142.875 164.980469 L 143.273438 169.410156 L 132.410156 170.417969 L 132.011719 165.988281 L 132.222656 165.96875 C 132.226562 165.96875 132.230469 165.96875 132.234375 165.96875 Z M 132.605469 172.582031 L 143.027344 171.617188 L 141.265625 174.917969 L 132.886719 175.691406 Z M 160.023438 139.78125 L 152.878906 126.761719 C 153.050781 125.546875 153.558594 123.347656 155.015625 122.730469 C 157.609375 121.621094 162.421875 125.820312 164.253906 129.878906 C 164.425781 130.253906 164.554688 130.648438 164.683594 131.046875 Z M 151.878906 117.660156 C 156.886719 115.402344 164.085938 120.046875 167.46875 125.832031 L 166.015625 128.554688 C 163.796875 124.074219 158.304688 118.980469 154.171875 120.734375 C 151.609375 121.820312 150.886719 125.035156 150.683594 126.855469 C 150.660156 127.078125 150.703125 127.300781 150.8125 127.496094 L 158.804688 142.066406 L 157.3125 144.863281 L 146.609375 125.351562 C 147.128906 123.277344 148.554688 119.160156 151.878906 117.660156 Z M 135.085938 146.296875 C 133.121094 143.421875 131.9375 139.425781 131.917969 135.613281 C 131.90625 133.269531 132.355469 129.015625 135.5 126.867188 C 138.425781 124.867188 142.378906 125.648438 144.710938 126.402344 L 156.089844 147.144531 L 152.773438 153.359375 C 145.285156 154.023438 138.542969 151.347656 135.085938 146.296875 Z M 132.933594 161.65625 C 132.878906 161.070312 133.300781 160.554688 133.871094 160.5 L 140.066406 159.929688 C 140.097656 159.925781 140.128906 159.921875 140.160156 159.921875 C 140.398438 159.921875 140.625 160.007812 140.8125 160.164062 C 141.03125 160.34375 141.164062 160.601562 141.191406 160.886719 L 141.378906 162.945312 L 133.117188 163.710938 Z M 133.082031 177.851562 L 140.042969 177.207031 L 138.152344 180.75 L 133.347656 180.75 Z M 130.734375 182.917969 L 228.597656 182.917969 C 228.621094 182.945312 228.628906 182.980469 228.65625 183.007812 L 233.523438 187.933594 L 130.734375 187.933594 Z M 244.5 210.136719 C 241.96875 207.46875 238.390625 205.898438 234.554688 205.898438 C 229.316406 205.898438 224.496094 208.886719 222.285156 213.492188 L 222.242188 213.574219 C 219.574219 218.441406 214.394531 221.464844 208.71875 221.464844 C 203.042969 221.464844 197.863281 218.441406 195.183594 213.550781 C 192.4375 208.828125 187.253906 205.894531 181.652344 205.894531 C 176.050781 205.894531 170.855469 208.847656 168.109375 213.578125 L 168.054688 213.667969 C 167.527344 214.464844 162.625 221.460938 153.359375 221.460938 C 144.085938 221.460938 139.1875 214.464844 138.667969 213.675781 C 138.3125 213.125 135.015625 208.289062 128.753906 208.289062 C 125.421875 208.289062 122.925781 209.679688 121.269531 211.039062 L 121.269531 207.8125 C 123.574219 206.394531 126.085938 205.667969 128.753906 205.667969 C 136.691406 205.667969 140.828125 212.015625 141.011719 212.304688 C 141.191406 212.570312 145.472656 218.839844 153.355469 218.839844 C 161.003906 218.839844 165.226562 212.996094 165.722656 212.265625 C 168.976562 206.71875 175.082031 203.273438 181.652344 203.273438 C 188.257812 203.273438 194.375 206.746094 197.609375 212.308594 C 199.816406 216.339844 204.074219 218.839844 208.71875 218.839844 C 213.335938 218.839844 217.574219 216.378906 219.796875 212.363281 C 222.476562 206.839844 228.269531 203.273438 234.554688 203.273438 C 238.136719 203.273438 241.644531 204.453125 244.503906 206.589844 L 244.503906 210.136719 Z M 239.457031 229.847656 L 126.316406 229.847656 C 123.535156 229.847656 121.269531 227.550781 121.269531 224.726562 L 121.269531 214.054688 C 122.359375 212.785156 124.882812 210.460938 128.753906 210.460938 C 133.957031 210.460938 136.730469 214.675781 136.851562 214.867188 C 137.445312 215.761719 142.957031 223.632812 153.355469 223.632812 C 163.753906 223.632812 169.265625 215.761719 169.882812 214.835938 L 169.96875 214.695312 C 172.34375 210.605469 176.820312 208.066406 181.652344 208.066406 C 186.484375 208.066406 190.953125 210.585938 193.296875 214.621094 C 196.34375 220.179688 202.253906 223.636719 208.71875 223.636719 C 215.183594 223.636719 221.09375 220.179688 224.15625 214.589844 L 224.226562 214.453125 C 226.089844 210.574219 230.144531 208.066406 234.554688 208.066406 C 238.707031 208.066406 242.488281 210.25 244.503906 213.761719 L 244.503906 224.726562 C 244.5 227.550781 242.238281 229.847656 239.457031 229.847656 Z M 242.925781 193.542969 C 243.925781 194.5 244.5 195.859375 244.5 197.269531 L 244.5 203.972656 C 241.53125 202.121094 238.074219 201.109375 234.554688 201.109375 C 227.445312 201.109375 220.886719 205.15625 217.875 211.367188 C 216.058594 214.640625 212.550781 216.675781 208.71875 216.675781 C 204.863281 216.675781 201.335938 214.605469 199.492188 211.246094 C 195.863281 204.992188 189.023438 201.109375 181.652344 201.109375 C 174.316406 201.109375 167.496094 204.964844 163.894531 211.105469 C 163.503906 211.675781 159.894531 216.675781 153.355469 216.675781 C 146.617188 216.675781 142.964844 211.328125 142.824219 211.121094 C 142.625 210.808594 137.863281 203.503906 128.75 203.503906 C 126.109375 203.503906 123.601562 204.125 121.269531 205.328125 L 121.269531 197.269531 C 121.269531 195.859375 121.84375 194.503906 122.847656 193.542969 C 123.316406 193.09375 123.824219 192.675781 124.359375 192.300781 C 125.953125 191.179688 127.820312 190.425781 129.757812 190.105469 L 236.011719 190.105469 C 237.953125 190.425781 239.820312 191.183594 241.414062 192.300781 C 241.945312 192.675781 242.453125 193.09375 242.925781 193.542969 Z M 236.152344 187.515625 L 230.914062 182.210938 L 246.195312 165.195312 L 252.960938 172.046875 Z M 236.152344 187.515625 " fill-opacity="1" fill-rule="nonzero"/></g><path fill="#3a322b" d="M 240.367188 176.402344 L 235.347656 181.484375 C 234.925781 181.910156 234.929688 182.59375 235.355469 183.015625 C 235.566406 183.226562 235.84375 183.332031 236.117188 183.332031 C 236.398438 183.332031 236.675781 183.222656 236.886719 183.007812 L 241.90625 177.929688 C 242.328125 177.5 242.324219 176.816406 241.898438 176.394531 C 241.472656 175.972656 240.785156 175.976562 240.367188 176.402344 Z M 240.367188 176.402344 " fill-opacity="1" fill-rule="nonzero"/><path fill="#3a322b" d="M 242.875 170.476562 C 241.539062 171.832031 241.539062 174.035156 242.875 175.386719 C 243.527344 176.046875 244.394531 176.410156 245.316406 176.410156 C 246.242188 176.410156 247.109375 176.046875 247.761719 175.386719 C 249.097656 174.035156 249.097656 171.832031 247.761719 170.476562 C 246.457031 169.15625 244.179688 169.15625 242.875 170.476562 Z M 246.222656 173.863281 C 245.738281 174.351562 244.898438 174.351562 244.417969 173.863281 C 243.910156 173.347656 243.910156 172.511719 244.417969 172 C 244.65625 171.753906 244.980469 171.621094 245.320312 171.621094 C 245.660156 171.621094 245.980469 171.753906 246.222656 172 C 246.730469 172.511719 246.730469 173.347656 246.222656 173.863281 Z M 246.222656 173.863281 " fill-opacity="1" fill-rule="nonzero"/><path fill="#3a322b" d="M 154.382812 149.234375 L 144.4375 131.101562 C 144.328125 130.902344 144.160156 130.746094 143.957031 130.648438 C 142.320312 129.859375 139.230469 128.773438 136.960938 130.40625 C 133.199219 133.109375 134.777344 140.914062 137.515625 145.101562 C 140.171875 149.164062 144.683594 151.492188 149.367188 151.492188 C 150.832031 151.492188 152.320312 151.261719 153.769531 150.789062 C 154.078125 150.6875 154.320312 150.457031 154.441406 150.15625 C 154.558594 149.855469 154.539062 149.519531 154.382812 149.234375 Z M 139.328125 143.914062 C 136.890625 140.191406 135.917969 133.824219 138.222656 132.167969 C 138.671875 131.847656 139.222656 131.726562 139.796875 131.726562 C 140.855469 131.726562 141.992188 132.140625 142.707031 132.460938 L 151.820312 149.066406 C 147.082031 150.023438 141.996094 147.992188 139.328125 143.914062 Z M 139.328125 143.914062 " fill-opacity="1" fill-rule="nonzero"/><g fill="#000000" fill-opacity="1"><g transform="translate(75.728931, 251.702503)"><g><path d="M 8.25 -3.4375 L 8.25 -9.328125 L 7.34375 -9.328125 C 7.175781 -9.328125 7.09375 -9.398438 7.09375 -9.546875 C 7.09375 -9.617188 7.117188 -9.738281 7.171875 -9.90625 L 7.203125 -10.03125 L 10.15625 -10.03125 C 10.195312 -9.96875 10.21875 -9.882812 10.21875 -9.78125 C 10.21875 -9.675781 10.179688 -9.578125 10.109375 -9.484375 L 9.078125 -9.359375 L 9.078125 -3.4375 C 9.078125 -2.644531 8.914062 -1.984375 8.59375 -1.453125 C 8.269531 -0.921875 7.828125 -0.519531 7.265625 -0.25 C 6.710938 0.0195312 6.101562 0.15625 5.4375 0.15625 C 4.757812 0.15625 4.140625 0.0195312 3.578125 -0.25 C 3.023438 -0.519531 2.585938 -0.921875 2.265625 -1.453125 C 1.953125 -1.984375 1.796875 -2.644531 1.796875 -3.4375 L 1.796875 -9.328125 L 0.890625 -9.328125 C 0.722656 -9.328125 0.640625 -9.398438 0.640625 -9.546875 C 0.640625 -9.617188 0.664062 -9.738281 0.71875 -9.90625 L 0.75 -10.03125 L 3.75 -10.03125 C 3.789062 -9.96875 3.8125 -9.882812 3.8125 -9.78125 C 3.8125 -9.675781 3.773438 -9.578125 3.703125 -9.484375 L 2.65625 -9.359375 L 2.65625 -3.4375 C 2.65625 -2.613281 2.890625 -1.929688 3.359375 -1.390625 C 3.835938 -0.847656 4.53125 -0.578125 5.4375 -0.578125 C 6.375 -0.578125 7.078125 -0.847656 7.546875 -1.390625 C 8.015625 -1.929688 8.25 -2.613281 8.25 -3.4375 Z M 8.25 -3.4375 "/></g></g></g><g fill="#000000" fill-opacity="1"><g transform="translate(86.825174, 251.702503)"><g><path d="M 8.65625 0.078125 L 2.75 -8.65625 L 2.75 -0.71875 L 3.65625 -0.71875 C 3.820312 -0.71875 3.90625 -0.644531 3.90625 -0.5 C 3.90625 -0.425781 3.878906 -0.300781 3.828125 -0.125 L 3.796875 0 L 0.859375 0 C 0.816406 -0.0625 0.796875 -0.144531 0.796875 -0.25 C 0.796875 -0.363281 0.832031 -0.46875 0.90625 -0.5625 L 1.953125 -0.6875 L 1.953125 -9.328125 L 1.046875 -9.328125 C 0.878906 -9.328125 0.796875 -9.398438 0.796875 -9.546875 C 0.796875 -9.617188 0.820312 -9.738281 0.875 -9.90625 L 0.90625 -10.03125 L 2.828125 -10.03125 L 8.46875 -1.703125 L 8.46875 -9.328125 L 7.5625 -9.328125 C 7.394531 -9.328125 7.3125 -9.398438 7.3125 -9.546875 C 7.3125 -9.617188 7.335938 -9.738281 7.390625 -9.90625 L 7.421875 -10.03125 L 10.359375 -10.03125 C 10.398438 -9.96875 10.421875 -9.882812 10.421875 -9.78125 C 10.421875 -9.675781 10.382812 -9.578125 10.3125 -9.484375 L 9.28125 -9.359375 L 9.28125 -0.078125 C 9.1875 -0.0351562 9.082031 -0.00390625 8.96875 0.015625 C 8.863281 0.046875 8.757812 0.0664062 8.65625 0.078125 Z M 8.65625 0.078125 "/></g></g></g><g fill="#000000" fill-opacity="1"><g transform="translate(98.123725, 251.702503)"><g><path d="M 7.703125 0 L 0.859375 0 C 0.816406 -0.0625 0.796875 -0.144531 0.796875 -0.25 C 0.796875 -0.363281 0.832031 -0.46875 0.90625 -0.5625 L 1.953125 -0.6875 L 1.953125 -9.328125 L 1.046875 -9.328125 C 0.878906 -9.328125 0.796875 -9.398438 0.796875 -9.546875 C 0.796875 -9.617188 0.820312 -9.738281 0.875 -9.90625 L 0.90625 -10.03125 L 4.0625 -10.03125 C 4.101562 -9.96875 4.125 -9.882812 4.125 -9.78125 C 4.125 -9.675781 4.085938 -9.578125 4.015625 -9.484375 L 2.8125 -9.359375 L 2.8125 -0.71875 L 7.15625 -0.71875 L 7.546875 -2.484375 C 7.640625 -2.554688 7.742188 -2.59375 7.859375 -2.59375 C 7.960938 -2.59375 8.046875 -2.570312 8.109375 -2.53125 L 8.078125 -0.40625 C 7.972656 -0.25 7.847656 -0.113281 7.703125 0 Z M 7.703125 0 "/></g></g></g><g fill="#000000" fill-opacity="1"><g transform="translate(106.932272, 251.702503)"><g><path d="M 5.40625 -0.578125 C 6.144531 -0.578125 6.789062 -0.757812 7.34375 -1.125 C 7.90625 -1.5 8.335938 -2.019531 8.640625 -2.6875 C 8.953125 -3.351562 9.109375 -4.132812 9.109375 -5.03125 C 9.109375 -5.914062 8.953125 -6.691406 8.640625 -7.359375 C 8.335938 -8.023438 7.90625 -8.539062 7.34375 -8.90625 C 6.789062 -9.28125 6.144531 -9.46875 5.40625 -9.46875 C 4.65625 -9.46875 4 -9.28125 3.4375 -8.90625 C 2.882812 -8.539062 2.457031 -8.023438 2.15625 -7.359375 C 1.851562 -6.691406 1.703125 -5.914062 1.703125 -5.03125 C 1.703125 -4.125 1.851562 -3.335938 2.15625 -2.671875 C 2.457031 -2.015625 2.882812 -1.5 3.4375 -1.125 C 4 -0.757812 4.65625 -0.578125 5.40625 -0.578125 Z M 5.40625 0.15625 C 4.476562 0.15625 3.664062 -0.0546875 2.96875 -0.484375 C 2.28125 -0.921875 1.742188 -1.523438 1.359375 -2.296875 C 0.972656 -3.066406 0.78125 -3.976562 0.78125 -5.03125 C 0.78125 -6.0625 0.972656 -6.960938 1.359375 -7.734375 C 1.742188 -8.515625 2.28125 -9.117188 2.96875 -9.546875 C 3.664062 -9.972656 4.476562 -10.1875 5.40625 -10.1875 C 6.320312 -10.1875 7.128906 -9.972656 7.828125 -9.546875 C 8.523438 -9.117188 9.0625 -8.515625 9.4375 -7.734375 C 9.820312 -6.960938 10.015625 -6.0625 10.015625 -5.03125 C 10.015625 -3.976562 9.820312 -3.066406 9.4375 -2.296875 C 9.0625 -1.523438 8.523438 -0.921875 7.828125 -0.484375 C 7.128906 -0.0546875 6.320312 0.15625 5.40625 0.15625 Z M 5.40625 0.15625 "/></g></g></g><g fill="#000000" fill-opacity="1"><g transform="translate(117.966258, 251.702503)"><g><path d="M 7.828125 -7.15625 L 7.390625 -9.0625 C 6.710938 -9.332031 6.054688 -9.46875 5.421875 -9.46875 C 4.671875 -9.46875 4.015625 -9.28125 3.453125 -8.90625 C 2.890625 -8.539062 2.457031 -8.023438 2.15625 -7.359375 C 1.851562 -6.691406 1.703125 -5.914062 1.703125 -5.03125 C 1.703125 -4.125 1.859375 -3.34375 2.171875 -2.6875 C 2.484375 -2.039062 2.929688 -1.535156 3.515625 -1.171875 C 4.109375 -0.816406 4.804688 -0.640625 5.609375 -0.640625 C 6.523438 -0.640625 7.410156 -0.859375 8.265625 -1.296875 C 8.410156 -1.117188 8.507812 -0.910156 8.5625 -0.671875 C 8.175781 -0.421875 7.703125 -0.21875 7.140625 -0.0625 C 6.578125 0.0820312 6.019531 0.15625 5.46875 0.15625 C 4.519531 0.15625 3.695312 -0.0546875 3 -0.484375 C 2.300781 -0.910156 1.753906 -1.507812 1.359375 -2.28125 C 0.972656 -3.0625 0.78125 -3.976562 0.78125 -5.03125 C 0.78125 -6.0625 0.96875 -6.960938 1.34375 -7.734375 C 1.726562 -8.515625 2.265625 -9.117188 2.953125 -9.546875 C 3.640625 -9.972656 4.441406 -10.1875 5.359375 -10.1875 C 5.773438 -10.1875 6.222656 -10.132812 6.703125 -10.03125 C 7.191406 -9.925781 7.644531 -9.785156 8.0625 -9.609375 C 8.125 -9.535156 8.179688 -9.457031 8.234375 -9.375 C 8.285156 -9.289062 8.328125 -9.210938 8.359375 -9.140625 L 8.390625 -7.109375 C 8.328125 -7.066406 8.242188 -7.046875 8.140625 -7.046875 C 8.023438 -7.046875 7.921875 -7.082031 7.828125 -7.15625 Z M 7.828125 -7.15625 "/></g></g></g><g fill="#000000" fill-opacity="1"><g transform="translate(127.428436, 251.702503)"><g><path d="M 9.875 0 L 6.796875 0 C 6.753906 -0.0625 6.734375 -0.144531 6.734375 -0.25 C 6.734375 -0.363281 6.769531 -0.46875 6.84375 -0.5625 L 7.859375 -0.6875 L 4.71875 -5.40625 L 2.8125 -3.234375 L 2.8125 -0.71875 L 3.71875 -0.71875 C 3.882812 -0.71875 3.96875 -0.644531 3.96875 -0.5 C 3.96875 -0.425781 3.941406 -0.300781 3.890625 -0.125 L 3.859375 0 L 0.859375 0 C 0.816406 -0.0625 0.796875 -0.144531 0.796875 -0.25 C 0.796875 -0.363281 0.832031 -0.46875 0.90625 -0.5625 L 1.953125 -0.6875 L 1.953125 -9.328125 L 1.046875 -9.328125 C 0.878906 -9.328125 0.796875 -9.398438 0.796875 -9.546875 C 0.796875 -9.617188 0.820312 -9.738281 0.875 -9.90625 L 0.90625 -10.03125 L 3.90625 -10.03125 C 3.945312 -9.96875 3.96875 -9.882812 3.96875 -9.78125 C 3.96875 -9.675781 3.929688 -9.578125 3.859375 -9.484375 L 2.8125 -9.359375 L 2.8125 -4.265625 L 7.1875 -9.328125 L 6.359375 -9.328125 C 6.191406 -9.328125 6.109375 -9.398438 6.109375 -9.546875 C 6.109375 -9.617188 6.132812 -9.738281 6.1875 -9.90625 L 6.21875 -10.03125 L 9.234375 -10.03125 C 9.273438 -9.96875 9.296875 -9.882812 9.296875 -9.78125 C 9.296875 -9.675781 9.257812 -9.578125 9.1875 -9.484375 L 8.203125 -9.359375 L 5.265625 -6.015625 L 8.890625 -0.71875 L 9.734375 -0.71875 C 9.898438 -0.71875 9.984375 -0.644531 9.984375 -0.5 C 9.984375 -0.425781 9.957031 -0.300781 9.90625 -0.125 Z M 9.875 0 "/></g></g></g><g fill="#000000" fill-opacity="1"><g transform="translate(137.964421, 251.702503)"><g><path d="M 4.015625 0 L 0.703125 0 C 0.660156 -0.0625 0.640625 -0.144531 0.640625 -0.25 C 0.640625 -0.363281 0.675781 -0.46875 0.75 -0.5625 L 1.953125 -0.6875 L 1.953125 -9.328125 L 0.890625 -9.328125 C 0.722656 -9.328125 0.640625 -9.398438 0.640625 -9.546875 C 0.640625 -9.617188 0.664062 -9.738281 0.71875 -9.90625 L 0.75 -10.03125 L 4.0625 -10.03125 C 4.101562 -9.96875 4.125 -9.882812 4.125 -9.78125 C 4.125 -9.675781 4.085938 -9.578125 4.015625 -9.484375 L 2.8125 -9.359375 L 2.8125 -0.71875 L 3.875 -0.71875 C 4.039062 -0.71875 4.125 -0.644531 4.125 -0.5 C 4.125 -0.425781 4.097656 -0.300781 4.046875 -0.125 Z M 4.015625 0 "/></g></g></g><g fill="#000000" fill-opacity="1"><g transform="translate(142.96015, 251.702503)"><g><path d="M 8.65625 0.078125 L 2.75 -8.65625 L 2.75 -0.71875 L 3.65625 -0.71875 C 3.820312 -0.71875 3.90625 -0.644531 3.90625 -0.5 C 3.90625 -0.425781 3.878906 -0.300781 3.828125 -0.125 L 3.796875 0 L 0.859375 0 C 0.816406 -0.0625 0.796875 -0.144531 0.796875 -0.25 C 0.796875 -0.363281 0.832031 -0.46875 0.90625 -0.5625 L 1.953125 -0.6875 L 1.953125 -9.328125 L 1.046875 -9.328125 C 0.878906 -9.328125 0.796875 -9.398438 0.796875 -9.546875 C 0.796875 -9.617188 0.820312 -9.738281 0.875 -9.90625 L 0.90625 -10.03125 L 2.828125 -10.03125 L 8.46875 -1.703125 L 8.46875 -9.328125 L 7.5625 -9.328125 C 7.394531 -9.328125 7.3125 -9.398438 7.3125 -9.546875 C 7.3125 -9.617188 7.335938 -9.738281 7.390625 -9.90625 L 7.421875 -10.03125 L 10.359375 -10.03125 C 10.398438 -9.96875 10.421875 -9.882812 10.421875 -9.78125 C 10.421875 -9.675781 10.382812 -9.578125 10.3125 -9.484375 L 9.28125 -9.359375 L 9.28125 -0.078125 C 9.1875 -0.0351562 9.082031 -0.00390625 8.96875 0.015625 C 8.863281 0.046875 8.757812 0.0664062 8.65625 0.078125 Z M 8.65625 0.078125 "/></g></g></g><g fill="#000000" fill-opacity="1"><g transform="translate(154.258701, 251.702503)"><g><path d="M 8.046875 -0.96875 L 8.046875 -4.1875 L 6.359375 -4.1875 C 6.191406 -4.1875 6.109375 -4.257812 6.109375 -4.40625 C 6.109375 -4.476562 6.132812 -4.601562 6.1875 -4.78125 L 6.21875 -4.90625 L 9.921875 -4.90625 C 9.960938 -4.84375 9.984375 -4.757812 9.984375 -4.65625 C 9.984375 -4.539062 9.945312 -4.4375 9.875 -4.34375 L 8.921875 -4.21875 L 8.921875 -0.90625 C 8.890625 -0.832031 8.847656 -0.753906 8.796875 -0.671875 C 8.742188 -0.585938 8.6875 -0.507812 8.625 -0.4375 C 8.238281 -0.257812 7.769531 -0.113281 7.21875 0 C 6.675781 0.101562 6.148438 0.15625 5.640625 0.15625 C 4.640625 0.15625 3.773438 -0.0507812 3.046875 -0.46875 C 2.316406 -0.894531 1.753906 -1.492188 1.359375 -2.265625 C 0.972656 -3.035156 0.78125 -3.953125 0.78125 -5.015625 C 0.78125 -6.054688 0.976562 -6.96875 1.375 -7.75 C 1.769531 -8.53125 2.328125 -9.128906 3.046875 -9.546875 C 3.773438 -9.972656 4.632812 -10.1875 5.625 -10.1875 C 6.039062 -10.1875 6.492188 -10.132812 6.984375 -10.03125 C 7.472656 -9.925781 7.925781 -9.785156 8.34375 -9.609375 C 8.40625 -9.535156 8.460938 -9.457031 8.515625 -9.375 C 8.566406 -9.289062 8.609375 -9.210938 8.640625 -9.140625 L 8.671875 -7.21875 C 8.609375 -7.175781 8.523438 -7.15625 8.421875 -7.15625 C 8.304688 -7.15625 8.203125 -7.191406 8.109375 -7.265625 L 7.6875 -9.0625 C 7.320312 -9.207031 6.972656 -9.3125 6.640625 -9.375 C 6.316406 -9.4375 5.976562 -9.46875 5.625 -9.46875 C 4.820312 -9.46875 4.125 -9.285156 3.53125 -8.921875 C 2.9375 -8.554688 2.484375 -8.035156 2.171875 -7.359375 C 1.859375 -6.691406 1.703125 -5.90625 1.703125 -5 C 1.703125 -4.09375 1.863281 -3.304688 2.1875 -2.640625 C 2.507812 -1.984375 2.972656 -1.472656 3.578125 -1.109375 C 4.179688 -0.753906 4.894531 -0.578125 5.71875 -0.578125 C 6.082031 -0.578125 6.488281 -0.613281 6.9375 -0.6875 C 7.394531 -0.769531 7.765625 -0.863281 8.046875 -0.96875 Z M 8.046875 -0.96875 "/></g></g></g><g fill="#000000" fill-opacity="1"><g transform="translate(164.872506, 251.702503)"><g/></g></g><g fill="#000000" fill-opacity="1"><g transform="translate(168.996733, 251.702503)"><g><path d="M 8.25 -3.4375 L 8.25 -9.328125 L 7.34375 -9.328125 C 7.175781 -9.328125 7.09375 -9.398438 7.09375 -9.546875 C 7.09375 -9.617188 7.117188 -9.738281 7.171875 -9.90625 L 7.203125 -10.03125 L 10.15625 -10.03125 C 10.195312 -9.96875 10.21875 -9.882812 10.21875 -9.78125 C 10.21875 -9.675781 10.179688 -9.578125 10.109375 -9.484375 L 9.078125 -9.359375 L 9.078125 -3.4375 C 9.078125 -2.644531 8.914062 -1.984375 8.59375 -1.453125 C 8.269531 -0.921875 7.828125 -0.519531 7.265625 -0.25 C 6.710938 0.0195312 6.101562 0.15625 5.4375 0.15625 C 4.757812 0.15625 4.140625 0.0195312 3.578125 -0.25 C 3.023438 -0.519531 2.585938 -0.921875 2.265625 -1.453125 C 1.953125 -1.984375 1.796875 -2.644531 1.796875 -3.4375 L 1.796875 -9.328125 L 0.890625 -9.328125 C 0.722656 -9.328125 0.640625 -9.398438 0.640625 -9.546875 C 0.640625 -9.617188 0.664062 -9.738281 0.71875 -9.90625 L 0.75 -10.03125 L 3.75 -10.03125 C 3.789062 -9.96875 3.8125 -9.882812 3.8125 -9.78125 C 3.8125 -9.675781 3.773438 -9.578125 3.703125 -9.484375 L 2.65625 -9.359375 L 2.65625 -3.4375 C 2.65625 -2.613281 2.890625 -1.929688 3.359375 -1.390625 C 3.835938 -0.847656 4.53125 -0.578125 5.4375 -0.578125 C 6.375 -0.578125 7.078125 -0.847656 7.546875 -1.390625 C 8.015625 -1.929688 8.25 -2.613281 8.25 -3.4375 Z M 8.25 -3.4375 "/></g></g></g><g fill="#000000" fill-opacity="1"><g transform="translate(180.092976, 251.702503)"><g><path d="M 8.65625 0.078125 L 2.75 -8.65625 L 2.75 -0.71875 L 3.65625 -0.71875 C 3.820312 -0.71875 3.90625 -0.644531 3.90625 -0.5 C 3.90625 -0.425781 3.878906 -0.300781 3.828125 -0.125 L 3.796875 0 L 0.859375 0 C 0.816406 -0.0625 0.796875 -0.144531 0.796875 -0.25 C 0.796875 -0.363281 0.832031 -0.46875 0.90625 -0.5625 L 1.953125 -0.6875 L 1.953125 -9.328125 L 1.046875 -9.328125 C 0.878906 -9.328125 0.796875 -9.398438 0.796875 -9.546875 C 0.796875 -9.617188 0.820312 -9.738281 0.875 -9.90625 L 0.90625 -10.03125 L 2.828125 -10.03125 L 8.46875 -1.703125 L 8.46875 -9.328125 L 7.5625 -9.328125 C 7.394531 -9.328125 7.3125 -9.398438 7.3125 -9.546875 C 7.3125 -9.617188 7.335938 -9.738281 7.390625 -9.90625 L 7.421875 -10.03125 L 10.359375 -10.03125 C 10.398438 -9.96875 10.421875 -9.882812 10.421875 -9.78125 C 10.421875 -9.675781 10.382812 -9.578125 10.3125 -9.484375 L 9.28125 -9.359375 L 9.28125 -0.078125 C 9.1875 -0.0351562 9.082031 -0.00390625 8.96875 0.015625 C 8.863281 0.046875 8.757812 0.0664062 8.65625 0.078125 Z M 8.65625 0.078125 "/></g></g></g><g fill="#000000" fill-opacity="1"><g transform="translate(191.391532, 251.702503)"><g><path d="M 2.8125 -0.71875 L 5.09375 -0.71875 C 5.863281 -0.71875 6.523438 -0.894531 7.078125 -1.25 C 7.628906 -1.613281 8.050781 -2.117188 8.34375 -2.765625 C 8.644531 -3.410156 8.796875 -4.164062 8.796875 -5.03125 C 8.796875 -5.882812 8.644531 -6.632812 8.34375 -7.28125 C 8.050781 -7.925781 7.628906 -8.425781 7.078125 -8.78125 C 6.523438 -9.144531 5.863281 -9.328125 5.09375 -9.328125 L 2.8125 -9.328125 Z M 5.09375 0 L 0.859375 0 C 0.816406 -0.0625 0.796875 -0.144531 0.796875 -0.25 C 0.796875 -0.363281 0.832031 -0.46875 0.90625 -0.5625 L 1.953125 -0.6875 L 1.953125 -9.328125 L 1.046875 -9.328125 C 0.878906 -9.328125 0.796875 -9.398438 0.796875 -9.546875 C 0.796875 -9.617188 0.820312 -9.738281 0.875 -9.90625 L 0.90625 -10.03125 L 5.09375 -10.03125 C 6.019531 -10.03125 6.828125 -9.828125 7.515625 -9.421875 C 8.210938 -9.023438 8.753906 -8.445312 9.140625 -7.6875 C 9.523438 -6.9375 9.71875 -6.050781 9.71875 -5.03125 C 9.71875 -3.988281 9.523438 -3.09375 9.140625 -2.34375 C 8.753906 -1.59375 8.210938 -1.015625 7.515625 -0.609375 C 6.828125 -0.203125 6.019531 0 5.09375 0 Z M 5.09375 0 "/></g></g></g><g fill="#000000" fill-opacity="1"><g transform="translate(202.114279, 251.702503)"><g><path d="M 8.09375 0 L 0.859375 0 C 0.816406 -0.0625 0.796875 -0.144531 0.796875 -0.25 C 0.796875 -0.363281 0.832031 -0.46875 0.90625 -0.5625 L 1.953125 -0.6875 L 1.953125 -9.328125 L 1.046875 -9.328125 C 0.878906 -9.328125 0.796875 -9.398438 0.796875 -9.546875 C 0.796875 -9.617188 0.820312 -9.738281 0.875 -9.90625 L 0.90625 -10.03125 L 7.9375 -10.03125 C 8.082031 -9.914062 8.207031 -9.785156 8.3125 -9.640625 L 8.34375 -7.578125 C 8.28125 -7.535156 8.195312 -7.515625 8.09375 -7.515625 C 7.976562 -7.515625 7.875 -7.550781 7.78125 -7.625 L 7.390625 -9.328125 L 2.8125 -9.328125 L 2.8125 -5.484375 L 5.921875 -5.484375 L 6.0625 -6.296875 C 6.09375 -6.484375 6.179688 -6.578125 6.328125 -6.578125 C 6.367188 -6.578125 6.453125 -6.550781 6.578125 -6.5 L 6.671875 -6.453125 L 6.671875 -3.71875 C 6.609375 -3.675781 6.523438 -3.65625 6.421875 -3.65625 C 6.304688 -3.65625 6.203125 -3.691406 6.109375 -3.765625 L 5.921875 -4.78125 L 2.8125 -4.78125 L 2.8125 -0.71875 L 7.546875 -0.71875 L 7.9375 -2.40625 C 8.03125 -2.476562 8.132812 -2.515625 8.25 -2.515625 C 8.351562 -2.515625 8.4375 -2.492188 8.5 -2.453125 L 8.46875 -0.40625 C 8.363281 -0.25 8.238281 -0.113281 8.09375 0 Z M 8.09375 0 "/></g></g></g><g fill="#000000" fill-opacity="1"><g transform="translate(211.623152, 251.702503)"><g><path d="M 6.6875 -1.28125 L 4.984375 -4.25 L 2.8125 -4.25 L 2.8125 -0.71875 L 3.71875 -0.71875 C 3.882812 -0.71875 3.96875 -0.644531 3.96875 -0.5 C 3.96875 -0.425781 3.941406 -0.300781 3.890625 -0.125 L 3.859375 0 L 0.859375 0 C 0.816406 -0.0625 0.796875 -0.144531 0.796875 -0.25 C 0.796875 -0.363281 0.832031 -0.46875 0.90625 -0.5625 L 1.953125 -0.6875 L 1.953125 -9.328125 L 1.046875 -9.328125 C 0.878906 -9.328125 0.796875 -9.398438 0.796875 -9.546875 C 0.796875 -9.617188 0.820312 -9.738281 0.875 -9.90625 L 0.90625 -10.03125 L 5 -10.03125 C 5.570312 -10.03125 6.0625 -9.941406 6.46875 -9.765625 C 6.875 -9.585938 7.203125 -9.347656 7.453125 -9.046875 C 7.703125 -8.753906 7.882812 -8.4375 8 -8.09375 C 8.113281 -7.757812 8.171875 -7.441406 8.171875 -7.140625 C 8.171875 -6.785156 8.09375 -6.414062 7.9375 -6.03125 C 7.789062 -5.644531 7.546875 -5.296875 7.203125 -4.984375 C 6.859375 -4.671875 6.410156 -4.457031 5.859375 -4.34375 L 7.578125 -1.5 C 7.773438 -1.164062 7.953125 -0.941406 8.109375 -0.828125 C 8.265625 -0.722656 8.472656 -0.671875 8.734375 -0.671875 C 8.816406 -0.671875 8.90625 -0.671875 9 -0.671875 C 9.101562 -0.679688 9.191406 -0.691406 9.265625 -0.703125 C 9.347656 -0.554688 9.394531 -0.363281 9.40625 -0.125 C 9.050781 0 8.71875 0.0625 8.40625 0.0625 C 8.070312 0.0625 7.769531 -0.0390625 7.5 -0.25 C 7.226562 -0.46875 6.957031 -0.8125 6.6875 -1.28125 Z M 2.8125 -4.96875 L 5 -4.96875 C 5.6875 -4.96875 6.234375 -5.175781 6.640625 -5.59375 C 7.046875 -6.007812 7.25 -6.523438 7.25 -7.140625 C 7.25 -7.753906 7.046875 -8.269531 6.640625 -8.6875 C 6.234375 -9.113281 5.6875 -9.328125 5 -9.328125 L 2.8125 -9.328125 Z M 2.8125 -4.96875 "/></g></g></g><g fill="#000000" fill-opacity="1"><g transform="translate(221.505525, 251.702503)"><g><path d="M 0.8125 -0.9375 L 0.78125 -2.875 C 0.84375 -2.914062 0.925781 -2.9375 1.03125 -2.9375 C 1.144531 -2.9375 1.25 -2.898438 1.34375 -2.828125 L 1.765625 -0.984375 C 2.046875 -0.859375 2.363281 -0.757812 2.71875 -0.6875 C 3.082031 -0.613281 3.460938 -0.578125 3.859375 -0.578125 C 4.722656 -0.578125 5.394531 -0.753906 5.875 -1.109375 C 6.351562 -1.472656 6.59375 -1.972656 6.59375 -2.609375 C 6.59375 -3.109375 6.414062 -3.515625 6.0625 -3.828125 C 5.71875 -4.148438 5.097656 -4.460938 4.203125 -4.765625 C 3.378906 -5.035156 2.726562 -5.3125 2.25 -5.59375 C 1.769531 -5.875 1.421875 -6.1875 1.203125 -6.53125 C 0.992188 -6.882812 0.890625 -7.289062 0.890625 -7.75 C 0.890625 -8.519531 1.164062 -9.117188 1.71875 -9.546875 C 2.28125 -9.972656 3.0625 -10.1875 4.0625 -10.1875 C 4.945312 -10.1875 5.769531 -10.003906 6.53125 -9.640625 C 6.59375 -9.566406 6.648438 -9.488281 6.703125 -9.40625 C 6.753906 -9.320312 6.796875 -9.242188 6.828125 -9.171875 L 6.859375 -7.296875 C 6.796875 -7.253906 6.710938 -7.234375 6.609375 -7.234375 C 6.492188 -7.234375 6.390625 -7.269531 6.296875 -7.34375 L 5.875 -9.109375 C 5.300781 -9.359375 4.695312 -9.484375 4.0625 -9.484375 C 3.320312 -9.484375 2.753906 -9.332031 2.359375 -9.03125 C 1.972656 -8.738281 1.78125 -8.3125 1.78125 -7.75 C 1.78125 -7.414062 1.851562 -7.128906 2 -6.890625 C 2.144531 -6.648438 2.40625 -6.425781 2.78125 -6.21875 C 3.164062 -6.007812 3.695312 -5.796875 4.375 -5.578125 C 5.5 -5.179688 6.300781 -4.757812 6.78125 -4.3125 C 7.257812 -3.863281 7.5 -3.296875 7.5 -2.609375 C 7.5 -1.753906 7.175781 -1.078125 6.53125 -0.578125 C 5.894531 -0.0859375 5.003906 0.15625 3.859375 0.15625 C 3.328125 0.15625 2.816406 0.101562 2.328125 0 C 1.847656 -0.113281 1.441406 -0.269531 1.109375 -0.46875 C 1.046875 -0.539062 0.988281 -0.617188 0.9375 -0.703125 C 0.882812 -0.785156 0.84375 -0.863281 0.8125 -0.9375 Z M 0.8125 -0.9375 "/></g></g></g><g fill="#000000" fill-opacity="1"><g transform="translate(229.940575, 251.702503)"><g><path d="M 6.78125 0 L 2.84375 0 C 2.800781 -0.0625 2.78125 -0.144531 2.78125 -0.25 C 2.78125 -0.363281 2.816406 -0.46875 2.890625 -0.5625 L 4.40625 -0.6875 L 4.40625 -9.328125 L 1.578125 -9.328125 L 1.1875 -7.625 C 1.09375 -7.550781 0.988281 -7.515625 0.875 -7.515625 C 0.769531 -7.515625 0.6875 -7.535156 0.625 -7.578125 L 0.65625 -9.640625 C 0.757812 -9.785156 0.882812 -9.914062 1.03125 -10.03125 L 8.65625 -10.03125 C 8.800781 -9.914062 8.925781 -9.785156 9.03125 -9.640625 L 9.0625 -7.578125 C 9 -7.535156 8.914062 -7.515625 8.8125 -7.515625 C 8.695312 -7.515625 8.59375 -7.550781 8.5 -7.625 L 8.109375 -9.328125 L 5.28125 -9.328125 L 5.28125 -0.71875 L 6.640625 -0.71875 C 6.804688 -0.71875 6.890625 -0.644531 6.890625 -0.5 C 6.890625 -0.425781 6.863281 -0.300781 6.8125 -0.125 Z M 6.78125 0 "/></g></g></g><g fill="#000000" fill-opacity="1"><g transform="translate(239.854065, 251.702503)"><g><path d="M 10.234375 0 L 7.203125 0 C 7.160156 -0.0625 7.140625 -0.144531 7.140625 -0.25 C 7.140625 -0.363281 7.175781 -0.46875 7.25 -0.5625 L 8.296875 -0.6875 L 7.296875 -3.265625 L 3.0625 -3.265625 L 2.09375 -0.71875 L 3 -0.71875 C 3.164062 -0.71875 3.25 -0.644531 3.25 -0.5 C 3.25 -0.425781 3.222656 -0.300781 3.171875 -0.125 L 3.140625 0 L 0.15625 0 C 0.113281 -0.0625 0.09375 -0.144531 0.09375 -0.25 C 0.09375 -0.363281 0.128906 -0.46875 0.203125 -0.5625 L 1.25 -0.6875 L 4.890625 -10.0625 C 4.992188 -10.082031 5.109375 -10.09375 5.234375 -10.09375 C 5.359375 -10.09375 5.472656 -10.082031 5.578125 -10.0625 L 9.203125 -0.71875 L 10.09375 -0.71875 C 10.257812 -0.71875 10.34375 -0.644531 10.34375 -0.5 C 10.34375 -0.425781 10.316406 -0.300781 10.265625 -0.125 Z M 7.03125 -3.96875 L 5.1875 -8.859375 L 3.328125 -3.96875 Z M 7.03125 -3.96875 "/></g></g></g><g fill="#000000" fill-opacity="1"><g transform="translate(250.545684, 251.702503)"><g><path d="M 8.65625 0.078125 L 2.75 -8.65625 L 2.75 -0.71875 L 3.65625 -0.71875 C 3.820312 -0.71875 3.90625 -0.644531 3.90625 -0.5 C 3.90625 -0.425781 3.878906 -0.300781 3.828125 -0.125 L 3.796875 0 L 0.859375 0 C 0.816406 -0.0625 0.796875 -0.144531 0.796875 -0.25 C 0.796875 -0.363281 0.832031 -0.46875 0.90625 -0.5625 L 1.953125 -0.6875 L 1.953125 -9.328125 L 1.046875 -9.328125 C 0.878906 -9.328125 0.796875 -9.398438 0.796875 -9.546875 C 0.796875 -9.617188 0.820312 -9.738281 0.875 -9.90625 L 0.90625 -10.03125 L 2.828125 -10.03125 L 8.46875 -1.703125 L 8.46875 -9.328125 L 7.5625 -9.328125 C 7.394531 -9.328125 7.3125 -9.398438 7.3125 -9.546875 C 7.3125 -9.617188 7.335938 -9.738281 7.390625 -9.90625 L 7.421875 -10.03125 L 10.359375 -10.03125 C 10.398438 -9.96875 10.421875 -9.882812 10.421875 -9.78125 C 10.421875 -9.675781 10.382812 -9.578125 10.3125 -9.484375 L 9.28125 -9.359375 L 9.28125 -0.078125 C 9.1875 -0.0351562 9.082031 -0.00390625 8.96875 0.015625 C 8.863281 0.046875 8.757812 0.0664062 8.65625 0.078125 Z M 8.65625 0.078125 "/></g></g></g><g fill="#000000" fill-opacity="1"><g transform="translate(261.84424, 251.702503)"><g><path d="M 2.8125 -0.71875 L 5.09375 -0.71875 C 5.863281 -0.71875 6.523438 -0.894531 7.078125 -1.25 C 7.628906 -1.613281 8.050781 -2.117188 8.34375 -2.765625 C 8.644531 -3.410156 8.796875 -4.164062 8.796875 -5.03125 C 8.796875 -5.882812 8.644531 -6.632812 8.34375 -7.28125 C 8.050781 -7.925781 7.628906 -8.425781 7.078125 -8.78125 C 6.523438 -9.144531 5.863281 -9.328125 5.09375 -9.328125 L 2.8125 -9.328125 Z M 5.09375 0 L 0.859375 0 C 0.816406 -0.0625 0.796875 -0.144531 0.796875 -0.25 C 0.796875 -0.363281 0.832031 -0.46875 0.90625 -0.5625 L 1.953125 -0.6875 L 1.953125 -9.328125 L 1.046875 -9.328125 C 0.878906 -9.328125 0.796875 -9.398438 0.796875 -9.546875 C 0.796875 -9.617188 0.820312 -9.738281 0.875 -9.90625 L 0.90625 -10.03125 L 5.09375 -10.03125 C 6.019531 -10.03125 6.828125 -9.828125 7.515625 -9.421875 C 8.210938 -9.023438 8.753906 -8.445312 9.140625 -7.6875 C 9.523438 -6.9375 9.71875 -6.050781 9.71875 -5.03125 C 9.71875 -3.988281 9.523438 -3.09375 9.140625 -2.34375 C 8.753906 -1.59375 8.210938 -1.015625 7.515625 -0.609375 C 6.828125 -0.203125 6.019531 0 5.09375 0 Z M 5.09375 0 "/></g></g></g><g fill="#000000" fill-opacity="1"><g transform="translate(272.566976, 251.702503)"><g><path d="M 4.015625 0 L 0.703125 0 C 0.660156 -0.0625 0.640625 -0.144531 0.640625 -0.25 C 0.640625 -0.363281 0.675781 -0.46875 0.75 -0.5625 L 1.953125 -0.6875 L 1.953125 -9.328125 L 0.890625 -9.328125 C 0.722656 -9.328125 0.640625 -9.398438 0.640625 -9.546875 C 0.640625 -9.617188 0.664062 -9.738281 0.71875 -9.90625 L 0.75 -10.03125 L 4.0625 -10.03125 C 4.101562 -9.96875 4.125 -9.882812 4.125 -9.78125 C 4.125 -9.675781 4.085938 -9.578125 4.015625 -9.484375 L 2.8125 -9.359375 L 2.8125 -0.71875 L 3.875 -0.71875 C 4.039062 -0.71875 4.125 -0.644531 4.125 -0.5 C 4.125 -0.425781 4.097656 -0.300781 4.046875 -0.125 Z M 4.015625 0 "/></g></g></g><g fill="#000000" fill-opacity="1"><g transform="translate(277.562711, 251.702503)"><g><path d="M 8.65625 0.078125 L 2.75 -8.65625 L 2.75 -0.71875 L 3.65625 -0.71875 C 3.820312 -0.71875 3.90625 -0.644531 3.90625 -0.5 C 3.90625 -0.425781 3.878906 -0.300781 3.828125 -0.125 L 3.796875 0 L 0.859375 0 C 0.816406 -0.0625 0.796875 -0.144531 0.796875 -0.25 C 0.796875 -0.363281 0.832031 -0.46875 0.90625 -0.5625 L 1.953125 -0.6875 L 1.953125 -9.328125 L 1.046875 -9.328125 C 0.878906 -9.328125 0.796875 -9.398438 0.796875 -9.546875 C 0.796875 -9.617188 0.820312 -9.738281 0.875 -9.90625 L 0.90625 -10.03125 L 2.828125 -10.03125 L 8.46875 -1.703125 L 8.46875 -9.328125 L 7.5625 -9.328125 C 7.394531 -9.328125 7.3125 -9.398438 7.3125 -9.546875 C 7.3125 -9.617188 7.335938 -9.738281 7.390625 -9.90625 L 7.421875 -10.03125 L 10.359375 -10.03125 C 10.398438 -9.96875 10.421875 -9.882812 10.421875 -9.78125 C 10.421875 -9.675781 10.382812 -9.578125 10.3125 -9.484375 L 9.28125 -9.359375 L 9.28125 -0.078125 C 9.1875 -0.0351562 9.082031 -0.00390625 8.96875 0.015625 C 8.863281 0.046875 8.757812 0.0664062 8.65625 0.078125 Z M 8.65625 0.078125 "/></g></g></g><g fill="#000000" fill-opacity="1"><g transform="translate(288.861256, 251.702503)"><g><path d="M 8.046875 -0.96875 L 8.046875 -4.1875 L 6.359375 -4.1875 C 6.191406 -4.1875 6.109375 -4.257812 6.109375 -4.40625 C 6.109375 -4.476562 6.132812 -4.601562 6.1875 -4.78125 L 6.21875 -4.90625 L 9.921875 -4.90625 C 9.960938 -4.84375 9.984375 -4.757812 9.984375 -4.65625 C 9.984375 -4.539062 9.945312 -4.4375 9.875 -4.34375 L 8.921875 -4.21875 L 8.921875 -0.90625 C 8.890625 -0.832031 8.847656 -0.753906 8.796875 -0.671875 C 8.742188 -0.585938 8.6875 -0.507812 8.625 -0.4375 C 8.238281 -0.257812 7.769531 -0.113281 7.21875 0 C 6.675781 0.101562 6.148438 0.15625 5.640625 0.15625 C 4.640625 0.15625 3.773438 -0.0507812 3.046875 -0.46875 C 2.316406 -0.894531 1.753906 -1.492188 1.359375 -2.265625 C 0.972656 -3.035156 0.78125 -3.953125 0.78125 -5.015625 C 0.78125 -6.054688 0.976562 -6.96875 1.375 -7.75 C 1.769531 -8.53125 2.328125 -9.128906 3.046875 -9.546875 C 3.773438 -9.972656 4.632812 -10.1875 5.625 -10.1875 C 6.039062 -10.1875 6.492188 -10.132812 6.984375 -10.03125 C 7.472656 -9.925781 7.925781 -9.785156 8.34375 -9.609375 C 8.40625 -9.535156 8.460938 -9.457031 8.515625 -9.375 C 8.566406 -9.289062 8.609375 -9.210938 8.640625 -9.140625 L 8.671875 -7.21875 C 8.609375 -7.175781 8.523438 -7.15625 8.421875 -7.15625 C 8.304688 -7.15625 8.203125 -7.191406 8.109375 -7.265625 L 7.6875 -9.0625 C 7.320312 -9.207031 6.972656 -9.3125 6.640625 -9.375 C 6.316406 -9.4375 5.976562 -9.46875 5.625 -9.46875 C 4.820312 -9.46875 4.125 -9.285156 3.53125 -8.921875 C 2.9375 -8.554688 2.484375 -8.035156 2.171875 -7.359375 C 1.859375 -6.691406 1.703125 -5.90625 1.703125 -5 C 1.703125 -4.09375 1.863281 -3.304688 2.1875 -2.640625 C 2.507812 -1.984375 2.972656 -1.472656 3.578125 -1.109375 C 4.179688 -0.753906 4.894531 -0.578125 5.71875 -0.578125 C 6.082031 -0.578125 6.488281 -0.613281 6.9375 -0.6875 C 7.394531 -0.769531 7.765625 -0.863281 8.046875 -0.96875 Z M 8.046875 -0.96875 "/></g></g></g><path stroke-linecap="butt" transform="matrix(0.75, 0, 0, 0.75, 37.500002, 248.327475)" fill="none" stroke-linejoin="miter" d="M -0.00000271667 1.000867 L 49.708334 1.000867 " stroke="#000000" stroke-width="2" stroke-opacity="1" stroke-miterlimit="4"/><path stroke-linecap="butt" transform="matrix(0.75, 0, 0, 0.75, 300.218452, 248.327475)" fill="none" stroke-linejoin="miter" d="M 0.000397352 1.000867 L 49.708734 1.000867 " stroke="#000000" stroke-width="2" stroke-opacity="1" stroke-miterlimit="4"/></svg>