<?xml version="1.0" standalone="no"?><svg xmlns="http://www.w3.org/2000/svg" viewBox="0 0 1440 320"><path fill="#F8F1E8" fill-opacity="1" d="M0,128L34.3,106.7C68.6,85,137,43,206,48C274.3,53,343,107,411,149.3C480,192,549,224,617,197.3C685.7,171,754,85,823,85.3C891.4,85,960,171,1029,192C1097.1,213,1166,171,1234,133.3C1302.9,96,1371,64,1406,48L1440,32L1440,320L1405.7,320C1371.4,320,1303,320,1234,320C1165.7,320,1097,320,1029,320C960,320,891,320,823,320C754.3,320,686,320,617,320C548.6,320,480,320,411,320C342.9,320,274,320,206,320C137.1,320,69,320,34,320L0,320Z"></path></svg>