<?xml version="1.0" standalone="no"?><svg xmlns="http://www.w3.org/2000/svg" viewBox="0 0 1440 320"><path fill="#F8F1E8" fill-opacity="1" d="M0,160L21.8,181.3C43.6,203,87,245,131,218.7C174.5,192,218,96,262,53.3C305.5,11,349,21,393,58.7C436.4,96,480,160,524,197.3C567.3,235,611,245,655,224C698.2,203,742,149,785,112C829.1,75,873,53,916,64C960,75,1004,117,1047,160C1090.9,203,1135,245,1178,256C1221.8,267,1265,245,1309,197.3C1352.7,149,1396,75,1418,37.3L1440,0L1440,320L1418.2,320C1396.4,320,1353,320,1309,320C1265.5,320,1222,320,1178,320C1134.5,320,1091,320,1047,320C1003.6,320,960,320,916,320C872.7,320,829,320,785,320C741.8,320,698,320,655,320C610.9,320,567,320,524,320C480,320,436,320,393,320C349.1,320,305,320,262,320C218.2,320,175,320,131,320C87.3,320,44,320,22,320L0,320Z"></path></svg>