<?xml version="1.0" encoding="utf-8"?>
<!-- Generator: Adobe Illustrator 25.2.0, SVG Export Plug-In . SVG Version: 6.00 Build 0)  -->
<svg version="1.1" id="Layer_1" xmlns="http://www.w3.org/2000/svg" xmlns:xlink="http://www.w3.org/1999/xlink" x="0px" y="0px"
	 viewBox="0 0 50 50" style="enable-background:new 0 0 50 50;" xml:space="preserve">
<style type="text/css">
	.st0{fill:url(#SVGID_1_);}
	.st1{fill:#FFFFFF;}
</style>
<linearGradient id="SVGID_1_" gradientUnits="userSpaceOnUse" x1="25" y1="51" x2="25" y2="1" gradientTransform="matrix(1 0 0 -1 0 51)">
	<stop  offset="0" style="stop-color:#6E6156"/>
	<stop  offset="1" style="stop-color:#3A322B"/>
	<stop  offset="1" style="stop-color:#7763E5"/>
</linearGradient>
<path class="st0" d="M4,0h42c2.2,0,4,1.8,4,4v42c0,2.2-1.8,4-4,4H4c-2.2,0-4-1.8-4-4V4C0,1.8,1.8,0,4,0z"/>
<path class="st1" d="M40.5,23.9H27.7c-0.1,0-0.3,0.1-0.4,0.2s-0.2,0.2-0.2,0.4v1.9c-1-0.6-2.1-0.9-3.2-0.9h-1.6v-1.1
	c1-0.8,1.8-1.9,2-3.2h0.1c0.4,0,0.8-0.1,1.1-0.3c0.3-0.2,0.6-0.5,0.8-0.9c0.2-0.4,0.2-0.8,0.2-1.2c-0.1-0.4-0.2-0.8-0.5-1.1v-1.8
	c0-1.8-0.7-3.6-2-4.9c-1.3-1.3-3.1-2-4.9-2s-3.6,0.7-4.9,2c-1.3,1.3-2,3.1-2,4.9v1.8c-0.3,0.3-0.4,0.7-0.5,1.1
	c-0.1,0.4,0,0.8,0.2,1.2c0.2,0.4,0.4,0.7,0.8,0.9c0.3,0.2,0.7,0.3,1.1,0.3H14c0.3,1.3,1,2.4,2,3.2v1.1h-1.6c-1.7,0-3.3,0.7-4.5,1.9
	C8.7,28.6,8,30.2,8,31.9v9.6c0,0.1,0.1,0.3,0.2,0.4C8.3,41.9,8.4,42,8.5,42h17.6v-1.1h-4.3l-1.5-9l0.6-1.3l1.2,0.6
	c0.1,0,0.2,0.1,0.3,0.1c0.1,0,0.2,0,0.3-0.1c0.1-0.1,0.2-0.2,0.2-0.3l1.5-4.4c1,0.1,2,0.4,2.8,1.1v13.8c0,0.1,0.1,0.3,0.2,0.4
	s0.2,0.2,0.4,0.2h12.8c0.1,0,0.3-0.1,0.4-0.2s0.2-0.2,0.2-0.4v-17c0-0.1-0.1-0.3-0.2-0.4S40.6,23.9,40.5,23.9z M24.5,20.2V18
	c0.3,0,0.6,0.1,0.8,0.3c0.2,0.2,0.3,0.5,0.3,0.8c0,0.3-0.1,0.6-0.3,0.8C25.1,20.1,24.8,20.2,24.5,20.2z M12.8,19.1
	c0-0.3,0.1-0.6,0.3-0.8c0.2-0.2,0.5-0.3,0.8-0.3v2.1c-0.3,0-0.6-0.1-0.8-0.3C12.9,19.7,12.8,19.4,12.8,19.1z M13.9,17
	c-0.2,0-0.4,0-0.5,0.1v-1.1c0-1.6,0.6-3,1.7-4.1s2.6-1.7,4.1-1.7c1.6,0,3,0.6,4.1,1.7s1.7,2.6,1.7,4.1v1.1c-0.2,0-0.4-0.1-0.5-0.1
	c0-0.1-0.1-0.3-0.2-0.4c-0.1-0.1-0.2-0.2-0.4-0.2c-0.4,0-0.8-0.1-1.2-0.3c-0.4-0.2-0.7-0.5-0.9-0.8l-0.6-0.9c0-0.1-0.1-0.1-0.2-0.2
	c-0.1,0-0.2-0.1-0.2-0.1s-0.2,0-0.2,0.1c-0.1,0-0.1,0.1-0.2,0.2l-0.6,0.9c-0.2,0.3-0.6,0.6-0.9,0.8c-0.4,0.2-0.8,0.3-1.2,0.3h-3.2
	c-0.1,0-0.3,0.1-0.4,0.2C13.9,16.7,13.9,16.8,13.9,17z M14.9,20.2v-2.7h2.7c0.6,0,1.1-0.1,1.7-0.4c0.5-0.3,1-0.6,1.3-1.1l0.2-0.3
	L21,16c0.6,0.8,1.5,1.3,2.4,1.5v2.7c0,1.1-0.4,2.2-1.2,3c-0.8,0.8-1.9,1.2-3,1.2c-1.1,0-2.2-0.4-3-1.2
	C15.4,22.4,14.9,21.3,14.9,20.2z M19.2,25.5c0.7,0,1.5-0.2,2.1-0.4v0.8l-2.1,2.6L17,25.8v-0.8C17.7,25.3,18.4,25.5,19.2,25.5z
	 M16.3,30.1l-1.2-3.5h1.1l2.1,2.5L16.3,30.1z M9.1,31.9c0-1.3,0.5-2.6,1.4-3.6c0.9-1,2.2-1.6,3.5-1.7l1.5,4.4c0,0.1,0.1,0.2,0.2,0.3
	s0.2,0.1,0.3,0.1c0.1,0,0.2,0,0.2-0.1l1.2-0.6l0.7,1.3l-1.5,9h-4.3v-7.5h-1.1v7.5H9.1V31.9z M17.7,40.9l1.4-8.5h0.2l1.4,8.5H17.7z
	 M19.4,31.4H19l-0.6-1.1l0.8-0.4l0.8,0.4L19.4,31.4z M22,30.1l-2-1l2.1-2.5h1.1L22,30.1z M31.4,25h5.3V26h-5.3V25z M39.9,40.9H28.2
	V25h2.1v1.6c0,0.1,0.1,0.3,0.2,0.4c0.1,0.1,0.2,0.2,0.4,0.2h6.4c0.1,0,0.3-0.1,0.4-0.2c0.1-0.1,0.2-0.2,0.2-0.4V25h2.1V40.9z"/>
<path class="st1" d="M32,28.2h-2.1c-0.1,0-0.3,0.1-0.4,0.2c-0.1,0.1-0.2,0.2-0.2,0.4v2.1c0,0.1,0.1,0.3,0.2,0.4
	c0.1,0.1,0.2,0.2,0.4,0.2H32c0.1,0,0.3-0.1,0.4-0.2s0.2-0.2,0.2-0.4v-2.1c0-0.1-0.1-0.3-0.2-0.4C32.2,28.2,32.1,28.2,32,28.2z
	 M31.4,30.3h-1.1v-1.1h1.1V30.3z"/>
<path class="st1" d="M32,32.4h-2.1c-0.1,0-0.3,0.1-0.4,0.2c-0.1,0.1-0.2,0.2-0.2,0.4v2.1c0,0.1,0.1,0.3,0.2,0.4
	c0.1,0.1,0.2,0.2,0.4,0.2H32c0.1,0,0.3-0.1,0.4-0.2s0.2-0.2,0.2-0.4V33c0-0.1-0.1-0.3-0.2-0.4C32.2,32.5,32.1,32.4,32,32.4z
	 M31.4,34.5h-1.1v-1.1h1.1V34.5z"/>
<path class="st1" d="M32,36.7h-2.1c-0.1,0-0.3,0.1-0.4,0.2c-0.1,0.1-0.2,0.2-0.2,0.4v2.1c0,0.1,0.1,0.3,0.2,0.4
	c0.1,0.1,0.2,0.2,0.4,0.2H32c0.1,0,0.3-0.1,0.4-0.2c0.1-0.1,0.2-0.2,0.2-0.4v-2.1c0-0.1-0.1-0.3-0.2-0.4S32.1,36.7,32,36.7z
	 M31.4,38.8h-1.1v-1.1h1.1V38.8z"/>
<path class="st1" d="M33.5,28.2h5.3v1.1h-5.3V28.2z"/>
<path class="st1" d="M33.5,30.3h5.3v1.1h-5.3V30.3z"/>
<path class="st1" d="M33.5,32.4h5.3v1.1h-5.3V32.4z"/>
<path class="st1" d="M33.5,34.5h5.3v1.1h-5.3V34.5z"/>
<path class="st1" d="M33.5,36.7h5.3v1.1h-5.3V36.7z"/>
<path class="st1" d="M33.5,38.8h5.3v1.1h-5.3V38.8z"/>
</svg>
