<?xml version="1.0" encoding="utf-8"?>
<!-- Generator: Adobe Illustrator 25.2.0, SVG Export Plug-In . SVG Version: 6.00 Build 0)  -->
<svg version="1.1" id="Layer_1" xmlns="http://www.w3.org/2000/svg" xmlns:xlink="http://www.w3.org/1999/xlink" x="0px" y="0px"
	 viewBox="0 0 50 50" style="enable-background:new 0 0 50 50;" xml:space="preserve">
<style type="text/css">
	.st0{fill:url(#SVGID_1_);}
	.st1{fill:#FFFFFF;}
</style>
<linearGradient id="SVGID_1_" gradientUnits="userSpaceOnUse" x1="25" y1="51" x2="25" y2="1" gradientTransform="matrix(1 0 0 -1 0 51)">
	<stop  offset="0" style="stop-color:#6E6156"/>
	<stop  offset="1" style="stop-color:#3A322B"/>
	<stop  offset="1" style="stop-color:#7763E5"/>
</linearGradient>
<path class="st0" d="M4,0h42c2.2,0,4,1.8,4,4v42c0,2.2-1.8,4-4,4H4c-2.2,0-4-1.8-4-4V4C0,1.8,1.8,0,4,0z"/>
<path class="st1" d="M38.2,20.8h-1.9v-0.2c0-0.5-0.4-1-1-1h-3.8c-0.3,0-0.5,0.2-0.5,0.5c0,0.3,0.2,0.5,0.5,0.5h3.8c0,0,0,0,0,0v5.8
	c0,0.3,0.2,0.5,0.5,0.5c0.3,0,0.5-0.2,0.5-0.5v-4.6h1.9c0.1,0,0.1,0.1,0.1,0.1v16.5c0,1.1-0.9,2-2,2H12.9c-1.1,0-2-0.9-2-2V21.9
	c0-0.1,0.1-0.1,0.1-0.1h2V38c0,0.7,0.5,1.2,1.2,1.2h20.8c0.7,0,1.2-0.5,1.2-1.2v-9.6c0-0.3-0.2-0.5-0.5-0.5c-0.3,0-0.5,0.2-0.5,0.5
	v6.8h-7.7c-1,0-1.9,0.4-2.5,1.1v-6.1c0-0.3-0.2-0.5-0.5-0.5c-0.3,0-0.5,0.2-0.5,0.5v6.1c-0.6-0.7-1.5-1.1-2.5-1.1h-2.2
	c-0.3,0-0.5,0.2-0.5,0.5c0,0.3,0.2,0.5,0.5,0.5h2.2c1.2,0,2.3,0.9,2.5,2.1h-9.9c-0.1,0-0.3-0.1-0.3-0.3v-1.8h3.5
	c0.3,0,0.5-0.2,0.5-0.5c0-0.3-0.2-0.5-0.5-0.5H14V20.6c0,0,0,0,0,0h3.8c0.3,0,0.5-0.2,0.5-0.5c0-0.3-0.2-0.5-0.5-0.5H14
	c-0.5,0-1,0.4-1,1v0.2h-2c-0.6,0-1.1,0.5-1.1,1.1v16.5c0,1.6,1.3,2.9,2.9,2.9h23.4c1.6,0,2.9-1.3,2.9-2.9V21.9
	C39.3,21.3,38.8,20.8,38.2,20.8z M27.7,36.2h7.7V38c0,0.1-0.1,0.3-0.3,0.3h-9.9C25.4,37.1,26.4,36.2,27.7,36.2z"/>
<path class="st1" d="M18.4,15.7c0.3,0,0.5-0.2,0.5-0.4c0.1-1.4,0.8-2.8,1.9-3.7c1.1-1,2.5-1.5,3.9-1.5c3.2,0,5.8,2.6,5.8,5.8
	c0,1.2-0.4,2.4-1.1,3.4c0,0,0,0,0,0l-3,4.7c0,0.1-0.1,0.2-0.1,0.3v0.6c0,0.1-0.1,0.2-0.2,0.2h0l0.3-5.1h0.5c0.8,0,1.4-0.6,1.4-1.4
	v-0.1c0-0.8-0.6-1.4-1.4-1.4c-0.7,0-1.4,0.6-1.4,1.3l0,0.6h-1.7l0-0.6c0-0.7-0.7-1.3-1.4-1.3c-0.8,0-1.4,0.6-1.4,1.4v0.1
	c0,0.8,0.6,1.4,1.4,1.4h0.5l0.3,5.1c-0.1,0-0.2-0.1-0.2-0.2v-0.6c0-0.1,0-0.2-0.1-0.3l-3-4.7c0,0,0,0,0,0c-0.4-0.6-0.7-1.3-0.9-2
	c-0.1-0.3-0.3-0.4-0.6-0.4c-0.3,0.1-0.4,0.3-0.4,0.6c0.2,0.9,0.6,1.7,1.1,2.4l3,4.6v0.5c0,0.5,0.3,0.9,0.7,1.1v0.8
	c0,0.8,0.7,1.5,1.5,1.5H25c0.8,0,1.5-0.7,1.5-1.5v-0.8c0.4-0.2,0.7-0.6,0.7-1.1v-0.5l3-4.6c0.8-1.1,1.2-2.5,1.2-3.9
	c0-3.7-3-6.8-6.8-6.8c-1.7,0-3.3,0.6-4.6,1.8c-1.2,1.1-2,2.7-2.2,4.4C17.9,15.4,18.1,15.6,18.4,15.7z M26.5,18.4
	c0-0.2,0.2-0.4,0.5-0.4c0.2,0,0.5,0.2,0.5,0.5v0.1c0,0.2-0.2,0.5-0.5,0.5h-0.5L26.5,18.4z M22.4,18.9c-0.3,0-0.5-0.2-0.5-0.5v-0.1
	c0-0.2,0.2-0.5,0.5-0.5c0.2,0,0.4,0.2,0.5,0.4l0,0.5H22.4z M25.4,19.8L25.1,25h-0.9l-0.3-5.1H25.4z M25.6,26.6
	c0,0.3-0.3,0.6-0.6,0.6h-0.7c-0.3,0-0.6-0.3-0.6-0.6v-0.7h1.9L25.6,26.6L25.6,26.6z"/>
<path class="st1" d="M33,12.6c0.1,0,0.2,0,0.3-0.1l1-0.9c0.2-0.2,0.2-0.5,0-0.7c-0.2-0.2-0.5-0.2-0.7,0l-1,0.9
	c-0.2,0.2-0.2,0.5,0,0.7C32.7,12.5,32.8,12.6,33,12.6z"/>
<path class="st1" d="M32.7,15.5l1,0.9c0.1,0.1,0.2,0.1,0.3,0.1c0.1,0,0.3-0.1,0.4-0.2c0.2-0.2,0.2-0.5,0-0.7l-1-0.9
	c-0.2-0.2-0.5-0.2-0.7,0C32.5,15,32.5,15.3,32.7,15.5z"/>
<path class="st1" d="M15,11.6l1,0.9c0.1,0.1,0.2,0.1,0.3,0.1c0.1,0,0.3-0.1,0.4-0.2c0.2-0.2,0.2-0.5,0-0.7l-1-0.9
	c-0.2-0.2-0.5-0.2-0.7,0C14.8,11.1,14.8,11.4,15,11.6z"/>
<path class="st1" d="M15.3,16.5c0.1,0,0.2,0,0.3-0.1l1-0.9c0.2-0.2,0.2-0.5,0-0.7c-0.2-0.2-0.5-0.2-0.7,0l-1,0.9
	c-0.2,0.2-0.2,0.5,0,0.7C15.1,16.4,15.2,16.5,15.3,16.5z"/>
<path class="st1" d="M20.5,25.4c0-0.3-0.2-0.5-0.5-0.5h-4.7c-0.3,0-0.5,0.2-0.5,0.5c0,0.3,0.2,0.5,0.5,0.5H20
	C20.3,25.9,20.5,25.7,20.5,25.4z"/>
<path class="st1" d="M21.4,27.4h-5.3c-0.3,0-0.5,0.2-0.5,0.5s0.2,0.5,0.5,0.5h5.3c0.3,0,0.5-0.2,0.5-0.5S21.7,27.4,21.4,27.4z"/>
<path class="st1" d="M21.4,29.7h-5.3c-0.3,0-0.5,0.2-0.5,0.5s0.2,0.5,0.5,0.5h5.3c0.3,0,0.5-0.2,0.5-0.5S21.7,29.7,21.4,29.7z"/>
<path class="st1" d="M21.4,32h-5.3c-0.3,0-0.5,0.2-0.5,0.5c0,0.3,0.2,0.5,0.5,0.5h5.3c0.3,0,0.5-0.2,0.5-0.5
	C21.9,32.2,21.7,32,21.4,32z"/>
<path class="st1" d="M34.5,25.4c0-0.3-0.2-0.5-0.5-0.5h-4.7c-0.3,0-0.5,0.2-0.5,0.5c0,0.3,0.2,0.5,0.5,0.5H34
	C34.3,25.9,34.5,25.7,34.5,25.4z"/>
<path class="st1" d="M33.2,27.4h-5.3c-0.3,0-0.5,0.2-0.5,0.5s0.2,0.5,0.5,0.5h5.3c0.3,0,0.5-0.2,0.5-0.5S33.4,27.4,33.2,27.4z"/>
<path class="st1" d="M33.2,29.7h-5.3c-0.3,0-0.5,0.2-0.5,0.5s0.2,0.5,0.5,0.5h5.3c0.3,0,0.5-0.2,0.5-0.5S33.4,29.7,33.2,29.7z"/>
<path class="st1" d="M33.2,32h-5.3c-0.3,0-0.5,0.2-0.5,0.5c0,0.3,0.2,0.5,0.5,0.5h5.3c0.3,0,0.5-0.2,0.5-0.5
	C33.6,32.2,33.4,32,33.2,32z"/>
</svg>
