<?xml version="1.0" encoding="UTF-8"?>
<svg xmlns="http://www.w3.org/2000/svg" xmlns:xlink="http://www.w3.org/1999/xlink" width="200px" height="200px" viewBox="0 0 200 200" version="1.1">
<defs>
<clipPath id="clip1">
  <path d="M 63.523438 61 L 136.324219 61 L 136.324219 123.824219 L 63.523438 123.824219 Z M 63.523438 61 "/>
</clipPath>
</defs>
<g id="surface1">
<rect x="0" y="0" width="200" height="200" style="fill:rgb(97.254902%,94.509804%,90.980392%);fill-opacity:1;stroke:none;"/>
<path style=" stroke:none;fill-rule:nonzero;fill:rgb(0%,0%,0%);fill-opacity:1;" d="M 30.363281 118.953125 L 30.511719 117.542969 L 20.648438 116.519531 L 21.039062 112.742188 L 19.695312 112.601562 L 18.761719 121.585938 L 20.105469 121.722656 L 20.5 117.929688 Z M 30.363281 118.953125 "/>
<path style=" stroke:none;fill-rule:nonzero;fill:rgb(0%,0%,0%);fill-opacity:1;" d="M 33.394531 103.957031 L 33.773438 102.59375 L 22.910156 99.585938 L 22.535156 100.949219 L 27.203125 102.242188 L 25.609375 108 L 20.941406 106.707031 L 20.558594 108.070312 L 31.421875 111.078125 L 31.800781 109.714844 L 26.914062 108.359375 L 28.507812 102.605469 Z M 33.394531 103.957031 "/>
<path style=" stroke:none;fill-rule:nonzero;fill:rgb(0%,0%,0%);fill-opacity:1;" d="M 35.183594 99.039062 L 38.132812 92.667969 L 36.9375 92.113281 L 34.578125 97.195312 L 31.164062 95.613281 L 33.277344 91.054688 L 32.09375 90.507812 L 29.980469 95.066406 L 26.75 93.570312 L 29.03125 88.644531 L 27.835938 88.089844 L 24.957031 94.296875 Z M 35.183594 99.039062 "/>
<path style=" stroke:none;fill-rule:nonzero;fill:rgb(0%,0%,0%);fill-opacity:1;" d="M 45.644531 81.851562 C 47.8125 79.152344 47.230469 75.6875 44.304688 73.417969 L 40.472656 78.1875 L 41.523438 79.035156 L 44.402344 75.460938 C 45.875 77.015625 45.984375 79.167969 44.558594 80.9375 C 42.976562 82.90625 40.4375 83.160156 38.40625 81.527344 C 36.375 79.890625 36.066406 77.371094 37.648438 75.402344 C 38.738281 74.042969 40.273438 73.5 41.84375 73.855469 L 42.8125 72.652344 C 40.628906 71.824219 38.128906 72.542969 36.515625 74.550781 C 34.445312 77.121094 34.863281 80.535156 37.496094 82.65625 C 40.144531 84.785156 43.566406 84.433594 45.644531 81.851562 Z M 45.644531 81.851562 "/>
<path style=" stroke:none;fill-rule:nonzero;fill:rgb(0%,0%,0%);fill-opacity:1;" d="M 55.21875 72.09375 C 57.851562 69.894531 58.15625 66.492188 55.957031 63.859375 C 53.753906 61.230469 50.351562 60.925781 47.722656 63.125 C 45.09375 65.324219 44.800781 68.714844 47 71.347656 C 49.199219 73.976562 52.589844 74.292969 55.21875 72.09375 Z M 48.113281 70.417969 C 46.429688 68.40625 46.644531 65.875 48.632812 64.214844 C 50.621094 62.550781 53.148438 62.785156 54.832031 64.800781 C 56.511719 66.8125 56.300781 69.34375 54.3125 71.007812 C 52.320312 72.667969 49.792969 72.433594 48.113281 70.417969 Z M 48.113281 70.417969 "/>
<path style=" stroke:none;fill-rule:nonzero;fill:rgb(0%,0%,0%);fill-opacity:1;" d="M 66.636719 64.335938 C 69.652344 62.699219 70.625 59.421875 68.984375 56.410156 C 67.351562 53.394531 64.074219 52.425781 61.0625 54.0625 C 58.046875 55.699219 57.09375 58.964844 58.726562 61.980469 C 60.363281 64.992188 63.625 65.96875 66.636719 64.335938 Z M 60.003906 61.285156 C 58.75 58.980469 59.457031 56.542969 61.738281 55.308594 C 64.015625 54.070312 66.445312 54.800781 67.699219 57.109375 C 68.949219 59.414062 68.238281 61.851562 65.960938 63.089844 C 63.683594 64.328125 61.253906 63.59375 60.003906 61.285156 Z M 60.003906 61.285156 "/>
<path style=" stroke:none;fill-rule:nonzero;fill:rgb(0%,0%,0%);fill-opacity:1;" d="M 74.464844 60.316406 L 78.179688 59.136719 C 81.476562 58.089844 82.992188 55.195312 81.984375 52.019531 C 80.976562 48.84375 78.070312 47.347656 74.773438 48.394531 L 71.058594 49.574219 Z M 75.40625 58.597656 L 72.816406 50.433594 L 75.121094 49.703125 C 77.621094 48.910156 79.832031 50.019531 80.601562 52.457031 C 81.378906 54.898438 80.226562 57.070312 77.769531 57.847656 Z M 75.40625 58.597656 "/>
<path style=" stroke:none;fill-rule:nonzero;fill:rgb(0%,0%,0%);fill-opacity:1;" d="M 95.429688 56.046875 C 97.886719 55.882812 99.398438 54.570312 99.269531 52.613281 C 99.160156 50.957031 97.988281 50.035156 95.0625 49.519531 C 92.84375 49.132812 92.082031 48.601562 92.023438 47.671875 C 91.949219 46.59375 92.871094 45.855469 94.476562 45.75 C 96.128906 45.640625 97.214844 46.40625 97.335938 47.753906 L 98.730469 47.660156 C 98.574219 45.476562 96.910156 44.234375 94.386719 44.398438 C 91.929688 44.5625 90.449219 45.871094 90.574219 47.765625 C 90.691406 49.5 91.992188 50.382812 94.796875 50.859375 C 96.851562 51.207031 97.742188 51.714844 97.8125 52.757812 C 97.882812 53.867188 96.933594 54.589844 95.339844 54.695312 C 93.589844 54.8125 92.3125 54.023438 92.183594 52.582031 L 90.769531 52.675781 C 90.933594 54.871094 92.746094 56.222656 95.429688 56.046875 Z M 95.429688 56.046875 "/>
<path style=" stroke:none;fill-rule:nonzero;fill:rgb(0%,0%,0%);fill-opacity:1;" d="M 105.363281 55.914062 L 106.773438 56.039062 L 107.660156 46.164062 L 111.445312 46.5 L 111.566406 45.15625 L 102.570312 44.347656 L 102.449219 45.695312 L 106.25 46.035156 Z M 105.363281 55.914062 "/>
<path style=" stroke:none;fill-rule:nonzero;fill:rgb(0%,0%,0%);fill-opacity:1;" d="M 117.292969 58.121094 C 119.929688 58.804688 121.964844 57.484375 122.71875 54.585938 L 124.398438 48.121094 L 123.027344 47.765625 L 121.371094 54.136719 C 120.792969 56.367188 119.511719 57.265625 117.640625 56.777344 C 115.789062 56.296875 115.089844 54.882812 115.667969 52.65625 L 117.324219 46.28125 L 115.964844 45.929688 L 114.289062 52.398438 C 113.535156 55.296875 114.660156 57.433594 117.292969 58.121094 Z M 117.292969 58.121094 "/>
<path style=" stroke:none;fill-rule:nonzero;fill:rgb(0%,0%,0%);fill-opacity:1;" d="M 124.984375 60.234375 L 128.523438 61.871094 C 131.664062 63.320312 134.734375 62.199219 136.132812 59.175781 C 137.527344 56.148438 136.386719 53.085938 133.246094 51.636719 L 129.707031 50.003906 Z M 126.835938 59.601562 L 130.425781 51.824219 L 132.621094 52.839844 C 135 53.9375 135.890625 56.246094 134.816406 58.566406 C 133.742188 60.890625 131.425781 61.722656 129.089844 60.640625 Z M 126.835938 59.601562 "/>
<path style=" stroke:none;fill-rule:nonzero;fill:rgb(0%,0%,0%);fill-opacity:1;" d="M 136.398438 65.964844 L 142.203125 69.914062 L 142.945312 68.820312 L 138.3125 65.671875 L 140.429688 62.554688 L 144.585938 65.378906 L 145.316406 64.300781 L 141.167969 61.476562 L 143.167969 58.535156 L 147.652344 61.585938 L 148.394531 60.492188 L 142.738281 56.644531 Z M 136.398438 65.964844 "/>
<path style=" stroke:none;fill-rule:nonzero;fill:rgb(0%,0%,0%);fill-opacity:1;" d="M 144.746094 71.898438 L 145.761719 72.863281 L 151.851562 66.484375 L 150.265625 77.167969 L 151.222656 78.078125 L 159.003906 69.925781 L 158.003906 68.96875 L 151.910156 75.351562 L 153.492188 64.667969 L 152.527344 63.746094 Z M 144.746094 71.898438 "/>
<path style=" stroke:none;fill-rule:nonzero;fill:rgb(0%,0%,0%);fill-opacity:1;" d="M 155.308594 83.164062 L 156.152344 84.300781 L 164.101562 78.367188 L 166.375 81.414062 L 167.460938 80.605469 L 162.058594 73.367188 L 160.972656 74.175781 L 163.257812 77.234375 Z M 155.308594 83.164062 "/>
<path style=" stroke:none;fill-rule:nonzero;fill:rgb(0%,0%,0%);fill-opacity:1;" d="M 164.023438 98.695312 C 165.078125 101.21875 167.464844 102.632812 170.042969 102.285156 L 169.464844 100.902344 C 167.683594 101.019531 166.085938 99.960938 165.347656 98.195312 C 164.378906 95.875 165.371094 93.523438 167.777344 92.519531 C 170.183594 91.515625 172.550781 92.460938 173.519531 94.777344 C 174.238281 96.5 173.90625 98.296875 172.628906 99.460938 L 173.214844 100.855469 C 175.214844 99.214844 175.832031 96.640625 174.808594 94.1875 C 173.527344 91.125 170.351562 89.871094 167.214844 91.183594 C 164.082031 92.492188 162.742188 95.636719 164.023438 98.695312 Z M 164.023438 98.695312 "/>
<path style=" stroke:none;fill-rule:nonzero;fill:rgb(0%,0%,0%);fill-opacity:1;" d="M 167.992188 111.664062 C 168.671875 115.027344 171.519531 116.914062 174.878906 116.234375 C 178.242188 115.554688 180.128906 112.707031 179.449219 109.347656 C 178.769531 105.984375 175.925781 104.113281 172.566406 104.792969 C 169.207031 105.472656 167.3125 108.304688 167.992188 111.664062 Z M 172.855469 106.214844 C 175.425781 105.695312 177.546875 107.085938 178.0625 109.628906 C 178.574219 112.167969 177.160156 114.28125 174.589844 114.796875 C 172.019531 115.320312 169.894531 113.925781 169.382812 111.382812 C 168.867188 108.84375 170.28125 106.734375 172.855469 106.214844 Z M 172.855469 106.214844 "/>
<path style=" stroke:none;fill-rule:nonzero;fill:rgb(0%,0%,0%);fill-opacity:1;" d="M 169.316406 121.03125 C 169.359375 121.691406 169.835938 122.097656 170.445312 122.054688 C 171.054688 122.019531 171.460938 121.554688 171.421875 120.898438 C 171.382812 120.253906 170.917969 119.847656 170.308594 119.886719 C 169.699219 119.925781 169.273438 120.390625 169.316406 121.03125 Z M 169.316406 121.03125 "/>
<g clip-path="url(#clip1)" clip-rule="nonzero">
<path style=" stroke:none;fill-rule:nonzero;fill:rgb(22.745098%,19.607843%,16.862745%);fill-opacity:1;" d="M 136.324219 91.792969 C 136.328125 91.636719 136.265625 91.484375 136.152344 91.371094 L 131.695312 86.855469 C 131.582031 86.742188 131.433594 86.683594 131.269531 86.683594 C 131.109375 86.6875 130.957031 86.757812 130.851562 86.875 L 122.300781 96.398438 L 120.363281 96.398438 L 122.261719 76.699219 C 122.265625 76.667969 122.253906 76.636719 122.253906 76.605469 C 122.25 76.578125 122.257812 76.546875 122.25 76.515625 L 120.917969 70.609375 C 120.863281 70.367188 120.660156 70.183594 120.410156 70.164062 C 120.164062 70.140625 119.925781 70.273438 119.824219 70.503906 L 117.390625 76.039062 C 117.378906 76.066406 117.378906 76.097656 117.371094 76.125 C 117.363281 76.15625 117.347656 76.183594 117.34375 76.214844 L 115.398438 96.398438 L 113.890625 96.398438 L 113.890625 71.429688 C 113.890625 71.390625 113.882812 71.351562 113.871094 71.316406 C 113.871094 71.304688 113.875 71.300781 113.871094 71.292969 L 112.609375 66.183594 C 112.546875 65.925781 112.316406 65.742188 112.050781 65.742188 L 111.363281 65.742188 L 111.363281 64.40625 C 111.363281 64.085938 111.105469 63.828125 110.789062 63.828125 C 110.46875 63.828125 110.210938 64.085938 110.210938 64.40625 L 110.210938 65.742188 L 109.523438 65.742188 C 109.261719 65.742188 109.027344 65.925781 108.964844 66.183594 L 107.703125 71.292969 C 107.703125 71.300781 107.703125 71.304688 107.703125 71.316406 C 107.695312 71.351562 107.683594 71.390625 107.683594 71.429688 L 107.683594 88.128906 C 107.589844 88.109375 107.496094 88.097656 107.394531 88.097656 L 107.238281 88.097656 C 106.441406 88.097656 105.792969 88.746094 105.792969 89.542969 L 105.792969 96.398438 L 101.082031 96.398438 L 106.296875 77.6875 C 106.304688 77.65625 106.300781 77.625 106.304688 77.597656 C 106.304688 77.566406 106.320312 77.535156 106.316406 77.503906 L 106.039062 71.453125 C 106.023438 71.203125 105.855469 70.988281 105.613281 70.921875 C 105.375 70.855469 105.117188 70.949219 104.980469 71.15625 L 101.617188 76.167969 C 101.601562 76.195312 101.597656 76.222656 101.582031 76.25 C 101.570312 76.277344 101.546875 76.304688 101.539062 76.335938 L 100.640625 79.570312 L 100.640625 78.398438 C 100.640625 78.367188 100.625 78.339844 100.621094 78.308594 C 100.617188 78.277344 100.621094 78.246094 100.609375 78.214844 L 98.714844 72.46875 C 98.640625 72.234375 98.417969 72.070312 98.167969 72.070312 C 97.917969 72.070312 97.699219 72.230469 97.617188 72.46875 L 95.726562 78.214844 C 95.714844 78.246094 95.722656 78.277344 95.714844 78.308594 C 95.710938 78.339844 95.699219 78.367188 95.699219 78.398438 L 95.699219 94.539062 L 90.261719 83.910156 L 98.390625 68.683594 C 98.539062 68.402344 98.433594 68.054688 98.160156 67.902344 L 91.496094 64.261719 C 91.363281 64.183594 91.203125 64.167969 91.054688 64.210938 C 90.910156 64.257812 90.785156 64.359375 90.710938 64.492188 L 89.941406 65.933594 C 87.757812 62.699219 83.648438 60.28125 80.523438 61.695312 C 78.53125 62.597656 77.59375 64.703125 77.167969 66.203125 C 75.679688 65.777344 73.417969 65.472656 71.609375 66.707031 C 70.042969 67.777344 69.183594 69.777344 69.199219 72.332031 C 69.207031 74.585938 69.917969 76.957031 71.089844 78.675781 C 72.964844 81.417969 76.398438 83.007812 80.289062 83.007812 C 80.472656 83.007812 80.652344 82.996094 80.835938 82.992188 L 77.476562 89.289062 L 77.296875 87.308594 C 77.285156 87.15625 77.210938 87.015625 77.089844 86.917969 C 76.976562 86.820312 76.824219 86.773438 76.667969 86.785156 L 76.550781 86.796875 L 76.453125 85.703125 C 76.410156 85.242188 76.195312 84.824219 75.839844 84.53125 C 75.488281 84.238281 75.042969 84.105469 74.59375 84.144531 L 71.292969 84.449219 C 70.355469 84.535156 69.660156 85.375 69.746094 86.320312 L 69.84375 87.417969 L 69.726562 87.429688 C 69.410156 87.457031 69.175781 87.738281 69.203125 88.054688 L 69.957031 96.398438 L 69.148438 96.398438 C 68.828125 96.398438 68.570312 96.660156 68.570312 96.976562 L 68.570312 100.347656 C 67.527344 100.578125 66.527344 101.003906 65.660156 101.613281 C 65.328125 101.847656 65.011719 102.109375 64.722656 102.386719 C 63.957031 103.113281 63.523438 104.144531 63.523438 105.210938 L 63.523438 119.855469 C 63.523438 121.996094 65.246094 123.742188 67.367188 123.742188 L 127.710938 123.742188 C 129.832031 123.742188 131.554688 121.996094 131.554688 119.855469 L 131.554688 105.210938 C 131.554688 104.144531 131.121094 103.113281 130.359375 102.386719 C 130.066406 102.109375 129.75 101.847656 129.417969 101.613281 C 128.722656 101.125 127.941406 100.753906 127.117188 100.503906 L 136.136719 92.203125 C 136.25 92.097656 136.320312 91.949219 136.324219 91.792969 Z M 119.203125 96.398438 L 118.460938 96.398438 L 120.324219 77.089844 L 121.054688 77.164062 Z M 120.175781 72.574219 L 120.949219 75.988281 L 118.769531 75.773438 Z M 118.441406 76.902344 L 119.171875 76.976562 L 117.300781 96.398438 L 116.558594 96.398438 Z M 112.734375 73.101562 C 111.976562 72.835938 111.285156 72.769531 110.789062 72.769531 C 110.035156 72.769531 109.378906 72.914062 108.84375 73.101562 L 108.84375 71.792969 C 109.324219 71.574219 109.988281 71.371094 110.789062 71.371094 C 111.269531 71.371094 111.976562 71.449219 112.734375 71.789062 Z M 108.84375 89.542969 L 108.84375 74.347656 C 109.324219 74.132812 109.988281 73.925781 110.789062 73.925781 C 111.269531 73.925781 111.976562 74.003906 112.734375 74.347656 L 112.734375 96.398438 L 108.84375 96.398438 Z M 109.980469 66.898438 L 111.597656 66.898438 L 112.480469 70.464844 C 111.820312 70.269531 111.230469 70.214844 110.789062 70.214844 C 110.214844 70.214844 109.644531 70.308594 109.097656 70.476562 Z M 106.949219 89.542969 C 106.949219 89.382812 107.078125 89.253906 107.238281 89.253906 L 107.398438 89.253906 C 107.558594 89.253906 107.6875 89.382812 107.6875 89.542969 L 107.6875 96.398438 L 106.949219 96.398438 Z M 99.886719 96.398438 L 97.152344 96.398438 L 102.496094 77.207031 L 105.03125 77.929688 Z M 86.996094 90.035156 L 90.734375 96.398438 L 83.597656 96.398438 Z M 92.074219 96.398438 L 87.636719 88.835938 L 88.195312 87.789062 L 91.910156 89.667969 L 95.351562 96.398438 Z M 105.128906 76.753906 L 103.019531 76.152344 L 104.964844 73.257812 Z M 96.855469 93.15625 L 96.855469 78.976562 L 99.484375 78.976562 L 99.484375 83.714844 Z M 98.171875 74.496094 L 99.265625 77.820312 L 97.078125 77.820312 Z M 91.015625 87.917969 L 88.738281 86.765625 L 89.601562 85.152344 Z M 91.457031 65.554688 L 97.105469 68.644531 L 87.433594 86.753906 L 82.289062 96.398438 L 74.992188 96.398438 L 77.058594 92.523438 L 79.878906 94.066406 C 79.964844 94.113281 80.058594 94.136719 80.15625 94.136719 C 80.359375 94.136719 80.558594 94.027344 80.664062 93.835938 C 80.816406 93.554688 80.710938 93.203125 80.433594 93.050781 L 77.605469 91.503906 L 78.859375 89.152344 L 81.679688 90.695312 C 81.765625 90.742188 81.859375 90.765625 81.953125 90.765625 C 82.160156 90.765625 82.359375 90.660156 82.460938 90.464844 C 82.613281 90.183594 82.511719 89.832031 82.234375 89.679688 L 79.402344 88.132812 L 80.660156 85.785156 L 83.476562 87.324219 C 83.566406 87.371094 83.660156 87.394531 83.753906 87.394531 C 83.957031 87.394531 84.160156 87.289062 84.261719 87.09375 C 84.414062 86.816406 84.3125 86.460938 84.03125 86.308594 L 81.203125 84.761719 L 82.457031 82.414062 L 85.277344 83.953125 C 85.363281 84.003906 85.460938 84.023438 85.554688 84.023438 C 85.757812 84.023438 85.957031 83.914062 86.0625 83.722656 C 86.214844 83.445312 86.113281 83.089844 85.832031 82.9375 L 83.003906 81.390625 L 84.257812 79.039062 L 87.078125 80.582031 C 87.164062 80.628906 87.261719 80.652344 87.355469 80.652344 C 87.558594 80.652344 87.757812 80.542969 87.863281 80.351562 C 88.015625 80.070312 87.914062 79.71875 87.632812 79.566406 L 84.804688 78.019531 L 86.058594 75.667969 L 88.878906 77.210938 C 88.964844 77.257812 89.058594 77.28125 89.152344 77.28125 C 89.359375 77.28125 89.554688 77.171875 89.660156 76.980469 C 89.816406 76.699219 89.710938 76.347656 89.429688 76.195312 L 86.605469 74.648438 L 87.859375 72.296875 L 90.675781 73.839844 C 90.765625 73.886719 90.859375 73.910156 90.953125 73.910156 C 91.160156 73.910156 91.355469 73.800781 91.460938 73.609375 C 91.613281 73.328125 91.511719 72.976562 91.230469 72.824219 L 88.402344 71.277344 L 89.660156 68.925781 L 92.476562 70.46875 C 92.566406 70.515625 92.660156 70.539062 92.753906 70.539062 C 92.957031 70.539062 93.15625 70.429688 93.261719 70.238281 C 93.414062 69.957031 93.308594 69.609375 93.03125 69.453125 L 90.203125 67.910156 Z M 70.523438 88.515625 L 76.082031 88.003906 C 76.082031 88.003906 76.082031 88 76.082031 88 L 76.199219 87.988281 L 76.414062 90.351562 L 70.617188 90.890625 L 70.40625 88.527344 L 70.519531 88.515625 C 70.519531 88.515625 70.523438 88.515625 70.523438 88.515625 Z M 70.722656 92.042969 L 76.28125 91.527344 L 75.339844 93.289062 L 70.871094 93.703125 Z M 85.347656 74.550781 L 81.535156 67.605469 C 81.628906 66.957031 81.898438 65.785156 82.675781 65.457031 C 84.058594 64.863281 86.625 67.105469 87.601562 69.269531 C 87.695312 69.46875 87.761719 69.679688 87.832031 69.890625 Z M 81.003906 62.753906 C 83.671875 61.546875 87.511719 64.023438 89.316406 67.109375 L 88.542969 68.5625 C 87.359375 66.171875 84.429688 63.457031 82.226562 64.390625 C 80.859375 64.972656 80.472656 66.683594 80.363281 67.65625 C 80.351562 67.773438 80.375 67.894531 80.433594 67.996094 L 84.695312 75.769531 L 83.898438 77.261719 L 78.191406 66.855469 C 78.46875 65.746094 79.230469 63.550781 81.003906 62.753906 Z M 72.046875 78.023438 C 70.996094 76.492188 70.367188 74.359375 70.355469 72.328125 C 70.351562 71.078125 70.589844 68.808594 72.265625 67.664062 C 73.828125 66.597656 75.933594 67.011719 77.179688 67.414062 L 83.246094 78.476562 L 81.480469 81.792969 C 77.484375 82.144531 73.890625 80.71875 72.046875 78.023438 Z M 70.898438 86.214844 C 70.867188 85.902344 71.09375 85.628906 71.398438 85.601562 L 74.703125 85.296875 C 74.71875 85.292969 74.734375 85.292969 74.753906 85.292969 C 74.878906 85.292969 75 85.335938 75.101562 85.421875 C 75.214844 85.515625 75.289062 85.652344 75.300781 85.804688 L 75.402344 86.902344 L 70.996094 87.3125 Z M 70.976562 94.855469 L 74.691406 94.511719 L 73.679688 96.398438 L 71.117188 96.398438 Z M 69.726562 97.554688 L 121.917969 97.554688 C 121.929688 97.570312 121.933594 97.589844 121.949219 97.605469 L 124.546875 100.230469 L 69.726562 100.230469 Z M 130.398438 112.074219 C 129.050781 110.648438 127.140625 109.8125 125.097656 109.8125 C 122.300781 109.8125 119.730469 111.40625 118.550781 113.863281 L 118.527344 113.90625 C 117.105469 116.503906 114.34375 118.113281 111.316406 118.113281 C 108.289062 118.113281 105.527344 116.503906 104.097656 113.894531 C 102.632812 111.375 99.867188 109.808594 96.882812 109.808594 C 93.894531 109.808594 91.121094 111.386719 89.660156 113.910156 L 89.628906 113.957031 C 89.347656 114.382812 86.734375 118.113281 81.792969 118.113281 C 76.847656 118.113281 74.234375 114.382812 73.957031 113.960938 C 73.765625 113.667969 72.007812 111.085938 68.667969 111.085938 C 66.890625 111.085938 65.558594 111.828125 64.675781 112.554688 L 64.675781 110.832031 C 65.90625 110.078125 67.246094 109.691406 68.667969 109.691406 C 72.902344 109.691406 75.109375 113.074219 75.207031 113.230469 C 75.300781 113.371094 77.585938 116.714844 81.789062 116.714844 C 85.867188 116.714844 88.121094 113.597656 88.386719 113.207031 C 90.121094 110.25 93.378906 108.414062 96.882812 108.414062 C 100.402344 108.414062 103.667969 110.265625 105.390625 113.230469 C 106.570312 115.382812 108.839844 116.714844 111.316406 116.714844 C 113.777344 116.714844 116.039062 115.402344 117.226562 113.261719 C 118.652344 110.316406 121.742188 108.414062 125.097656 108.414062 C 127.007812 108.414062 128.878906 109.042969 130.402344 110.179688 L 130.402344 112.074219 Z M 127.710938 122.585938 L 67.367188 122.585938 C 65.886719 122.585938 64.675781 121.359375 64.675781 119.855469 L 64.675781 114.164062 C 65.257812 113.484375 66.605469 112.246094 68.667969 112.246094 C 71.445312 112.246094 72.921875 114.492188 72.988281 114.597656 C 73.304688 115.074219 76.242188 119.269531 81.789062 119.269531 C 87.335938 119.269531 90.273438 115.074219 90.605469 114.578125 L 90.648438 114.503906 C 91.917969 112.324219 94.304688 110.96875 96.882812 110.96875 C 99.457031 110.96875 101.839844 112.3125 103.089844 114.464844 C 104.714844 117.429688 107.867188 119.273438 111.316406 119.273438 C 114.765625 119.273438 117.917969 117.429688 119.550781 114.449219 L 119.585938 114.375 C 120.582031 112.304688 122.742188 110.96875 125.097656 110.96875 C 127.308594 110.96875 129.328125 112.132812 130.402344 114.007812 L 130.402344 119.855469 C 130.398438 121.359375 129.195312 122.585938 127.710938 122.585938 Z M 129.558594 103.222656 C 130.09375 103.734375 130.398438 104.457031 130.398438 105.210938 L 130.398438 108.785156 C 128.816406 107.796875 126.972656 107.257812 125.097656 107.257812 C 121.304688 107.257812 117.804688 109.417969 116.199219 112.730469 C 115.230469 114.476562 113.359375 115.558594 111.316406 115.558594 C 109.261719 115.558594 107.378906 114.457031 106.394531 112.664062 C 104.460938 109.328125 100.8125 107.257812 96.882812 107.257812 C 92.96875 107.257812 89.332031 109.316406 87.410156 112.589844 C 87.203125 112.894531 85.277344 115.558594 81.789062 115.558594 C 78.195312 115.558594 76.246094 112.707031 76.171875 112.597656 C 76.066406 112.429688 73.527344 108.535156 68.667969 108.535156 C 67.257812 108.535156 65.921875 108.867188 64.675781 109.507812 L 64.675781 105.210938 C 64.675781 104.457031 64.984375 103.734375 65.519531 103.222656 C 65.769531 102.984375 66.039062 102.761719 66.324219 102.558594 C 67.175781 101.960938 68.171875 101.558594 69.203125 101.390625 L 125.871094 101.390625 C 126.910156 101.558594 127.902344 101.964844 128.753906 102.558594 C 129.039062 102.761719 129.308594 102.984375 129.558594 103.222656 Z M 125.949219 100.007812 L 123.152344 97.179688 L 131.304688 88.105469 L 134.914062 91.757812 Z M 125.949219 100.007812 "/>
</g>
<path style=" stroke:none;fill-rule:nonzero;fill:rgb(22.745098%,19.607843%,16.862745%);fill-opacity:1;" d="M 128.195312 94.082031 L 125.519531 96.792969 C 125.292969 97.019531 125.296875 97.382812 125.523438 97.609375 C 125.636719 97.722656 125.785156 97.777344 125.929688 97.777344 C 126.078125 97.777344 126.226562 97.71875 126.339844 97.605469 L 129.015625 94.894531 C 129.242188 94.667969 129.238281 94.300781 129.011719 94.078125 C 128.785156 93.851562 128.417969 93.855469 128.195312 94.082031 Z M 128.195312 94.082031 "/>
<path style=" stroke:none;fill-rule:nonzero;fill:rgb(22.745098%,19.607843%,16.862745%);fill-opacity:1;" d="M 129.535156 90.921875 C 128.820312 91.644531 128.820312 92.820312 129.535156 93.539062 C 129.882812 93.890625 130.34375 94.085938 130.835938 94.085938 C 131.328125 94.085938 131.792969 93.890625 132.140625 93.539062 C 132.851562 92.820312 132.851562 91.644531 132.140625 90.921875 C 131.445312 90.214844 130.230469 90.214844 129.535156 90.921875 Z M 131.320312 92.726562 C 131.058594 92.988281 130.613281 92.988281 130.355469 92.726562 C 130.085938 92.453125 130.085938 92.007812 130.355469 91.734375 C 130.484375 91.601562 130.65625 91.53125 130.835938 91.53125 C 131.019531 91.53125 131.191406 91.601562 131.320312 91.734375 C 131.589844 92.007812 131.589844 92.453125 131.320312 92.726562 Z M 131.320312 92.726562 "/>
<path style=" stroke:none;fill-rule:nonzero;fill:rgb(22.745098%,19.607843%,16.862745%);fill-opacity:1;" d="M 82.335938 79.589844 L 77.035156 69.921875 C 76.976562 69.816406 76.886719 69.730469 76.777344 69.679688 C 75.902344 69.257812 74.257812 68.679688 73.046875 69.550781 C 71.039062 70.992188 71.882812 75.152344 73.339844 77.386719 C 74.757812 79.554688 77.164062 80.796875 79.664062 80.796875 C 80.445312 80.796875 81.238281 80.671875 82.011719 80.421875 C 82.175781 80.367188 82.304688 80.242188 82.367188 80.082031 C 82.429688 79.921875 82.421875 79.742188 82.335938 79.589844 Z M 74.308594 76.753906 C 73.007812 74.769531 72.488281 71.371094 73.71875 70.488281 C 73.957031 70.320312 74.253906 70.253906 74.558594 70.253906 C 75.121094 70.253906 75.730469 70.476562 76.109375 70.644531 L 80.972656 79.503906 C 78.445312 80.011719 75.730469 78.929688 74.308594 76.753906 Z M 74.308594 76.753906 "/>
<path style=" stroke:none;fill-rule:nonzero;fill:rgb(0%,0%,0%);fill-opacity:1;" d="M 44.789062 132.40625 L 44.789062 129.265625 L 44.304688 129.265625 C 44.214844 129.265625 44.171875 129.230469 44.171875 129.148438 C 44.171875 129.113281 44.183594 129.046875 44.214844 128.957031 L 44.230469 128.890625 L 45.804688 128.890625 C 45.828125 128.925781 45.839844 128.96875 45.839844 129.023438 C 45.839844 129.082031 45.816406 129.132812 45.78125 129.183594 L 45.230469 129.25 L 45.230469 132.40625 C 45.230469 132.832031 45.144531 133.183594 44.972656 133.464844 C 44.800781 133.75 44.5625 133.964844 44.265625 134.109375 C 43.96875 134.25 43.644531 134.324219 43.289062 134.324219 C 42.925781 134.324219 42.597656 134.25 42.296875 134.109375 C 42 133.964844 41.769531 133.75 41.597656 133.464844 C 41.429688 133.183594 41.347656 132.832031 41.347656 132.40625 L 41.347656 129.265625 L 40.863281 129.265625 C 40.773438 129.265625 40.730469 129.230469 40.730469 129.148438 C 40.730469 129.113281 40.742188 129.046875 40.773438 128.957031 L 40.789062 128.890625 L 42.390625 128.890625 C 42.410156 128.925781 42.421875 128.96875 42.421875 129.023438 C 42.421875 129.082031 42.402344 129.132812 42.363281 129.183594 L 41.804688 129.25 L 41.804688 132.40625 C 41.804688 132.847656 41.929688 133.210938 42.179688 133.5 C 42.433594 133.789062 42.804688 133.933594 43.289062 133.933594 C 43.789062 133.933594 44.164062 133.789062 44.414062 133.5 C 44.664062 133.210938 44.789062 132.847656 44.789062 132.40625 Z M 44.789062 132.40625 "/>
<path style=" stroke:none;fill-rule:nonzero;fill:rgb(0%,0%,0%);fill-opacity:1;" d="M 50.921875 134.28125 L 47.773438 129.625 L 47.773438 133.859375 L 48.257812 133.859375 C 48.34375 133.859375 48.390625 133.898438 48.390625 133.976562 C 48.390625 134.015625 48.375 134.082031 48.347656 134.175781 L 48.332031 134.242188 L 46.765625 134.242188 C 46.742188 134.207031 46.730469 134.164062 46.730469 134.109375 C 46.730469 134.046875 46.75 133.992188 46.789062 133.941406 L 47.347656 133.875 L 47.347656 129.265625 L 46.863281 129.265625 C 46.777344 129.265625 46.730469 129.230469 46.730469 129.148438 C 46.730469 129.113281 46.746094 129.046875 46.773438 128.957031 L 46.789062 128.890625 L 47.816406 128.890625 L 50.824219 133.332031 L 50.824219 129.265625 L 50.339844 129.265625 C 50.25 129.265625 50.207031 129.230469 50.207031 129.148438 C 50.207031 129.113281 50.21875 129.046875 50.25 128.957031 L 50.265625 128.890625 L 51.832031 128.890625 C 51.851562 128.925781 51.863281 128.96875 51.863281 129.023438 C 51.863281 129.082031 51.84375 129.132812 51.808594 129.183594 L 51.257812 129.25 L 51.257812 134.199219 C 51.207031 134.222656 51.152344 134.238281 51.089844 134.25 C 51.035156 134.265625 50.976562 134.277344 50.921875 134.28125 Z M 50.921875 134.28125 "/>
<path style=" stroke:none;fill-rule:nonzero;fill:rgb(0%,0%,0%);fill-opacity:1;" d="M 56.441406 134.242188 L 52.789062 134.242188 C 52.769531 134.207031 52.757812 134.164062 52.757812 134.109375 C 52.757812 134.046875 52.777344 133.992188 52.816406 133.941406 L 53.375 133.875 L 53.375 129.265625 L 52.890625 129.265625 C 52.800781 129.265625 52.757812 129.230469 52.757812 129.148438 C 52.757812 129.113281 52.769531 129.046875 52.800781 128.957031 L 52.816406 128.890625 L 54.5 128.890625 C 54.519531 128.925781 54.53125 128.96875 54.53125 129.023438 C 54.53125 129.082031 54.511719 129.132812 54.472656 129.183594 L 53.832031 129.25 L 53.832031 133.859375 L 56.148438 133.859375 L 56.359375 132.917969 C 56.40625 132.878906 56.460938 132.859375 56.523438 132.859375 C 56.578125 132.859375 56.625 132.871094 56.65625 132.890625 L 56.640625 134.023438 C 56.585938 134.109375 56.519531 134.179688 56.441406 134.242188 Z M 56.441406 134.242188 "/>
<path style=" stroke:none;fill-rule:nonzero;fill:rgb(0%,0%,0%);fill-opacity:1;" d="M 59.914062 133.933594 C 60.308594 133.933594 60.652344 133.835938 60.945312 133.640625 C 61.246094 133.441406 61.476562 133.164062 61.640625 132.808594 C 61.804688 132.453125 61.890625 132.039062 61.890625 131.558594 C 61.890625 131.085938 61.804688 130.671875 61.640625 130.316406 C 61.476562 129.960938 61.246094 129.6875 60.945312 129.492188 C 60.652344 129.292969 60.308594 129.191406 59.914062 129.191406 C 59.515625 129.191406 59.164062 129.292969 58.863281 129.492188 C 58.566406 129.6875 58.339844 129.960938 58.179688 130.316406 C 58.019531 130.671875 57.9375 131.085938 57.9375 131.558594 C 57.9375 132.042969 58.019531 132.460938 58.179688 132.816406 C 58.339844 133.167969 58.566406 133.441406 58.863281 133.640625 C 59.164062 133.835938 59.515625 133.933594 59.914062 133.933594 Z M 59.914062 134.324219 C 59.417969 134.324219 58.984375 134.210938 58.613281 133.984375 C 58.246094 133.75 57.960938 133.429688 57.753906 133.015625 C 57.550781 132.605469 57.445312 132.121094 57.445312 131.558594 C 57.445312 131.007812 57.550781 130.527344 57.753906 130.117188 C 57.960938 129.699219 58.246094 129.378906 58.613281 129.148438 C 58.984375 128.921875 59.417969 128.808594 59.914062 128.808594 C 60.402344 128.808594 60.832031 128.921875 61.207031 129.148438 C 61.578125 129.378906 61.863281 129.699219 62.0625 130.117188 C 62.269531 130.527344 62.371094 131.007812 62.371094 131.558594 C 62.371094 132.121094 62.269531 132.605469 62.0625 133.015625 C 61.863281 133.429688 61.578125 133.75 61.207031 133.984375 C 60.832031 134.210938 60.402344 134.324219 59.914062 134.324219 Z M 59.914062 134.324219 "/>
<path style=" stroke:none;fill-rule:nonzero;fill:rgb(0%,0%,0%);fill-opacity:1;" d="M 67.089844 130.425781 L 66.855469 129.40625 C 66.496094 129.265625 66.144531 129.191406 65.808594 129.191406 C 65.40625 129.191406 65.058594 129.292969 64.757812 129.492188 C 64.457031 129.6875 64.226562 129.960938 64.066406 130.316406 C 63.902344 130.671875 63.824219 131.085938 63.824219 131.558594 C 63.824219 132.042969 63.90625 132.457031 64.074219 132.808594 C 64.242188 133.152344 64.476562 133.421875 64.789062 133.617188 C 65.105469 133.804688 65.476562 133.898438 65.90625 133.898438 C 66.394531 133.898438 66.867188 133.78125 67.324219 133.550781 C 67.402344 133.644531 67.453125 133.757812 67.480469 133.882812 C 67.277344 134.015625 67.023438 134.125 66.722656 134.207031 C 66.421875 134.285156 66.125 134.324219 65.832031 134.324219 C 65.324219 134.324219 64.886719 134.210938 64.515625 133.984375 C 64.140625 133.757812 63.851562 133.4375 63.640625 133.023438 C 63.433594 132.609375 63.332031 132.121094 63.332031 131.558594 C 63.332031 131.007812 63.433594 130.527344 63.632812 130.117188 C 63.835938 129.699219 64.125 129.378906 64.492188 129.148438 C 64.855469 128.921875 65.285156 128.808594 65.773438 128.808594 C 65.996094 128.808594 66.234375 128.835938 66.492188 128.890625 C 66.75 128.949219 66.992188 129.023438 67.214844 129.117188 C 67.25 129.15625 67.277344 129.199219 67.308594 129.242188 C 67.335938 129.289062 67.355469 129.328125 67.375 129.367188 L 67.390625 130.449219 C 67.355469 130.472656 67.3125 130.484375 67.257812 130.484375 C 67.195312 130.484375 67.140625 130.464844 67.089844 130.425781 Z M 67.089844 130.425781 "/>
<path style=" stroke:none;fill-rule:nonzero;fill:rgb(0%,0%,0%);fill-opacity:1;" d="M 73.226562 134.242188 L 71.585938 134.242188 C 71.5625 134.207031 71.554688 134.164062 71.554688 134.109375 C 71.554688 134.046875 71.570312 133.992188 71.613281 133.941406 L 72.152344 133.875 L 70.476562 131.359375 L 69.460938 132.515625 L 69.460938 133.859375 L 69.945312 133.859375 C 70.03125 133.859375 70.078125 133.898438 70.078125 133.976562 C 70.078125 134.015625 70.0625 134.082031 70.035156 134.175781 L 70.019531 134.242188 L 68.421875 134.242188 C 68.398438 134.207031 68.386719 134.164062 68.386719 134.109375 C 68.386719 134.046875 68.40625 133.992188 68.445312 133.941406 L 69.003906 133.875 L 69.003906 129.265625 L 68.519531 129.265625 C 68.429688 129.265625 68.386719 129.230469 68.386719 129.148438 C 68.386719 129.113281 68.398438 129.046875 68.429688 128.957031 L 68.445312 128.890625 L 70.046875 128.890625 C 70.066406 128.925781 70.078125 128.96875 70.078125 129.023438 C 70.078125 129.082031 70.058594 129.132812 70.019531 129.183594 L 69.460938 129.25 L 69.460938 131.964844 L 71.796875 129.265625 L 71.351562 129.265625 C 71.265625 129.265625 71.21875 129.230469 71.21875 129.148438 C 71.21875 129.113281 71.234375 129.046875 71.261719 128.957031 L 71.277344 128.890625 L 72.886719 128.890625 C 72.90625 128.925781 72.921875 128.96875 72.921875 129.023438 C 72.921875 129.082031 72.898438 129.132812 72.863281 129.183594 L 72.335938 129.25 L 70.769531 131.03125 L 72.703125 133.859375 L 73.152344 133.859375 C 73.242188 133.859375 73.285156 133.898438 73.285156 133.976562 C 73.285156 134.015625 73.273438 134.082031 73.246094 134.175781 Z M 73.226562 134.242188 "/>
<path style=" stroke:none;fill-rule:nonzero;fill:rgb(0%,0%,0%);fill-opacity:1;" d="M 75.722656 134.242188 L 73.957031 134.242188 C 73.933594 134.207031 73.921875 134.164062 73.921875 134.109375 C 73.921875 134.046875 73.941406 133.992188 73.980469 133.941406 L 74.621094 133.875 L 74.621094 129.265625 L 74.054688 129.265625 C 73.964844 129.265625 73.921875 129.230469 73.921875 129.148438 C 73.921875 129.113281 73.933594 129.046875 73.964844 128.957031 L 73.980469 128.890625 L 75.746094 128.890625 C 75.769531 128.925781 75.78125 128.96875 75.78125 129.023438 C 75.78125 129.082031 75.761719 129.132812 75.722656 129.183594 L 75.082031 129.25 L 75.082031 133.859375 L 75.648438 133.859375 C 75.734375 133.859375 75.78125 133.898438 75.78125 133.976562 C 75.78125 134.015625 75.765625 134.082031 75.738281 134.175781 Z M 75.722656 134.242188 "/>
<path style=" stroke:none;fill-rule:nonzero;fill:rgb(0%,0%,0%);fill-opacity:1;" d="M 80.863281 134.28125 L 77.710938 129.625 L 77.710938 133.859375 L 78.195312 133.859375 C 78.28125 133.859375 78.328125 133.898438 78.328125 133.976562 C 78.328125 134.015625 78.3125 134.082031 78.285156 134.175781 L 78.269531 134.242188 L 76.703125 134.242188 C 76.679688 134.207031 76.671875 134.164062 76.671875 134.109375 C 76.671875 134.046875 76.6875 133.992188 76.730469 133.941406 L 77.285156 133.875 L 77.285156 129.265625 L 76.804688 129.265625 C 76.714844 129.265625 76.671875 129.230469 76.671875 129.148438 C 76.671875 129.113281 76.683594 129.046875 76.710938 128.957031 L 76.730469 128.890625 L 77.753906 128.890625 L 80.761719 133.332031 L 80.761719 129.265625 L 80.277344 129.265625 C 80.1875 129.265625 80.144531 129.230469 80.144531 129.148438 C 80.144531 129.113281 80.15625 129.046875 80.1875 128.957031 L 80.203125 128.890625 L 81.769531 128.890625 C 81.792969 128.925781 81.804688 128.96875 81.804688 129.023438 C 81.804688 129.082031 81.78125 129.132812 81.746094 129.183594 L 81.195312 129.25 L 81.195312 134.199219 C 81.144531 134.222656 81.089844 134.238281 81.027344 134.25 C 80.972656 134.265625 80.917969 134.277344 80.863281 134.28125 Z M 80.863281 134.28125 "/>
<path style=" stroke:none;fill-rule:nonzero;fill:rgb(0%,0%,0%);fill-opacity:1;" d="M 86.5625 133.726562 L 86.5625 132.007812 L 85.664062 132.007812 C 85.574219 132.007812 85.53125 131.96875 85.53125 131.890625 C 85.53125 131.855469 85.542969 131.789062 85.570312 131.691406 L 85.589844 131.625 L 87.5625 131.625 C 87.582031 131.65625 87.597656 131.703125 87.597656 131.757812 C 87.597656 131.820312 87.574219 131.875 87.539062 131.925781 L 87.03125 131.992188 L 87.03125 133.757812 C 87.011719 133.796875 86.988281 133.839844 86.964844 133.882812 C 86.933594 133.929688 86.90625 133.96875 86.871094 134.007812 C 86.664062 134.105469 86.414062 134.179688 86.121094 134.242188 C 85.832031 134.296875 85.550781 134.324219 85.28125 134.324219 C 84.746094 134.324219 84.285156 134.214844 83.894531 133.992188 C 83.507812 133.765625 83.207031 133.445312 82.996094 133.03125 C 82.789062 132.621094 82.6875 132.132812 82.6875 131.566406 C 82.6875 131.011719 82.792969 130.523438 83.003906 130.109375 C 83.214844 129.691406 83.511719 129.371094 83.894531 129.148438 C 84.285156 128.921875 84.742188 128.808594 85.269531 128.808594 C 85.492188 128.808594 85.734375 128.835938 85.996094 128.890625 C 86.257812 128.949219 86.5 129.023438 86.722656 129.117188 C 86.753906 129.15625 86.785156 129.199219 86.8125 129.242188 C 86.839844 129.289062 86.863281 129.328125 86.878906 129.367188 L 86.894531 130.390625 C 86.863281 130.414062 86.816406 130.425781 86.761719 130.425781 C 86.699219 130.425781 86.644531 130.40625 86.597656 130.367188 L 86.371094 129.40625 C 86.175781 129.332031 85.988281 129.273438 85.8125 129.242188 C 85.640625 129.207031 85.457031 129.191406 85.269531 129.191406 C 84.84375 129.191406 84.472656 129.289062 84.15625 129.484375 C 83.839844 129.679688 83.597656 129.957031 83.429688 130.316406 C 83.261719 130.671875 83.179688 131.089844 83.179688 131.574219 C 83.179688 132.058594 83.265625 132.480469 83.4375 132.832031 C 83.609375 133.183594 83.855469 133.457031 84.179688 133.648438 C 84.5 133.839844 84.882812 133.933594 85.320312 133.933594 C 85.515625 133.933594 85.730469 133.914062 85.972656 133.875 C 86.214844 133.832031 86.414062 133.78125 86.5625 133.726562 Z M 86.5625 133.726562 "/>
<path style=" stroke:none;fill-rule:nonzero;fill:rgb(0%,0%,0%);fill-opacity:1;" d="M 94.53125 132.40625 L 94.53125 129.265625 L 94.046875 129.265625 C 93.957031 129.265625 93.914062 129.230469 93.914062 129.148438 C 93.914062 129.113281 93.925781 129.046875 93.957031 128.957031 L 93.972656 128.890625 L 95.546875 128.890625 C 95.570312 128.925781 95.582031 128.96875 95.582031 129.023438 C 95.582031 129.082031 95.5625 129.132812 95.523438 129.183594 L 94.972656 129.25 L 94.972656 132.40625 C 94.972656 132.832031 94.886719 133.183594 94.714844 133.464844 C 94.542969 133.75 94.304688 133.964844 94.007812 134.109375 C 93.710938 134.25 93.386719 134.324219 93.03125 134.324219 C 92.667969 134.324219 92.339844 134.25 92.039062 134.109375 C 91.742188 133.964844 91.511719 133.75 91.339844 133.464844 C 91.171875 133.183594 91.089844 132.832031 91.089844 132.40625 L 91.089844 129.265625 L 90.605469 129.265625 C 90.515625 129.265625 90.472656 129.230469 90.472656 129.148438 C 90.472656 129.113281 90.484375 129.046875 90.515625 128.957031 L 90.53125 128.890625 L 92.132812 128.890625 C 92.152344 128.925781 92.164062 128.96875 92.164062 129.023438 C 92.164062 129.082031 92.144531 129.132812 92.105469 129.183594 L 91.546875 129.25 L 91.546875 132.40625 C 91.546875 132.847656 91.671875 133.210938 91.921875 133.5 C 92.175781 133.789062 92.546875 133.933594 93.03125 133.933594 C 93.53125 133.933594 93.90625 133.789062 94.15625 133.5 C 94.40625 133.210938 94.53125 132.847656 94.53125 132.40625 Z M 94.53125 132.40625 "/>
<path style=" stroke:none;fill-rule:nonzero;fill:rgb(0%,0%,0%);fill-opacity:1;" d="M 100.667969 134.28125 L 97.515625 129.625 L 97.515625 133.859375 L 98 133.859375 C 98.085938 133.859375 98.132812 133.898438 98.132812 133.976562 C 98.132812 134.015625 98.117188 134.082031 98.089844 134.175781 L 98.074219 134.242188 L 96.507812 134.242188 C 96.484375 134.207031 96.472656 134.164062 96.472656 134.109375 C 96.472656 134.046875 96.492188 133.992188 96.53125 133.941406 L 97.089844 133.875 L 97.089844 129.265625 L 96.609375 129.265625 C 96.519531 129.265625 96.472656 129.230469 96.472656 129.148438 C 96.472656 129.113281 96.488281 129.046875 96.515625 128.957031 L 96.53125 128.890625 L 97.558594 128.890625 L 100.566406 133.332031 L 100.566406 129.265625 L 100.082031 129.265625 C 99.992188 129.265625 99.949219 129.230469 99.949219 129.148438 C 99.949219 129.113281 99.960938 129.046875 99.992188 128.957031 L 100.007812 128.890625 L 101.574219 128.890625 C 101.59375 128.925781 101.609375 128.96875 101.609375 129.023438 C 101.609375 129.082031 101.585938 129.132812 101.550781 129.183594 L 101 129.25 L 101 134.199219 C 100.949219 134.222656 100.894531 134.238281 100.832031 134.25 C 100.777344 134.265625 100.71875 134.277344 100.667969 134.28125 Z M 100.667969 134.28125 "/>
<path style=" stroke:none;fill-rule:nonzero;fill:rgb(0%,0%,0%);fill-opacity:1;" d="M 103.574219 133.859375 L 104.792969 133.859375 C 105.203125 133.859375 105.554688 133.765625 105.851562 133.574219 C 106.144531 133.382812 106.371094 133.113281 106.527344 132.765625 C 106.6875 132.421875 106.765625 132.019531 106.765625 131.558594 C 106.765625 131.105469 106.6875 130.703125 106.527344 130.359375 C 106.371094 130.015625 106.144531 129.746094 105.851562 129.558594 C 105.554688 129.363281 105.203125 129.265625 104.792969 129.265625 L 103.574219 129.265625 Z M 104.792969 134.242188 L 102.535156 134.242188 C 102.511719 134.207031 102.5 134.164062 102.5 134.109375 C 102.5 134.046875 102.519531 133.992188 102.558594 133.941406 L 103.117188 133.875 L 103.117188 129.265625 L 102.632812 129.265625 C 102.542969 129.265625 102.5 129.230469 102.5 129.148438 C 102.5 129.113281 102.511719 129.046875 102.542969 128.957031 L 102.558594 128.890625 L 104.792969 128.890625 C 105.285156 128.890625 105.71875 129 106.082031 129.214844 C 106.453125 129.429688 106.746094 129.738281 106.949219 130.140625 C 107.15625 130.542969 107.257812 131.015625 107.257812 131.558594 C 107.257812 132.113281 107.15625 132.589844 106.949219 132.992188 C 106.746094 133.390625 106.453125 133.699219 106.082031 133.917969 C 105.71875 134.132812 105.285156 134.242188 104.792969 134.242188 Z M 104.792969 134.242188 "/>
<path style=" stroke:none;fill-rule:nonzero;fill:rgb(0%,0%,0%);fill-opacity:1;" d="M 112.109375 134.242188 L 108.253906 134.242188 C 108.230469 134.207031 108.21875 134.164062 108.21875 134.109375 C 108.21875 134.046875 108.238281 133.992188 108.277344 133.941406 L 108.835938 133.875 L 108.835938 129.265625 L 108.351562 129.265625 C 108.261719 129.265625 108.21875 129.230469 108.21875 129.148438 C 108.21875 129.113281 108.230469 129.046875 108.261719 128.957031 L 108.277344 128.890625 L 112.027344 128.890625 C 112.105469 128.953125 112.171875 129.023438 112.226562 129.101562 L 112.246094 130.199219 C 112.210938 130.222656 112.164062 130.234375 112.109375 130.234375 C 112.046875 130.234375 111.996094 130.214844 111.945312 130.175781 L 111.734375 129.265625 L 109.292969 129.265625 L 109.292969 131.316406 L 110.953125 131.316406 L 111.027344 130.882812 C 111.042969 130.78125 111.089844 130.734375 111.167969 130.734375 C 111.191406 130.734375 111.234375 130.746094 111.300781 130.773438 L 111.351562 130.800781 L 111.351562 132.257812 C 111.320312 132.28125 111.273438 132.292969 111.21875 132.292969 C 111.15625 132.292969 111.101562 132.273438 111.050781 132.234375 L 110.953125 131.691406 L 109.292969 131.691406 L 109.292969 133.859375 L 111.820312 133.859375 L 112.027344 132.957031 C 112.078125 132.921875 112.132812 132.898438 112.195312 132.898438 C 112.25 132.898438 112.292969 132.914062 112.328125 132.933594 L 112.3125 134.023438 C 112.253906 134.109375 112.1875 134.179688 112.109375 134.242188 Z M 112.109375 134.242188 "/>
<path style=" stroke:none;fill-rule:nonzero;fill:rgb(0%,0%,0%);fill-opacity:1;" d="M 116.433594 133.558594 L 115.523438 131.976562 L 114.367188 131.976562 L 114.367188 133.859375 L 114.847656 133.859375 C 114.9375 133.859375 114.980469 133.898438 114.980469 133.976562 C 114.980469 134.015625 114.96875 134.082031 114.941406 134.175781 L 114.925781 134.242188 L 113.324219 134.242188 C 113.300781 134.207031 113.289062 134.164062 113.289062 134.109375 C 113.289062 134.046875 113.308594 133.992188 113.347656 133.941406 L 113.90625 133.875 L 113.90625 129.265625 L 113.425781 129.265625 C 113.335938 129.265625 113.289062 129.230469 113.289062 129.148438 C 113.289062 129.113281 113.304688 129.046875 113.332031 128.957031 L 113.347656 128.890625 L 115.53125 128.890625 C 115.835938 128.890625 116.097656 128.9375 116.316406 129.03125 C 116.53125 129.128906 116.707031 129.257812 116.839844 129.417969 C 116.972656 129.574219 117.070312 129.742188 117.132812 129.925781 C 117.191406 130.105469 117.222656 130.273438 117.222656 130.433594 C 117.222656 130.621094 117.183594 130.820312 117.097656 131.023438 C 117.019531 131.230469 116.890625 131.417969 116.707031 131.582031 C 116.523438 131.75 116.285156 131.863281 115.992188 131.925781 L 116.90625 133.441406 C 117.011719 133.621094 117.105469 133.738281 117.191406 133.800781 C 117.273438 133.855469 117.382812 133.882812 117.523438 133.882812 C 117.566406 133.882812 117.617188 133.882812 117.664062 133.882812 C 117.71875 133.878906 117.769531 133.871094 117.808594 133.867188 C 117.851562 133.945312 117.875 134.046875 117.882812 134.175781 C 117.691406 134.242188 117.515625 134.273438 117.347656 134.273438 C 117.167969 134.273438 117.007812 134.21875 116.867188 134.109375 C 116.71875 133.992188 116.574219 133.808594 116.433594 133.558594 Z M 114.367188 131.589844 L 115.53125 131.589844 C 115.898438 131.589844 116.191406 131.480469 116.40625 131.257812 C 116.625 131.039062 116.730469 130.761719 116.730469 130.433594 C 116.730469 130.105469 116.625 129.832031 116.40625 129.609375 C 116.191406 129.382812 115.898438 129.265625 115.53125 129.265625 L 114.367188 129.265625 Z M 114.367188 131.589844 "/>
<path style=" stroke:none;fill-rule:nonzero;fill:rgb(0%,0%,0%);fill-opacity:1;" d="M 118.570312 133.742188 L 118.554688 132.707031 C 118.585938 132.6875 118.628906 132.675781 118.6875 132.675781 C 118.746094 132.675781 118.804688 132.695312 118.851562 132.734375 L 119.078125 133.714844 C 119.226562 133.78125 119.398438 133.835938 119.585938 133.875 C 119.78125 133.914062 119.980469 133.933594 120.195312 133.933594 C 120.65625 133.933594 121.011719 133.839844 121.269531 133.648438 C 121.523438 133.457031 121.652344 133.1875 121.652344 132.851562 C 121.652344 132.582031 121.558594 132.367188 121.371094 132.199219 C 121.1875 132.027344 120.855469 131.863281 120.378906 131.699219 C 119.9375 131.554688 119.589844 131.40625 119.335938 131.257812 C 119.078125 131.109375 118.894531 130.941406 118.777344 130.757812 C 118.664062 130.570312 118.609375 130.355469 118.609375 130.109375 C 118.609375 129.699219 118.757812 129.378906 119.054688 129.148438 C 119.351562 128.921875 119.769531 128.808594 120.304688 128.808594 C 120.773438 128.808594 121.214844 128.90625 121.621094 129.101562 C 121.652344 129.140625 121.683594 129.179688 121.710938 129.226562 C 121.738281 129.269531 121.761719 129.3125 121.777344 129.351562 L 121.792969 130.351562 C 121.761719 130.371094 121.714844 130.382812 121.660156 130.382812 C 121.597656 130.382812 121.542969 130.363281 121.496094 130.324219 L 121.269531 129.382812 C 120.964844 129.25 120.640625 129.183594 120.304688 129.183594 C 119.90625 129.183594 119.605469 129.265625 119.394531 129.425781 C 119.1875 129.582031 119.085938 129.808594 119.085938 130.109375 C 119.085938 130.289062 119.125 130.4375 119.203125 130.566406 C 119.28125 130.695312 119.417969 130.8125 119.621094 130.925781 C 119.824219 131.039062 120.105469 131.148438 120.46875 131.265625 C 121.070312 131.480469 121.496094 131.703125 121.753906 131.941406 C 122.007812 132.179688 122.136719 132.484375 122.136719 132.851562 C 122.136719 133.304688 121.964844 133.667969 121.621094 133.933594 C 121.28125 134.195312 120.804688 134.324219 120.195312 134.324219 C 119.910156 134.324219 119.636719 134.296875 119.378906 134.242188 C 119.121094 134.179688 118.90625 134.097656 118.726562 133.992188 C 118.695312 133.953125 118.664062 133.914062 118.636719 133.867188 C 118.605469 133.824219 118.585938 133.78125 118.570312 133.742188 Z M 118.570312 133.742188 "/>
<path style=" stroke:none;fill-rule:nonzero;fill:rgb(0%,0%,0%);fill-opacity:1;" d="M 126.25 134.242188 L 124.152344 134.242188 C 124.128906 134.207031 124.117188 134.164062 124.117188 134.109375 C 124.117188 134.046875 124.136719 133.992188 124.175781 133.941406 L 124.984375 133.875 L 124.984375 129.265625 L 123.476562 129.265625 L 123.269531 130.175781 C 123.21875 130.214844 123.160156 130.234375 123.101562 130.234375 C 123.046875 130.234375 123 130.222656 122.96875 130.199219 L 122.984375 129.101562 C 123.039062 129.023438 123.105469 128.953125 123.183594 128.890625 L 127.25 128.890625 C 127.328125 128.953125 127.394531 129.023438 127.453125 129.101562 L 127.46875 130.199219 C 127.433594 130.222656 127.390625 130.234375 127.335938 130.234375 C 127.273438 130.234375 127.21875 130.214844 127.167969 130.175781 L 126.960938 129.265625 L 125.453125 129.265625 L 125.453125 133.859375 L 126.175781 133.859375 C 126.265625 133.859375 126.308594 133.898438 126.308594 133.976562 C 126.308594 134.015625 126.296875 134.082031 126.269531 134.175781 Z M 126.25 134.242188 "/>
<path style=" stroke:none;fill-rule:nonzero;fill:rgb(0%,0%,0%);fill-opacity:1;" d="M 133.378906 134.242188 L 131.765625 134.242188 C 131.742188 134.207031 131.730469 134.164062 131.730469 134.109375 C 131.730469 134.046875 131.75 133.992188 131.789062 133.941406 L 132.347656 133.875 L 131.8125 132.5 L 129.554688 132.5 L 129.039062 133.859375 L 129.523438 133.859375 C 129.609375 133.859375 129.65625 133.898438 129.65625 133.976562 C 129.65625 134.015625 129.640625 134.082031 129.613281 134.175781 L 129.597656 134.242188 L 128.003906 134.242188 C 127.984375 134.207031 127.972656 134.164062 127.972656 134.109375 C 127.972656 134.046875 127.992188 133.992188 128.03125 133.941406 L 128.589844 133.875 L 130.53125 128.875 C 130.585938 128.863281 130.648438 128.859375 130.714844 128.859375 C 130.78125 128.859375 130.839844 128.863281 130.898438 128.875 L 132.832031 133.859375 L 133.304688 133.859375 C 133.394531 133.859375 133.4375 133.898438 133.4375 133.976562 C 133.4375 134.015625 133.425781 134.082031 133.398438 134.175781 Z M 131.671875 132.125 L 130.6875 129.515625 L 129.695312 132.125 Z M 131.671875 132.125 "/>
<path style=" stroke:none;fill-rule:nonzero;fill:rgb(0%,0%,0%);fill-opacity:1;" d="M 138.242188 134.28125 L 135.089844 129.625 L 135.089844 133.859375 L 135.574219 133.859375 C 135.660156 133.859375 135.707031 133.898438 135.707031 133.976562 C 135.707031 134.015625 135.691406 134.082031 135.667969 134.175781 L 135.648438 134.242188 L 134.082031 134.242188 C 134.058594 134.207031 134.050781 134.164062 134.050781 134.109375 C 134.050781 134.046875 134.066406 133.992188 134.109375 133.941406 L 134.667969 133.875 L 134.667969 129.265625 L 134.183594 129.265625 C 134.09375 129.265625 134.050781 129.230469 134.050781 129.148438 C 134.050781 129.113281 134.0625 129.046875 134.089844 128.957031 L 134.109375 128.890625 L 135.132812 128.890625 L 138.140625 133.332031 L 138.140625 129.265625 L 137.65625 129.265625 C 137.566406 129.265625 137.523438 129.230469 137.523438 129.148438 C 137.523438 129.113281 137.535156 129.046875 137.566406 128.957031 L 137.582031 128.890625 L 139.148438 128.890625 C 139.171875 128.925781 139.183594 128.96875 139.183594 129.023438 C 139.183594 129.082031 139.160156 129.132812 139.125 129.183594 L 138.574219 129.25 L 138.574219 134.199219 C 138.523438 134.222656 138.46875 134.238281 138.40625 134.25 C 138.351562 134.265625 138.296875 134.277344 138.242188 134.28125 Z M 138.242188 134.28125 "/>
<path style=" stroke:none;fill-rule:nonzero;fill:rgb(0%,0%,0%);fill-opacity:1;" d="M 141.148438 133.859375 L 142.367188 133.859375 C 142.777344 133.859375 143.128906 133.765625 143.425781 133.574219 C 143.71875 133.382812 143.945312 133.113281 144.101562 132.765625 C 144.261719 132.421875 144.34375 132.019531 144.34375 131.558594 C 144.34375 131.105469 144.261719 130.703125 144.101562 130.359375 C 143.945312 130.015625 143.71875 129.746094 143.425781 129.558594 C 143.128906 129.363281 142.777344 129.265625 142.367188 129.265625 L 141.148438 129.265625 Z M 142.367188 134.242188 L 140.109375 134.242188 C 140.085938 134.207031 140.074219 134.164062 140.074219 134.109375 C 140.074219 134.046875 140.09375 133.992188 140.132812 133.941406 L 140.691406 133.875 L 140.691406 129.265625 L 140.207031 129.265625 C 140.117188 129.265625 140.074219 129.230469 140.074219 129.148438 C 140.074219 129.113281 140.085938 129.046875 140.117188 128.957031 L 140.132812 128.890625 L 142.367188 128.890625 C 142.859375 128.890625 143.292969 129 143.660156 129.214844 C 144.03125 129.429688 144.320312 129.738281 144.523438 130.140625 C 144.730469 130.542969 144.832031 131.015625 144.832031 131.558594 C 144.832031 132.113281 144.730469 132.589844 144.523438 132.992188 C 144.320312 133.390625 144.03125 133.699219 143.660156 133.917969 C 143.292969 134.132812 142.859375 134.242188 142.367188 134.242188 Z M 142.367188 134.242188 "/>
<path style=" stroke:none;fill-rule:nonzero;fill:rgb(0%,0%,0%);fill-opacity:1;" d="M 147.511719 134.242188 L 145.742188 134.242188 C 145.722656 134.207031 145.710938 134.164062 145.710938 134.109375 C 145.710938 134.046875 145.730469 133.992188 145.769531 133.941406 L 146.410156 133.875 L 146.410156 129.265625 L 145.84375 129.265625 C 145.753906 129.265625 145.710938 129.230469 145.710938 129.148438 C 145.710938 129.113281 145.722656 129.046875 145.753906 128.957031 L 145.769531 128.890625 L 147.535156 128.890625 C 147.554688 128.925781 147.570312 128.96875 147.570312 129.023438 C 147.570312 129.082031 147.546875 129.132812 147.511719 129.183594 L 146.867188 129.25 L 146.867188 133.859375 L 147.4375 133.859375 C 147.523438 133.859375 147.570312 133.898438 147.570312 133.976562 C 147.570312 134.015625 147.554688 134.082031 147.527344 134.175781 Z M 147.511719 134.242188 "/>
<path style=" stroke:none;fill-rule:nonzero;fill:rgb(0%,0%,0%);fill-opacity:1;" d="M 152.648438 134.28125 L 149.5 129.625 L 149.5 133.859375 L 149.984375 133.859375 C 150.070312 133.859375 150.117188 133.898438 150.117188 133.976562 C 150.117188 134.015625 150.101562 134.082031 150.074219 134.175781 L 150.058594 134.242188 L 148.492188 134.242188 C 148.46875 134.207031 148.457031 134.164062 148.457031 134.109375 C 148.457031 134.046875 148.476562 133.992188 148.515625 133.941406 L 149.074219 133.875 L 149.074219 129.265625 L 148.589844 129.265625 C 148.503906 129.265625 148.457031 129.230469 148.457031 129.148438 C 148.457031 129.113281 148.472656 129.046875 148.5 128.957031 L 148.515625 128.890625 L 149.542969 128.890625 L 152.550781 133.332031 L 152.550781 129.265625 L 152.066406 129.265625 C 151.976562 129.265625 151.933594 129.230469 151.933594 129.148438 C 151.933594 129.113281 151.945312 129.046875 151.976562 128.957031 L 151.992188 128.890625 L 153.558594 128.890625 C 153.578125 128.925781 153.589844 128.96875 153.589844 129.023438 C 153.589844 129.082031 153.570312 129.132812 153.535156 129.183594 L 152.984375 129.25 L 152.984375 134.199219 C 152.933594 134.222656 152.878906 134.238281 152.816406 134.25 C 152.761719 134.265625 152.703125 134.277344 152.648438 134.28125 Z M 152.648438 134.28125 "/>
<path style=" stroke:none;fill-rule:nonzero;fill:rgb(0%,0%,0%);fill-opacity:1;" d="M 158.351562 133.726562 L 158.351562 132.007812 L 157.449219 132.007812 C 157.363281 132.007812 157.316406 131.96875 157.316406 131.890625 C 157.316406 131.855469 157.332031 131.789062 157.359375 131.691406 L 157.375 131.625 L 159.351562 131.625 C 159.371094 131.65625 159.382812 131.703125 159.382812 131.757812 C 159.382812 131.820312 159.363281 131.875 159.324219 131.925781 L 158.816406 131.992188 L 158.816406 133.757812 C 158.800781 133.796875 158.777344 133.839844 158.75 133.882812 C 158.722656 133.929688 158.691406 133.96875 158.660156 134.007812 C 158.453125 134.105469 158.203125 134.179688 157.910156 134.242188 C 157.621094 134.296875 157.339844 134.324219 157.066406 134.324219 C 156.535156 134.324219 156.070312 134.214844 155.683594 133.992188 C 155.292969 133.765625 154.996094 133.445312 154.785156 133.03125 C 154.578125 132.621094 154.476562 132.132812 154.476562 131.566406 C 154.476562 131.011719 154.582031 130.523438 154.792969 130.109375 C 155.003906 129.691406 155.300781 129.371094 155.683594 129.148438 C 156.070312 128.921875 156.53125 128.808594 157.058594 128.808594 C 157.28125 128.808594 157.523438 128.835938 157.785156 128.890625 C 158.042969 128.949219 158.285156 129.023438 158.507812 129.117188 C 158.542969 129.15625 158.570312 129.199219 158.601562 129.242188 C 158.628906 129.289062 158.652344 129.328125 158.667969 129.367188 L 158.683594 130.390625 C 158.652344 130.414062 158.605469 130.425781 158.550781 130.425781 C 158.488281 130.425781 158.433594 130.40625 158.382812 130.367188 L 158.160156 129.40625 C 157.964844 129.332031 157.777344 129.273438 157.601562 129.242188 C 157.429688 129.207031 157.246094 129.191406 157.058594 129.191406 C 156.628906 129.191406 156.257812 129.289062 155.941406 129.484375 C 155.625 129.679688 155.382812 129.957031 155.21875 130.316406 C 155.050781 130.671875 154.96875 131.089844 154.96875 131.574219 C 154.96875 132.058594 155.054688 132.480469 155.226562 132.832031 C 155.398438 133.183594 155.644531 133.457031 155.96875 133.648438 C 156.289062 133.839844 156.667969 133.933594 157.109375 133.933594 C 157.304688 133.933594 157.519531 133.914062 157.757812 133.875 C 158.003906 133.832031 158.199219 133.78125 158.351562 133.726562 Z M 158.351562 133.726562 "/>
<path style="fill:none;stroke-width:2;stroke-linecap:butt;stroke-linejoin:miter;stroke:rgb(0%,0%,0%);stroke-opacity:1;stroke-miterlimit:4;" d="M -0.00000266667 0.996303 L 49.707029 0.996303 " transform="matrix(0.4,0,0,0.4,20.000001,132.441322)"/>
<path style="fill:none;stroke-width:2;stroke-linecap:butt;stroke-linejoin:miter;stroke:rgb(0%,0%,0%);stroke-opacity:1;stroke-miterlimit:4;" d="M 0.00169942 0.996303 L 49.708731 0.996303 " transform="matrix(0.4,0,0,0.4,160.116508,132.441322)"/>
</g>
</svg>
