<?xml version="1.0" standalone="no"?><svg xmlns="http://www.w3.org/2000/svg" viewBox="0 0 1440 320"><path fill="#F8F1E8" fill-opacity="1" d="M0,256L0,64L80,64L80,192L160,192L160,192L240,192L240,288L320,288L320,224L400,224L400,160L480,160L480,224L560,224L560,128L640,128L640,192L720,192L720,256L800,256L800,224L880,224L880,256L960,256L960,320L1040,320L1040,128L1120,128L1120,224L1200,224L1200,96L1280,96L1280,96L1360,96L1360,96L1440,96L1440,0L1360,0L1360,0L1280,0L1280,0L1200,0L1200,0L1120,0L1120,0L1040,0L1040,0L960,0L960,0L880,0L880,0L800,0L800,0L720,0L720,0L640,0L640,0L560,0L560,0L480,0L480,0L400,0L400,0L320,0L320,0L240,0L240,0L160,0L160,0L80,0L80,0L0,0L0,0Z"></path></svg>