<?xml version="1.0" standalone="no"?><svg xmlns="http://www.w3.org/2000/svg" viewBox="0 0 1440 320"><path fill="#F8F1E8" fill-opacity="1" d="M0,256L0,64L80,64L80,192L160,192L160,192L240,192L240,288L320,288L320,224L400,224L400,160L480,160L480,224L560,224L560,128L640,128L640,192L720,192L720,256L800,256L800,224L880,224L880,256L960,256L960,320L1040,320L1040,128L1120,128L1120,224L1200,224L1200,96L1280,96L1280,96L1360,96L1360,96L1440,96L1440,320L1360,320L1360,320L1280,320L1280,320L1200,320L1200,320L1120,320L1120,320L1040,320L1040,320L960,320L960,320L880,320L880,320L800,320L800,320L720,320L720,320L640,320L640,320L560,320L560,320L480,320L480,320L400,320L400,320L320,320L320,320L240,320L240,320L160,320L160,320L80,320L80,320L0,320L0,320Z"></path></svg>