<?xml version="1.0" standalone="no"?><svg xmlns="http://www.w3.org/2000/svg" viewBox="0 0 1440 320"><path fill="#F8F1E8" fill-opacity="1" d="M0,32L24,32C48,32,96,32,144,32C192,32,240,32,288,80C336,128,384,224,432,261.3C480,299,528,277,576,250.7C624,224,672,192,720,197.3C768,203,816,245,864,229.3C912,213,960,139,1008,138.7C1056,139,1104,213,1152,208C1200,203,1248,117,1296,90.7C1344,64,1392,96,1416,112L1440,128L1440,320L1416,320C1392,320,1344,320,1296,320C1248,320,1200,320,1152,320C1104,320,1056,320,1008,320C960,320,912,320,864,320C816,320,768,320,720,320C672,320,624,320,576,320C528,320,480,320,432,320C384,320,336,320,288,320C240,320,192,320,144,320C96,320,48,320,24,320L0,320Z"></path></svg>