<?xml version="1.0" standalone="no"?><svg xmlns="http://www.w3.org/2000/svg" viewBox="0 0 1440 320"><path fill="#F8F1E8" fill-opacity="1" d="M0,288L30,272C60,256,120,224,180,224C240,224,300,256,360,256C420,256,480,224,540,181.3C600,139,660,85,720,64C780,43,840,53,900,90.7C960,128,1020,192,1080,186.7C1140,181,1200,107,1260,106.7C1320,107,1380,181,1410,218.7L1440,256L1440,0L1410,0C1380,0,1320,0,1260,0C1200,0,1140,0,1080,0C1020,0,960,0,900,0C840,0,780,0,720,0C660,0,600,0,540,0C480,0,420,0,360,0C300,0,240,0,180,0C120,0,60,0,30,0L0,0Z"></path></svg>