<?xml version="1.0" encoding="utf-8"?>
<!-- Generator: Adobe Illustrator 25.2.0, SVG Export Plug-In . SVG Version: 6.00 Build 0)  -->
<svg version="1.1" id="Layer_1" xmlns="http://www.w3.org/2000/svg" xmlns:xlink="http://www.w3.org/1999/xlink" x="0px" y="0px"
	 viewBox="0 0 49 74" style="enable-background:new 0 0 49 74;" xml:space="preserve">
<style type="text/css">
	.st0{fill:url(#SVGID_1_);}
	.st1{fill:url(#SVGID_2_);}
</style>
<linearGradient id="SVGID_1_" gradientUnits="userSpaceOnUse" x1="-9.017138e-03" y1="52.413" x2="48.9928" y2="52.413">
	<stop  offset="0" style="stop-color:#6E6156"/>
	<stop  offset="1" style="stop-color:#3A322B"/>
	<stop  offset="1" style="stop-color:#7763E5"/>
</linearGradient>
<path class="st0" d="M8.1,62.1c2.7,3.4,5.2,7.1,8.2,10.2c0,0,0,0.1,0.1,0.1c0.6,0.7,1.6,1.8,2.6,1.5c0.6-0.2,1.2-0.8,1.7-1.2
	c0.8-0.6,1.6-1.2,2.5-1.8c2.2-1.5,4.6-2.7,7.1-3.3c0.1,0,0.1,0,0.2,0c1.1,0.1,2.1,0.4,3.1,0.5c0.8,0.1,1.3-0.3,1.4-1.1
	c1.6-2.2,3.1-4.4,5-6.4c1.1-1.1,2.3-2,3.5-2.8c0,0,0,0,0.1,0c1.6-1,3.3-1.8,5-2.4c0.3-0.1,0.6-0.6,0.2-0.9c-0.6-0.5-1.1-1-1.7-1.4
	c0.1,0,0.1,0,0.1-0.1c0.1-0.1,0.2-0.2,0.2-0.3c0.1-0.1,0.1-0.1,0.1-0.2c0.2-0.1,0.4-0.3,0.3-0.6c-0.1-0.2-0.2-0.4-0.3-0.5l0,0
	c0.2,0,0.2-0.2,0.1-0.3C47.5,51,47.4,51,47.2,51c-0.2-0.4-0.5-0.8-0.7-1.2c-0.2-0.6-0.6-1.2-1-1.8c-0.7-1.2-1.5-2.3-2.3-3.4
	c-1.6-2.3-3.2-4.5-4.8-6.8c-1.4-2-2.7-4.4-4.4-6.1c-0.8-0.9-2.2-1.2-3-0.2c-2,0.5-3.7,1.3-5.3,2.7c-0.6,0.5-1.3,1.2-1.9,1.9
	c-2,1.9-3.7,4.3-4.5,6.9c-2.5-1.4-5.8-1.3-8.4-0.7C7.2,43.1,4,45.1,0.8,47c-0.3,0.2-0.4,0.6-0.1,0.9c0.5,0.6,1,1.2,1.5,1.8
	c-0.8,0.4-1.3,0.9-2,1.6C0,51.6-0.1,51.8,0.1,52C2.7,55.4,5.4,58.8,8.1,62.1z M25.1,68.4c-1.5,0.8-2.9,1.7-4.2,2.7
	c-0.5,0.4-1.3,1.2-1.8,1.4c-0.4,0.2-0.7,0.1-1.1,0l0,0c0.1-0.2,0.1-0.4,0-0.5l0,0c0.2-0.1,0.5-0.2,0.6-0.5c0.2-0.2,0.5-0.5,0.7-0.7
	c0.6-0.5,1.2-0.9,1.9-1.4c1.2-0.7,2.5-1.2,3.7-1.7c2.3-0.8,5-1.9,7.5-1.7c0.1,0,0.1,0,0.1,0C29.9,66.3,27.4,67.2,25.1,68.4z
	 M31.8,67.4c0.6-0.1,1.3-0.1,2-0.1c0.1,0.1,0.2,0.1,0.3,0.1C33.5,67.6,32.6,67.5,31.8,67.4z M34.8,66.8c-0.1,0-0.1,0-0.2,0
	c0.2-0.2,0.3-0.4,0.5-0.6C35,66.4,34.9,66.6,34.8,66.8z M47.3,54.8c-2.8,1.1-5.3,2.6-7.6,4.5c-1.2,1-2.4,2.2-3.5,3.4
	c0.1-0.2,0.2-0.4,0.3-0.5c0.9-1.4,1.8-2.7,2.9-3.9c1.9-2.1,4.1-3.7,6.6-4.7C46.4,54,46.9,54.4,47.3,54.8z M46.6,52.7
	c-0.1,0-0.2,0.1-0.3,0.1s-0.2,0-0.2,0.1c-2.6,0.9-5,2.8-6.8,4.8c-1.7,1.9-3.9,4.5-4.7,7.1c-0.1-0.1-0.1-0.2-0.2-0.2
	c0.3-1.3,1.4-2.8,2-3.7c0.9-1.4,1.9-2.7,3-3.9c1.1-1.1,2.2-2.1,3.5-3c0.8-0.6,2.1-1.6,3.3-2.1C46.3,52.2,46.5,52.4,46.6,52.7z
	 M24.9,36.6c0.4-0.5,0.9-0.9,1.3-1.4c1.2-0.9,2.5-1.7,3.9-2.3c0.5-0.2,1.2-0.5,1.8-0.7c0.2-0.1,0.4-0.1,0.6-0.1c0,0,0-0.1-0.1-0.1
	c1.5,0.6,2.9,3.5,3.6,4.4c1.2,1.7,2.4,3.5,3.7,5.2c1.1,1.6,2.3,3.2,3.4,4.8c0,0,0,0.1,0.1,0.1c0.9,1.7,1.8,3.3,2.7,4.9
	c-0.9,0.4-1.7,1.1-2.2,1.4c-1.7,1.1-3.4,2.5-4.8,4c-1.4,1.5-2.5,3.1-3.5,4.9c-0.4,0.7-0.9,1.6-1.2,2.5c-0.6-1-1.3-2-1.9-2.9
	c-1.4-2.2-2.8-4.3-4.3-6.4c-1.4-2-2.8-4-4.3-6c-1.2-1.6-2.3-3.5-3.7-4.9C21,41.1,22.9,38.8,24.9,36.6z M19.6,44.2
	c1,1.7,2.4,3.2,3.5,4.7c1.3,1.8,2.6,3.7,3.9,5.5c1.3,1.9,2.5,3.7,3.8,5.6c0.6,0.9,1.1,1.7,1.7,2.6c0.3,0.5,0.7,1,1,1.6
	c0.1,0.2,0.2,0.4,0.3,0.5c0,0.1,0,0.1,0,0.1c-2.4-3.6-5.1-7.1-7.6-10.7c-2.4-3.4-4.7-6.9-7.3-10.2C19.1,44.1,19.4,44.2,19.6,44.2z
	 M1.9,47.8c2.7-1.6,5.4-3.2,8.5-4c2.8-0.8,5.3-0.6,8,0.1c2.4,3.7,5.1,7.2,7.6,10.8c2.5,3.5,5,7.2,7.6,10.7c-5.2-2.4-11.8-0.8-16,2.9
	C12.7,61.2,7.5,54.4,1.9,47.8z M1.8,50.8c0.2-0.2,0.3-0.4,0.5-0.6C7.5,56.3,12.4,62.8,17,69.4c0.2,0.3,0.6,0.4,0.9,0.1
	c2-1.9,4.5-3.3,7.3-3.8c1.6-0.3,3.1-0.3,4.7-0.1c-0.2,0-0.4,0.1-0.6,0.1c-1.9,0.4-3.7,1-5.5,1.7c-1.6,0.6-3.1,1.4-4.4,2.4
	c-0.6,0.4-1.9,1.3-2.2,2.2c-2.6-3.8-5.9-7.4-8.8-11c-1.5-1.8-2.9-3.7-4.4-5.5c-0.8-0.9-1.8-1.9-2.4-3L1.2,52
	C1.2,51.4,1.4,51,1.8,50.8z"/>
<linearGradient id="SVGID_2_" gradientUnits="userSpaceOnUse" x1="20.9" y1="15.494" x2="40" y2="15.494">
	<stop  offset="0" style="stop-color:#6E6156"/>
	<stop  offset="1" style="stop-color:#3A322B"/>
	<stop  offset="1" style="stop-color:#7763E5"/>
</linearGradient>
<path class="st1" d="M22.2,30.8c2.4-2,4.8-4,7-6.2c0.1-0.1,0.2-0.1,0.3-0.3c2.4-3.7,4.5-7.7,6.4-11.7c0.9-1.9,1.8-3.9,2.7-5.9
	c0.1-0.3,1-1.2,1.1-1.9c0.2,0,0.3-0.1,0.3-0.3c-0.1-0.4-0.3-0.8-0.6-1.2c-0.3-1.3-1.6-2.6-2.8-3c-1.3-0.5-2.8-0.4-4.1,0.2
	c-0.4,0.1-0.8,0.2-1.1,0.6v0.1c-0.9,0.9-1.4,2.2-2,3.4c-0.9,1.7-1.7,3.5-2.5,5.3c-1.6,3.4-3.1,6.9-5.1,10.2
	c-0.1,0.2-0.1,0.4-0.1,0.5c-0.1,0.1-0.2,0.1-0.2,0.3c0,0.1,0,0.2,0,0.3c0,0.1-0.1,0.3,0,0.4c0,0.1,0.1,0.3,0.1,0.4
	c-0.2,0.7-0.2,1.5-0.3,2.2c-0.3,2.1-0.4,4.1-0.4,6.2C21,31,21.8,31.2,22.2,30.8z M36.8,3.1c0.4,0.2,0.7,0.5,1,0.7
	C38,4,38.1,4.1,38.3,4.3c0,0.1,0.1,0.2,0.1,0.3c0,0,0,0.1,0.1,0.1c-0.9,0.8-1.2,1.9-1.7,3c-0.9,1.9-1.7,3.7-2.7,5.5
	c-1.7,3.4-3.6,6.6-5.5,9.9c-0.4-0.3-0.8-0.6-1.2-0.9c0,0,0-0.1,0.1-0.1c1.9-3,3.6-6,5.1-9.2c0.6-1.4,1.3-2.9,1.8-4.3
	C35,6.7,35.5,4.7,36.8,3.1z M28.1,10.5c0.7-1.7,1.5-3.3,2.3-5c0.5-1.2,1.4-2.4,1.7-3.7c0.1-0.1,0.2-0.1,0.4-0.1c0.1,0,0.2,0,0.4,0.1
	c0.9,0.1,1.8,0.3,2.7,0.7c0.3,0.1,0.6,0.3,0.9,0.4c-1.1,1.1-1.5,2.4-2,3.7c-0.8,2-1.6,4-2.5,6c-0.8,1.7-1.6,3.4-2.5,5
	c-0.5,0.9-1,1.7-1.5,2.6c-0.3,0.5-0.6,0.9-0.9,1.4c-0.1,0.1-0.2,0.2-0.2,0.3c-1.1-0.7-2.4-1.3-3.6-1.7
	C25.1,17.1,26.6,13.8,28.1,10.5z M22.7,20.9c0.5,0.2,0.9,0.4,1.4,0.7c-0.4-0.1-0.9-0.3-1.3-0.4C22.8,21.1,22.8,21,22.7,20.9
	L22.7,20.9z M22.7,24.5c0.1-0.9,0.5-2,0.3-2.9c0.9,0.3,1.7,0.7,2.5,1.2c0.1,0.1,0.3,0.3,0.5,0.3c0.5,0.3,1.1,0.7,1.6,1.1
	c-0.9,0.9-1.9,1.8-2.8,2.6c-0.4-0.7-1.3-1.2-2.2-1.2C22.6,25.3,22.6,24.9,22.7,24.5z"/>
</svg>
