<?xml version="1.0" encoding="utf-8"?>
<!-- Generator: Adobe Illustrator 25.2.0, SVG Export Plug-In . SVG Version: 6.00 Build 0)  -->
<svg version="1.1" id="Layer_1" xmlns="http://www.w3.org/2000/svg" xmlns:xlink="http://www.w3.org/1999/xlink" x="0px" y="0px"
	 viewBox="0 0 123 123" style="enable-background:new 0 0 123 123;" xml:space="preserve">
<style type="text/css">
	.st0{fill:#010101;}
	.st1{clip-path:url(#SVGID_2_);}
	.st2{fill:#3B332C;}
	.st3{fill:none;stroke:#010101;}
</style>
<g>
	<g>
		<g transform="translate(56.090115, 231.173382)">
			<g>
				<path class="st0" d="M-40.2-150.9l0.1-0.9l-6.6-0.7l0.3-2.5l-0.9-0.1l-0.6,6l0.9,0.1l0.3-2.5L-40.2-150.9z"/>
			</g>
		</g>
	</g>
	<g>
		<g transform="translate(58.093931, 211.241569)">
			<g>
				<path class="st0" d="M-40.2-141l0.3-0.9l-7.2-2l-0.3,0.9l3.1,0.9l-1.1,3.8l-3.1-0.9l-0.3,0.9l7.2,2l0.3-0.9l-3.3-0.9l1.1-3.8
					L-40.2-141z"/>
			</g>
		</g>
	</g>
	<g>
		<g transform="translate(64.673356, 188.489026)">
			<g>
				<path class="st0" d="M-45.6-121.5l2-4.2l-0.8-0.4l-1.6,3.4l-2.3-1.1l1.4-3l-0.8-0.4l-1.4,3l-2.2-1l1.5-3.3l-0.8-0.4l-1.9,4.1
					L-45.6-121.5z"/>
			</g>
		</g>
	</g>
	<g>
		<g transform="translate(73.299506, 170.766384)">
		</g>
	</g>
	<g>
		<g transform="translate(77.443745, 162.962832)">
			<g>
				<path class="st0" d="M-51.4-107.4c1.4-1.8,1.1-4.1-0.9-5.6l-2.6,3.2l0.7,0.6l1.9-2.4c1,1,1.1,2.5,0.1,3.7
					c-1.1,1.3-2.7,1.5-4.1,0.4c-1.4-1.1-1.6-2.8-0.5-4.1c0.7-0.9,1.7-1.3,2.8-1l0.6-0.8c-1.5-0.6-3.1-0.1-4.2,1.3
					c-1.4,1.7-1.1,4,0.7,5.4C-55.1-105.5-52.8-105.7-51.4-107.4z"/>
			</g>
		</g>
	</g>
	<g>
		<g transform="translate(93.5566, 143.005219)">
			<g>
				<path class="st0" d="M-61.1-94c1.8-1.5,2-3.7,0.5-5.5c-1.5-1.8-3.7-2-5.5-0.5c-1.8,1.5-1.9,3.7-0.5,5.5
					C-65.1-92.7-62.9-92.5-61.1-94z M-65.9-95.1c-1.1-1.3-1-3,0.3-4.1c1.3-1.1,3-1,4.1,0.4c1.1,1.3,1,3-0.3,4.1
					C-63.1-93.6-64.7-93.8-65.9-95.1z"/>
			</g>
		</g>
	</g>
	<g>
		<g transform="translate(113.6177, 126.330946)">
			<g>
				<path class="st0" d="M-73.6-82.5c2-1.1,2.7-3.3,1.6-5.3c-1.1-2-3.3-2.7-5.3-1.6c-2,1.1-2.6,3.3-1.6,5.3
					C-77.8-82-75.6-81.4-73.6-82.5z M-78-84.5c-0.8-1.5-0.4-3.2,1.2-4c1.5-0.8,3.1-0.3,4,1.2s0.4,3.2-1.2,4
					C-75.5-82.5-77.2-83-78-84.5z"/>
			</g>
		</g>
	</g>
	<g>
		<g transform="translate(136.685963, 114.022215)">
			<g>
				<path class="st0" d="M-91.4-72.9l2.5-0.8c2.2-0.7,3.2-2.6,2.5-4.7c-0.7-2.1-2.6-3.1-4.8-2.4l-2.5,0.8L-91.4-72.9z M-90.8-74
					l-1.7-5.4l1.5-0.5c1.7-0.5,3.1,0.2,3.7,1.8c0.5,1.6-0.3,3.1-1.9,3.6L-90.8-74z"/>
			</g>
		</g>
	</g>
	<g>
		<g transform="translate(160.026103, 107.224034)">
		</g>
	</g>
	<g>
		<g transform="translate(168.814407, 105.357913)">
			<g>
				<path class="st0" d="M-109.6-67c1.6-0.1,2.6-1,2.6-2.3c-0.1-1.1-0.9-1.7-2.8-2.1c-1.5-0.3-2-0.6-2-1.2c0-0.7,0.6-1.2,1.6-1.3
					c1.1-0.1,1.8,0.4,1.9,1.3l0.9-0.1c-0.1-1.5-1.2-2.3-2.9-2.2c-1.6,0.1-2.6,1-2.5,2.2c0.1,1.2,0.9,1.7,2.8,2.1
					c1.4,0.2,2,0.6,2,1.3c0,0.7-0.6,1.2-1.6,1.3c-1.2,0.1-2-0.4-2.1-1.4l-0.9,0.1C-112.6-67.8-111.4-66.9-109.6-67z"/>
			</g>
		</g>
	</g>
	<g>
		<g transform="translate(189.407835, 104.104902)">
			<g>
				<path class="st0" d="M-123.6-65.9l0.9,0.1l0.6-6.6l2.5,0.2l0.1-0.9l-6-0.5l-0.1,0.9l2.5,0.2L-123.6-65.9z"/>
			</g>
		</g>
	</g>
	<g>
		<g transform="translate(209.382617, 105.862018)">
			<g>
				<path class="st0" d="M-135.6-66.2c1.8,0.5,3.1-0.4,3.6-2.4l1.1-4.3l-0.9-0.2l-1.1,4.2c-0.4,1.5-1.2,2.1-2.5,1.8
					c-1.2-0.3-1.7-1.3-1.3-2.7l1.1-4.2l-0.9-0.2l-1.1,4.3C-138.1-68-137.3-66.6-135.6-66.2z"/>
			</g>
		</g>
	</g>
	<g>
		<g transform="translate(231.550333, 111.653635)">
			<g>
				<path class="st0" d="M-152.6-70.5l2.4,1.1c2.1,1,4.1,0.2,5.1-1.8c0.9-2,0.2-4.1-1.9-5l-2.4-1.1L-152.6-70.5z M-151.4-71l2.4-5.2
					l1.5,0.7c1.6,0.7,2.2,2.3,1.5,3.8c-0.7,1.5-2.3,2.1-3.8,1.4L-151.4-71z"/>
			</g>
		</g>
	</g>
	<g>
		<g transform="translate(253.202379, 121.953757)">
			<g>
				<path class="st0" d="M-166.7-77l3.9,2.6l0.5-0.7l-3.1-2.1l1.4-2.1l2.8,1.9l0.5-0.7l-2.8-1.9l1.3-2l3,2l0.5-0.7l-3.8-2.6
					L-166.7-77z"/>
			</g>
		</g>
	</g>
	<g>
		<g transform="translate(269.172443, 132.68346)">
			<g>
				<path class="st0" d="M-177.1-83.8l0.7,0.6l4.1-4.3l-1.1,7.1l0.6,0.6l5.2-5.4l-0.7-0.6l-4.1,4.3l1.1-7.1l-0.6-0.6L-177.1-83.8z"
					/>
			</g>
		</g>
	</g>
	<g>
		<g transform="translate(286.308754, 149.378943)">
			<g>
				<path class="st0" d="M-187.2-93l0.6,0.8l5.3-4l1.5,2l0.7-0.5l-3.6-4.8l-0.7,0.5l1.5,2L-187.2-93z"/>
			</g>
		</g>
	</g>
	<g>
		<g transform="translate(298.237335, 166.044996)">
		</g>
	</g>
	<g>
		<g transform="translate(303.108021, 173.425139)">
			<g>
				<path class="st0" d="M-198.2-106.7c0.7,1.7,2.3,2.6,4,2.4l-0.4-0.9c-1.2,0.1-2.3-0.6-2.7-1.8c-0.6-1.5,0-3.1,1.6-3.8
					c1.6-0.7,3.2,0,3.8,1.5c0.5,1.1,0.3,2.3-0.6,3.1l0.4,0.9c1.3-1.1,1.7-2.8,1.1-4.4c-0.9-2-3-2.9-5.1-2
					C-198.1-110.8-199-108.7-198.2-106.7z"/>
			</g>
		</g>
	</g>
	<g>
		<g transform="translate(312.858466, 196.867604)">
			<g>
				<path class="st0" d="M-205.3-121.5c0.5,2.2,2.3,3.5,4.6,3c2.2-0.5,3.5-2.4,3-4.6c-0.5-2.2-2.3-3.5-4.6-3
					C-204.5-125.6-205.7-123.7-205.3-121.5z M-202-125.1c1.7-0.3,3.1,0.6,3.5,2.3c0.3,1.7-0.6,3.1-2.3,3.4c-1.7,0.3-3.1-0.6-3.5-2.3
					C-204.7-123.4-203.8-124.8-202-125.1z"/>
			</g>
		</g>
	</g>
	<g>
		<g transform="translate(317.464855, 223.06254)">
			<g>
				<path class="st0" d="M-209-141.4c0,0.4,0.3,0.7,0.8,0.7c0.4,0,0.7-0.3,0.6-0.8c0-0.4-0.3-0.7-0.7-0.7S-209-141.9-209-141.4z"/>
			</g>
		</g>
	</g>
	<g>
		<defs>
			<rect id="SVGID_1_" x="38" y="41.5" width="48.5" height="42"/>
		</defs>
		<clipPath id="SVGID_2_">
			<use xlink:href="#SVGID_1_"  style="overflow:visible;"/>
		</clipPath>
		<g class="st1">
			<path class="st2" d="M86.5,62.1c0-0.1,0-0.2-0.1-0.3l-3-3c-0.1-0.1-0.2-0.1-0.3-0.1c-0.1,0-0.2,0-0.3,0.1l-5.7,6.3h-1.3l1.3-13.1
				c0,0,0,0,0-0.1c0,0,0,0,0-0.1L76.2,48c0-0.2-0.2-0.3-0.3-0.3c-0.2,0-0.3,0.1-0.4,0.2l-1.6,3.7c0,0,0,0,0,0.1c0,0,0,0,0,0.1
				l-1.3,13.5h-1V48.6c0,0,0-0.1,0-0.1c0,0,0,0,0,0l-0.8-3.4c0-0.2-0.2-0.3-0.4-0.3h-0.5v-0.9c0-0.2-0.2-0.4-0.4-0.4
				c-0.2,0-0.4,0.2-0.4,0.4v0.9h-0.5c-0.2,0-0.3,0.1-0.4,0.3l-0.8,3.4c0,0,0,0,0,0c0,0,0,0.1,0,0.1v11.1c-0.1,0-0.1,0-0.2,0h-0.1
				c-0.5,0-1,0.4-1,1v4.6H63l3.5-12.5c0,0,0,0,0-0.1c0,0,0,0,0-0.1l-0.2-4c0-0.2-0.1-0.3-0.3-0.4c-0.2,0-0.3,0-0.4,0.2l-2.2,3.3
				c0,0,0,0,0,0.1c0,0,0,0,0,0.1L62.7,54v-0.8c0,0,0,0,0-0.1s0,0,0-0.1l-1.3-3.8c-0.1-0.2-0.2-0.3-0.4-0.3s-0.3,0.1-0.4,0.3
				l-1.3,3.8c0,0,0,0,0,0.1c0,0,0,0,0,0.1V64l-3.6-7.1l5.4-10.1c0.1-0.2,0-0.4-0.2-0.5l-4.4-2.4c-0.1,0-0.2-0.1-0.3,0
				c-0.1,0-0.2,0.1-0.2,0.2l-0.5,1c-1.5-2.2-4.2-3.8-6.3-2.8c-1.3,0.6-2,2-2.2,3c-1-0.3-2.5-0.5-3.7,0.3c-1,0.7-1.6,2-1.6,3.7
				c0,1.5,0.5,3.1,1.3,4.2c1.2,1.8,3.5,2.9,6.1,2.9c0.1,0,0.2,0,0.4,0l-2.2,4.2l-0.1-1.3c0-0.1-0.1-0.2-0.1-0.3
				c-0.1-0.1-0.2-0.1-0.3-0.1l-0.1,0l-0.1-0.7c0-0.3-0.2-0.6-0.4-0.8c-0.2-0.2-0.5-0.3-0.8-0.3l-2.2,0.2c-0.6,0.1-1.1,0.6-1,1.2
				l0.1,0.7l-0.1,0c-0.2,0-0.4,0.2-0.3,0.4l0.5,5.6h-0.5c-0.2,0-0.4,0.2-0.4,0.4v2.2c-0.7,0.2-1.4,0.4-1.9,0.8
				c-0.2,0.2-0.4,0.3-0.6,0.5c-0.5,0.5-0.8,1.2-0.8,1.9v9.8c0,1.4,1.1,2.6,2.6,2.6h40.2c1.4,0,2.6-1.2,2.6-2.6v-9.8
				c0-0.7-0.3-1.4-0.8-1.9c-0.2-0.2-0.4-0.4-0.6-0.5c-0.5-0.3-1-0.6-1.5-0.7l6-5.5C86.4,62.3,86.5,62.2,86.5,62.1z M75.1,65.2h-0.5
				l1.2-12.9l0.5,0L75.1,65.2z M75.7,49.3l0.5,2.3l-1.5-0.1L75.7,49.3z M74.6,52.2l0.5,0l-1.2,12.9h-0.5L74.6,52.2z M70.8,49.7
				c-0.5-0.2-1-0.2-1.3-0.2c-0.5,0-0.9,0.1-1.3,0.2v-0.9c0.3-0.1,0.8-0.3,1.3-0.3c0.3,0,0.8,0.1,1.3,0.3V49.7z M68.2,60.6V50.5
				c0.3-0.1,0.8-0.3,1.3-0.3c0.3,0,0.8,0.1,1.3,0.3v14.7h-2.6V60.6z M68.9,45.6H70l0.6,2.4c-0.4-0.1-0.8-0.2-1.1-0.2
				c-0.4,0-0.8,0.1-1.1,0.2L68.9,45.6z M66.9,60.6c0-0.1,0.1-0.2,0.2-0.2h0.1c0.1,0,0.2,0.1,0.2,0.2v4.6h-0.5V60.6z M62.2,65.2h-1.8
				l3.6-12.8l1.7,0.5L62.2,65.2z M53.6,61l2.5,4.2h-4.8L53.6,61z M57,65.2l-3-5l0.4-0.7l2.5,1.3l2.3,4.5H57z M65.7,52.1l-1.4-0.4
				l1.3-1.9L65.7,52.1z M60.2,63.1v-9.4h1.8v3.2L60.2,63.1z M61.1,50.6l0.7,2.2h-1.5L61.1,50.6z M56.3,59.6l-1.5-0.8l0.6-1.1
				L56.3,59.6z M56.6,44.7l3.8,2.1l-6.4,12.1l-3.4,6.4h-4.9l1.4-2.6l1.9,1c0.1,0,0.1,0,0.2,0c0.1,0,0.3-0.1,0.3-0.2
				c0.1-0.2,0-0.4-0.2-0.5l-1.9-1l0.8-1.6l1.9,1c0.1,0,0.1,0,0.2,0c0.1,0,0.3-0.1,0.3-0.2c0.1-0.2,0-0.4-0.2-0.5l-1.9-1l0.8-1.6
				l1.9,1c0.1,0,0.1,0,0.2,0c0.1,0,0.3-0.1,0.3-0.2c0.1-0.2,0-0.4-0.2-0.5l-1.9-1l0.8-1.6l1.9,1c0.1,0,0.1,0,0.2,0
				c0.1,0,0.3-0.1,0.3-0.2c0.1-0.2,0-0.4-0.2-0.5l-1.9-1l0.8-1.6l1.9,1c0.1,0,0.1,0,0.2,0c0.1,0,0.3-0.1,0.3-0.2
				c0.1-0.2,0-0.4-0.2-0.5l-1.9-1l0.8-1.6l1.9,1c0.1,0,0.1,0,0.2,0c0.1,0,0.3-0.1,0.3-0.2c0.1-0.2,0-0.4-0.2-0.5l-1.9-1l0.8-1.6
				l1.9,1c0.1,0,0.1,0,0.2,0c0.1,0,0.3-0.1,0.3-0.2c0.1-0.2,0-0.4-0.2-0.5l-1.9-1l0.8-1.6l1.9,1c0.1,0,0.1,0,0.2,0
				c0.1,0,0.3-0.1,0.3-0.2c0.1-0.2,0-0.4-0.2-0.5l-1.9-1L56.6,44.7z M42.6,60l3.7-0.3c0,0,0,0,0,0l0.1,0l0.1,1.6l-3.9,0.4L42.6,60
				L42.6,60C42.6,60,42.6,60,42.6,60z M42.8,62.3l3.7-0.3l-0.6,1.2l-3,0.3L42.8,62.3z M52.5,50.7L50,46c0.1-0.4,0.2-1.2,0.8-1.4
				c0.9-0.4,2.6,1.1,3.3,2.5c0.1,0.1,0.1,0.3,0.2,0.4L52.5,50.7z M49.6,42.8c1.8-0.8,4.3,0.8,5.5,2.9l-0.5,1
				c-0.8-1.6-2.7-3.4-4.2-2.8c-0.9,0.4-1.2,1.5-1.2,2.2c0,0.1,0,0.2,0,0.2l2.8,5.2l-0.5,1l-3.8-6.9C47.9,44.8,48.4,43.3,49.6,42.8z
				 M43.6,53c-0.7-1-1.1-2.4-1.1-3.8c0-0.8,0.2-2.3,1.3-3.1c1-0.7,2.4-0.4,3.3-0.2l4,7.4l-1.2,2.2C47.3,55.7,44.9,54.8,43.6,53z
				 M42.9,58.4c0-0.2,0.1-0.4,0.3-0.4l2.2-0.2c0,0,0,0,0,0c0.1,0,0.2,0,0.2,0.1c0.1,0.1,0.1,0.2,0.1,0.3l0.1,0.7l-2.9,0.3L42.9,58.4
				z M42.9,64.2l2.5-0.2l-0.7,1.3H43L42.9,64.2z M42.1,66h34.8c0,0,0,0,0,0l1.7,1.8H42.1V66z M82.5,75.7c-0.9-0.9-2.2-1.5-3.5-1.5
				c-1.9,0-3.6,1.1-4.4,2.7l0,0c-0.9,1.7-2.8,2.8-4.8,2.8c-2,0-3.9-1.1-4.8-2.8c-1-1.7-2.8-2.7-4.8-2.7c-2,0-3.8,1-4.8,2.7l0,0
				c-0.2,0.3-1.9,2.8-5.2,2.8c-3.3,0-5-2.5-5.2-2.8c-0.1-0.2-1.3-1.9-3.5-1.9c-1.2,0-2.1,0.5-2.7,1v-1.1c0.8-0.5,1.7-0.8,2.7-0.8
				c2.8,0,4.3,2.3,4.4,2.4c0.1,0.1,1.6,2.3,4.4,2.3c2.7,0,4.2-2.1,4.4-2.3c1.2-2,3.3-3.2,5.7-3.2c2.3,0,4.5,1.2,5.7,3.2
				c0.8,1.4,2.3,2.3,3.9,2.3c1.6,0,3.1-0.9,3.9-2.3c1-2,3-3.2,5.2-3.2c1.3,0,2.5,0.4,3.5,1.2L82.5,75.7L82.5,75.7z M80.7,82.7H40.5
				c-1,0-1.8-0.8-1.8-1.8V77c0.4-0.5,1.3-1.3,2.7-1.3c1.8,0,2.8,1.5,2.9,1.6c0.2,0.3,2.2,3.1,5.9,3.1s5.7-2.8,5.9-3.1l0,0
				c0.8-1.5,2.4-2.4,4.2-2.4c1.7,0,3.3,0.9,4.1,2.3c1.1,2,3.2,3.2,5.5,3.2c2.3,0,4.4-1.2,5.5-3.2l0,0c0.7-1.4,2.1-2.3,3.7-2.3
				c1.5,0,2.8,0.8,3.5,2v3.9C82.5,81.8,81.7,82.7,80.7,82.7z M82,69.8c0.4,0.3,0.6,0.8,0.6,1.3v2.4c-1.1-0.7-2.3-1-3.5-1
				c-2.5,0-4.9,1.4-5.9,3.6c-0.6,1.2-1.9,1.9-3.3,1.9c-1.4,0-2.6-0.7-3.3-1.9c-1.3-2.2-3.7-3.6-6.3-3.6c-2.6,0-5,1.4-6.3,3.6
				c-0.1,0.2-1.4,2-3.7,2c-2.4,0-3.7-1.9-3.7-2c-0.1-0.1-1.8-2.7-5-2.7c-0.9,0-1.8,0.2-2.7,0.6v-2.9c0-0.5,0.2-1,0.6-1.3
				c0.2-0.2,0.3-0.3,0.5-0.4c0.6-0.4,1.2-0.7,1.9-0.8h37.8c0.7,0.1,1.4,0.4,1.9,0.8C81.6,69.5,81.8,69.6,82,69.8z M79.6,67.6
				l-1.9-1.9l5.4-6l2.4,2.4L79.6,67.6z"/>
		</g>
	</g>
	<path class="st2" d="M81.1,63.7l-1.8,1.8c-0.1,0.2-0.1,0.4,0,0.5c0.1,0.1,0.2,0.1,0.3,0.1c0.1,0,0.2,0,0.3-0.1l1.8-1.8
		c0.1-0.2,0.1-0.4,0-0.5C81.5,63.5,81.2,63.5,81.1,63.7z"/>
	<path class="st2" d="M82,61.6c-0.5,0.5-0.5,1.3,0,1.7c0.2,0.2,0.5,0.4,0.9,0.4c0.3,0,0.6-0.1,0.9-0.4c0.5-0.5,0.5-1.3,0-1.7
		C83.2,61.1,82.4,61.1,82,61.6z M83.1,62.8c-0.2,0.2-0.5,0.2-0.6,0c-0.2-0.2-0.2-0.5,0-0.7c0.1-0.1,0.2-0.1,0.3-0.1
		c0.1,0,0.2,0,0.3,0.1C83.3,62.3,83.3,62.6,83.1,62.8z"/>
	<path class="st2" d="M50.5,54L47,47.6c0-0.1-0.1-0.1-0.2-0.2c-0.6-0.3-1.7-0.7-2.5-0.1c-1.3,1-0.8,3.7,0.2,5.2
		c0.9,1.4,2.5,2.3,4.2,2.3c0.5,0,1-0.1,1.6-0.2c0.1,0,0.2-0.1,0.2-0.2C50.6,54.2,50.6,54.1,50.5,54z M45.2,52.1
		c-0.9-1.3-1.2-3.6-0.4-4.2c0.2-0.1,0.4-0.2,0.6-0.2c0.4,0,0.8,0.1,1,0.3l3.2,5.9C47.9,54.3,46.1,53.6,45.2,52.1z"/>
	<g>
		<g transform="translate(75.728931, 251.702503)">
			<g>
				<path class="st0" d="M-50.2-162.5v-2.1h-0.3c-0.1,0-0.1,0-0.1-0.1c0,0,0-0.1,0-0.1l0,0h1c0,0,0,0.1,0,0.1c0,0,0,0.1,0,0.1
					l-0.4,0v2.1c0,0.3-0.1,0.5-0.2,0.7c-0.1,0.2-0.3,0.3-0.5,0.4c-0.2,0.1-0.4,0.1-0.6,0.1c-0.2,0-0.5,0-0.7-0.1
					c-0.2-0.1-0.4-0.2-0.5-0.4c-0.1-0.2-0.2-0.4-0.2-0.7v-2.1h-0.3c-0.1,0-0.1,0-0.1-0.1c0,0,0-0.1,0-0.1l0,0h1.1c0,0,0,0.1,0,0.1
					c0,0,0,0.1,0,0.1l-0.4,0v2.1c0,0.3,0.1,0.5,0.2,0.7c0.2,0.2,0.4,0.3,0.7,0.3c0.3,0,0.6-0.1,0.7-0.3
					C-50.3-162-50.2-162.2-50.2-162.5z"/>
			</g>
		</g>
	</g>
	<g>
		<g transform="translate(86.825174, 251.702503)">
			<g>
				<path class="st0" d="M-57.3-161.2l-2.1-3.1v2.8h0.3c0.1,0,0.1,0,0.1,0.1c0,0,0,0.1,0,0.1l0,0h-1c0,0,0-0.1,0-0.1
					c0,0,0-0.1,0-0.1l0.4,0v-3.1H-60c-0.1,0-0.1,0-0.1-0.1c0,0,0-0.1,0-0.1l0,0h0.7l2,3v-2.7h-0.3c-0.1,0-0.1,0-0.1-0.1
					c0,0,0-0.1,0-0.1l0,0h1c0,0,0,0.1,0,0.1c0,0,0,0.1,0,0.1l-0.4,0v3.3c0,0-0.1,0-0.1,0C-57.2-161.3-57.2-161.2-57.3-161.2z"/>
			</g>
		</g>
	</g>
	<g>
		<g transform="translate(98.123725, 251.702503)">
			<g>
				<path class="st0" d="M-64.9-161.3h-2.4c0,0,0-0.1,0-0.1c0,0,0-0.1,0-0.1l0.4,0v-3.1h-0.3c-0.1,0-0.1,0-0.1-0.1c0,0,0-0.1,0-0.1
					l0,0h1.1c0,0,0,0.1,0,0.1c0,0,0,0.1,0,0.1l-0.4,0v3.1h1.5l0.1-0.6c0,0,0.1,0,0.1,0c0,0,0.1,0,0.1,0l0,0.8
					C-64.8-161.4-64.8-161.3-64.9-161.3z"/>
			</g>
		</g>
	</g>
	<g>
		<g transform="translate(106.932272, 251.702503)">
			<g>
				<path class="st0" d="M-71.4-161.5c0.3,0,0.5-0.1,0.7-0.2c0.2-0.1,0.4-0.3,0.5-0.6c0.1-0.2,0.2-0.5,0.2-0.8
					c0-0.3-0.1-0.6-0.2-0.8c-0.1-0.2-0.3-0.4-0.5-0.5c-0.2-0.1-0.4-0.2-0.7-0.2c-0.3,0-0.5,0.1-0.7,0.2c-0.2,0.1-0.3,0.3-0.5,0.5
					c-0.1,0.2-0.2,0.5-0.2,0.8c0,0.3,0.1,0.6,0.2,0.8c0.1,0.2,0.3,0.4,0.5,0.5C-71.9-161.5-71.6-161.5-71.4-161.5z M-71.4-161.2
					c-0.3,0-0.6-0.1-0.9-0.2c-0.2-0.2-0.4-0.4-0.6-0.6c-0.1-0.3-0.2-0.6-0.2-1c0-0.4,0.1-0.7,0.2-1c0.1-0.3,0.3-0.5,0.6-0.6
					c0.2-0.2,0.5-0.2,0.9-0.2c0.3,0,0.6,0.1,0.9,0.2c0.2,0.2,0.4,0.4,0.6,0.6c0.1,0.3,0.2,0.6,0.2,1c0,0.4-0.1,0.7-0.2,1
					c-0.1,0.3-0.3,0.5-0.6,0.6C-70.8-161.3-71-161.2-71.4-161.2z"/>
			</g>
		</g>
	</g>
	<g>
		<g transform="translate(117.966258, 251.702503)">
			<g>
				<path class="st0" d="M-77.6-163.8l-0.2-0.7c-0.2-0.1-0.5-0.1-0.7-0.1c-0.3,0-0.5,0.1-0.7,0.2c-0.2,0.1-0.4,0.3-0.5,0.5
					c-0.1,0.2-0.2,0.5-0.2,0.8c0,0.3,0.1,0.6,0.2,0.8c0.1,0.2,0.3,0.4,0.5,0.5c0.2,0.1,0.5,0.2,0.7,0.2c0.3,0,0.6-0.1,0.9-0.2
					c0.1,0.1,0.1,0.1,0.1,0.2c-0.1,0.1-0.3,0.2-0.5,0.2c-0.2,0.1-0.4,0.1-0.6,0.1c-0.3,0-0.6-0.1-0.9-0.2c-0.2-0.2-0.4-0.4-0.6-0.6
					c-0.1-0.3-0.2-0.6-0.2-1c0-0.4,0.1-0.7,0.2-1c0.1-0.3,0.3-0.5,0.6-0.6c0.2-0.2,0.5-0.2,0.9-0.2c0.1,0,0.3,0,0.5,0.1
					c0.2,0,0.3,0.1,0.5,0.1c0,0,0,0.1,0.1,0.1c0,0,0,0.1,0,0.1l0,0.7c0,0-0.1,0-0.1,0C-77.6-163.8-77.6-163.8-77.6-163.8z"/>
			</g>
		</g>
	</g>
	<g>
		<g transform="translate(127.428436, 251.702503)">
			<g>
				<path class="st0" d="M-83-161.3h-1.1c0,0,0-0.1,0-0.1c0,0,0-0.1,0-0.1l0.4,0l-1.1-1.7l-0.7,0.8v0.9h0.3c0.1,0,0.1,0,0.1,0.1
					c0,0,0,0.1,0,0.1l0,0h-1.1c0,0,0-0.1,0-0.1c0,0,0-0.1,0-0.1l0.4,0v-3.1h-0.3c-0.1,0-0.1,0-0.1-0.1c0,0,0-0.1,0-0.1l0,0h1.1
					c0,0,0,0.1,0,0.1c0,0,0,0.1,0,0.1l-0.4,0v1.8l1.6-1.8h-0.3c-0.1,0-0.1,0-0.1-0.1c0,0,0-0.1,0-0.1l0,0h1.1c0,0,0,0.1,0,0.1
					c0,0,0,0.1,0,0.1l-0.3,0l-1,1.2l1.3,1.9h0.3c0.1,0,0.1,0,0.1,0.1C-83-161.4-83-161.4-83-161.3L-83-161.3z"/>
			</g>
		</g>
	</g>
	<g>
		<g transform="translate(137.964421, 251.702503)">
			<g>
				<path class="st0" d="M-91.9-161.3H-93c0,0,0-0.1,0-0.1c0,0,0-0.1,0-0.1l0.4,0v-3.1H-93c-0.1,0-0.1,0-0.1-0.1c0,0,0-0.1,0-0.1
					l0,0h1.2c0,0,0,0.1,0,0.1c0,0,0,0.1,0,0.1l-0.4,0v3.1h0.4c0.1,0,0.1,0,0.1,0.1C-91.8-161.4-91.8-161.4-91.9-161.3L-91.9-161.3z"
					/>
			</g>
		</g>
	</g>
	<g>
		<g transform="translate(142.96015, 251.702503)">
			<g>
				<path class="st0" d="M-93.4-161.2l-2.1-3.1v2.8h0.3c0.1,0,0.1,0,0.1,0.1c0,0,0,0.1,0,0.1l0,0h-1c0,0,0-0.1,0-0.1
					c0,0,0-0.1,0-0.1l0.4,0v-3.1h-0.3c-0.1,0-0.1,0-0.1-0.1c0,0,0-0.1,0-0.1l0,0h0.7l2,3v-2.7h-0.3c-0.1,0-0.1,0-0.1-0.1
					c0,0,0-0.1,0-0.1l0,0h1c0,0,0,0.1,0,0.1c0,0,0,0.1,0,0.1l-0.4,0v3.3c0,0-0.1,0-0.1,0C-93.4-161.3-93.4-161.2-93.4-161.2z"/>
			</g>
		</g>
	</g>
	<g>
		<g transform="translate(154.258701, 251.702503)">
			<g>
				<path class="st0" d="M-100.9-161.6v-1.1h-0.6c-0.1,0-0.1,0-0.1-0.1c0,0,0-0.1,0-0.1l0,0h1.3c0,0,0,0.1,0,0.1c0,0,0,0.1,0,0.1
					l-0.3,0v1.2c0,0,0,0.1,0,0.1c0,0,0,0.1-0.1,0.1c-0.1,0.1-0.3,0.1-0.5,0.2c-0.2,0-0.4,0.1-0.6,0.1c-0.4,0-0.7-0.1-0.9-0.2
					c-0.3-0.2-0.5-0.4-0.6-0.6c-0.1-0.3-0.2-0.6-0.2-1c0-0.4,0.1-0.7,0.2-1c0.1-0.3,0.3-0.5,0.6-0.6c0.3-0.2,0.6-0.2,0.9-0.2
					c0.1,0,0.3,0,0.5,0.1c0.2,0,0.3,0.1,0.5,0.1c0,0,0,0.1,0.1,0.1c0,0,0,0.1,0,0.1l0,0.7c0,0-0.1,0-0.1,0c0,0-0.1,0-0.1,0l-0.1-0.6
					c-0.1-0.1-0.3-0.1-0.4-0.1c-0.1,0-0.2,0-0.4,0c-0.3,0-0.5,0.1-0.7,0.2c-0.2,0.1-0.4,0.3-0.5,0.6c-0.1,0.2-0.2,0.5-0.2,0.8
					s0.1,0.6,0.2,0.8c0.1,0.2,0.3,0.4,0.5,0.5c0.2,0.1,0.5,0.2,0.8,0.2c0.1,0,0.3,0,0.4,0C-101.2-161.5-101-161.6-100.9-161.6z"/>
			</g>
		</g>
	</g>
	<g>
		<g transform="translate(164.872506, 251.702503)">
		</g>
	</g>
	<g>
		<g transform="translate(168.996733, 251.702503)">
			<g>
				<path class="st0" d="M-110.4-162.5v-2.1h-0.3c-0.1,0-0.1,0-0.1-0.1c0,0,0-0.1,0-0.1l0,0h1c0,0,0,0.1,0,0.1c0,0,0,0.1,0,0.1
					l-0.4,0v2.1c0,0.3-0.1,0.5-0.2,0.7c-0.1,0.2-0.3,0.3-0.5,0.4c-0.2,0.1-0.4,0.1-0.6,0.1c-0.2,0-0.5,0-0.7-0.1
					c-0.2-0.1-0.4-0.2-0.5-0.4c-0.1-0.2-0.2-0.4-0.2-0.7v-2.1h-0.3c-0.1,0-0.1,0-0.1-0.1c0,0,0-0.1,0-0.1l0,0h1.1c0,0,0,0.1,0,0.1
					c0,0,0,0.1,0,0.1l-0.4,0v2.1c0,0.3,0.1,0.5,0.2,0.7c0.2,0.2,0.4,0.3,0.7,0.3c0.3,0,0.6-0.1,0.7-0.3
					C-110.5-162-110.4-162.2-110.4-162.5z"/>
			</g>
		</g>
	</g>
	<g>
		<g transform="translate(180.092976, 251.702503)">
			<g>
				<path class="st0" d="M-117.4-161.2l-2.1-3.1v2.8h0.3c0.1,0,0.1,0,0.1,0.1c0,0,0,0.1,0,0.1l0,0h-1c0,0,0-0.1,0-0.1
					c0,0,0-0.1,0-0.1l0.4,0v-3.1h-0.3c-0.1,0-0.1,0-0.1-0.1c0,0,0-0.1,0-0.1l0,0h0.7l2,3v-2.7h-0.3c-0.1,0-0.1,0-0.1-0.1
					c0,0,0-0.1,0-0.1l0,0h1c0,0,0,0.1,0,0.1c0,0,0,0.1,0,0.1l-0.4,0v3.3c0,0-0.1,0-0.1,0C-117.3-161.3-117.3-161.2-117.4-161.2z"/>
			</g>
		</g>
	</g>
	<g>
		<g transform="translate(191.391532, 251.702503)">
			<g>
				<path class="st0" d="M-126.7-161.5h0.8c0.3,0,0.5-0.1,0.7-0.2c0.2-0.1,0.3-0.3,0.4-0.5c0.1-0.2,0.2-0.5,0.2-0.8
					c0-0.3-0.1-0.6-0.2-0.8c-0.1-0.2-0.3-0.4-0.4-0.5c-0.2-0.1-0.4-0.2-0.7-0.2h-0.8V-161.5z M-125.9-161.3h-1.5c0,0,0-0.1,0-0.1
					c0,0,0-0.1,0-0.1l0.4,0v-3.1h-0.3c-0.1,0-0.1,0-0.1-0.1c0,0,0-0.1,0-0.1l0,0h1.5c0.3,0,0.6,0.1,0.9,0.2c0.2,0.1,0.4,0.3,0.6,0.6
					c0.1,0.3,0.2,0.6,0.2,0.9c0,0.4-0.1,0.7-0.2,1c-0.1,0.3-0.3,0.5-0.6,0.6C-125.3-161.3-125.6-161.3-125.9-161.3z"/>
			</g>
		</g>
	</g>
	<g>
		<g transform="translate(202.114279, 251.702503)">
			<g>
				<path class="st0" d="M-131.8-161.3h-2.6c0,0,0-0.1,0-0.1c0,0,0-0.1,0-0.1l0.4,0v-3.1h-0.3c-0.1,0-0.1,0-0.1-0.1c0,0,0-0.1,0-0.1
					l0,0h2.5c0.1,0,0.1,0.1,0.1,0.1l0,0.7c0,0-0.1,0-0.1,0c0,0-0.1,0-0.1,0l-0.1-0.6h-1.6v1.4h1.1l0-0.3c0-0.1,0-0.1,0.1-0.1
					c0,0,0,0,0.1,0l0,0v1c0,0-0.1,0-0.1,0c0,0-0.1,0-0.1,0l-0.1-0.4h-1.1v1.4h1.7l0.1-0.6c0,0,0.1,0,0.1,0c0,0,0.1,0,0.1,0l0,0.7
					C-131.7-161.4-131.7-161.3-131.8-161.3z"/>
			</g>
		</g>
	</g>
	<g>
		<g transform="translate(211.623152, 251.702503)">
			<g>
				<path class="st0" d="M-138.4-161.7l-0.6-1.1h-0.8v1.3h0.3c0.1,0,0.1,0,0.1,0.1c0,0,0,0.1,0,0.1l0,0h-1.1c0,0,0-0.1,0-0.1
					c0,0,0-0.1,0-0.1l0.4,0v-3.1h-0.3c-0.1,0-0.1,0-0.1-0.1c0,0,0-0.1,0-0.1l0,0h1.5c0.2,0,0.4,0,0.5,0.1c0.1,0.1,0.3,0.1,0.3,0.3
					c0.1,0.1,0.2,0.2,0.2,0.3c0,0.1,0.1,0.2,0.1,0.3c0,0.1,0,0.3-0.1,0.4c-0.1,0.1-0.1,0.3-0.3,0.4c-0.1,0.1-0.3,0.2-0.5,0.2l0.6,1
					c0.1,0.1,0.1,0.2,0.2,0.2c0.1,0,0.1,0.1,0.2,0.1c0,0,0.1,0,0.1,0c0,0,0.1,0,0.1,0c0,0.1,0,0.1,0,0.2c-0.1,0-0.2,0.1-0.4,0.1
					c-0.1,0-0.2,0-0.3-0.1C-138.2-161.4-138.3-161.6-138.4-161.7z M-139.8-163h0.8c0.2,0,0.4-0.1,0.6-0.2c0.1-0.1,0.2-0.3,0.2-0.5
					c0-0.2-0.1-0.4-0.2-0.5c-0.1-0.2-0.3-0.2-0.6-0.2h-0.8V-163z"/>
			</g>
		</g>
	</g>
	<g>
		<g transform="translate(221.505525, 251.702503)">
			<g>
				<path class="st0" d="M-146.9-161.6l0-0.7c0,0,0.1,0,0.1,0c0,0,0.1,0,0.1,0l0.1,0.7c0.1,0,0.2,0.1,0.3,0.1c0.1,0,0.3,0,0.4,0
					c0.3,0,0.5-0.1,0.7-0.2c0.2-0.1,0.3-0.3,0.3-0.5c0-0.2-0.1-0.3-0.2-0.4c-0.1-0.1-0.3-0.2-0.7-0.3c-0.3-0.1-0.5-0.2-0.7-0.3
					c-0.2-0.1-0.3-0.2-0.4-0.3c-0.1-0.1-0.1-0.3-0.1-0.4c0-0.3,0.1-0.5,0.3-0.6c0.2-0.2,0.5-0.2,0.8-0.2c0.3,0,0.6,0.1,0.9,0.2
					c0,0,0,0.1,0.1,0.1c0,0,0,0.1,0,0.1l0,0.7c0,0-0.1,0-0.1,0c0,0-0.1,0-0.1,0l-0.1-0.6c-0.2-0.1-0.4-0.1-0.6-0.1
					c-0.3,0-0.5,0.1-0.6,0.2c-0.1,0.1-0.2,0.3-0.2,0.5c0,0.1,0,0.2,0.1,0.3c0.1,0.1,0.1,0.2,0.3,0.2c0.1,0.1,0.3,0.1,0.6,0.2
					c0.4,0.1,0.7,0.3,0.9,0.4c0.2,0.2,0.3,0.4,0.3,0.6c0,0.3-0.1,0.5-0.3,0.7c-0.2,0.2-0.5,0.3-0.9,0.3c-0.2,0-0.4,0-0.5-0.1
					c-0.2,0-0.3-0.1-0.4-0.2C-146.8-161.5-146.8-161.5-146.9-161.6C-146.8-161.6-146.8-161.6-146.9-161.6z"/>
			</g>
		</g>
	</g>
	<g>
		<g transform="translate(229.940575, 251.702503)">
			<g>
				<path class="st0" d="M-150.2-161.3h-1.4c0,0,0-0.1,0-0.1c0,0,0-0.1,0-0.1l0.5,0v-3.1h-1l-0.1,0.6c0,0-0.1,0-0.1,0
					c0,0-0.1,0-0.1,0l0-0.7c0-0.1,0.1-0.1,0.1-0.1h2.7c0.1,0,0.1,0.1,0.1,0.1l0,0.7c0,0-0.1,0-0.1,0c0,0-0.1,0-0.1,0l-0.1-0.6h-1
					v3.1h0.5c0.1,0,0.1,0,0.1,0.1C-150.1-161.4-150.1-161.4-150.2-161.3L-150.2-161.3z"/>
			</g>
		</g>
	</g>
	<g>
		<g transform="translate(239.854065, 251.702503)">
			<g>
				<path class="st0" d="M-155.3-161.3h-1.1c0,0,0-0.1,0-0.1c0,0,0-0.1,0-0.1l0.4,0l-0.4-0.9h-1.5l-0.3,0.9h0.3c0.1,0,0.1,0,0.1,0.1
					c0,0,0,0.1,0,0.1l0,0h-1.1c0,0,0-0.1,0-0.1c0,0,0-0.1,0-0.1l0.4,0l1.3-3.3c0,0,0.1,0,0.1,0c0,0,0.1,0,0.1,0l1.3,3.3h0.3
					c0.1,0,0.1,0,0.1,0.1C-155.3-161.4-155.3-161.4-155.3-161.3L-155.3-161.3z M-156.5-162.7l-0.7-1.7l-0.7,1.7H-156.5z"/>
			</g>
		</g>
	</g>
	<g>
		<g transform="translate(250.545684, 251.702503)">
			<g>
				<path class="st0" d="M-162.8-161.2l-2.1-3.1v2.8h0.3c0.1,0,0.1,0,0.1,0.1c0,0,0,0.1,0,0.1l0,0h-1c0,0,0-0.1,0-0.1
					c0,0,0-0.1,0-0.1l0.4,0v-3.1h-0.3c-0.1,0-0.1,0-0.1-0.1c0,0,0-0.1,0-0.1l0,0h0.7l2,3v-2.7h-0.3c-0.1,0-0.1,0-0.1-0.1
					c0,0,0-0.1,0-0.1l0,0h1c0,0,0,0.1,0,0.1c0,0,0,0.1,0,0.1l-0.4,0v3.3c0,0-0.1,0-0.1,0C-162.7-161.3-162.8-161.2-162.8-161.2z"/>
			</g>
		</g>
	</g>
	<g>
		<g transform="translate(261.84424, 251.702503)">
			<g>
				<path class="st0" d="M-172.1-161.5h0.8c0.3,0,0.5-0.1,0.7-0.2c0.2-0.1,0.3-0.3,0.4-0.5c0.1-0.2,0.2-0.5,0.2-0.8
					c0-0.3-0.1-0.6-0.2-0.8c-0.1-0.2-0.3-0.4-0.4-0.5c-0.2-0.1-0.4-0.2-0.7-0.2h-0.8V-161.5z M-171.3-161.3h-1.5c0,0,0-0.1,0-0.1
					c0,0,0-0.1,0-0.1l0.4,0v-3.1h-0.3c-0.1,0-0.1,0-0.1-0.1c0,0,0-0.1,0-0.1l0,0h1.5c0.3,0,0.6,0.1,0.9,0.2c0.2,0.1,0.4,0.3,0.6,0.6
					c0.1,0.3,0.2,0.6,0.2,0.9c0,0.4-0.1,0.7-0.2,1c-0.1,0.3-0.3,0.5-0.6,0.6C-170.7-161.3-171-161.3-171.3-161.3z"/>
			</g>
		</g>
	</g>
	<g>
		<g transform="translate(272.566976, 251.702503)">
			<g>
				<path class="st0" d="M-178.6-161.3h-1.2c0,0,0-0.1,0-0.1c0,0,0-0.1,0-0.1l0.4,0v-3.1h-0.4c-0.1,0-0.1,0-0.1-0.1c0,0,0-0.1,0-0.1
					l0,0h1.2c0,0,0,0.1,0,0.1c0,0,0,0.1,0,0.1l-0.4,0v3.1h0.4c0.1,0,0.1,0,0.1,0.1C-178.6-161.4-178.6-161.4-178.6-161.3
					L-178.6-161.3z"/>
			</g>
		</g>
	</g>
	<g>
		<g transform="translate(277.562711, 251.702503)">
			<g>
				<path class="st0" d="M-180.2-161.2l-2.1-3.1v2.8h0.3c0.1,0,0.1,0,0.1,0.1c0,0,0,0.1,0,0.1l0,0h-1c0,0,0-0.1,0-0.1
					c0,0,0-0.1,0-0.1l0.4,0v-3.1h-0.3c-0.1,0-0.1,0-0.1-0.1c0,0,0-0.1,0-0.1l0,0h0.7l2,3v-2.7h-0.3c-0.1,0-0.1,0-0.1-0.1
					c0,0,0-0.1,0-0.1l0,0h1c0,0,0,0.1,0,0.1c0,0,0,0.1,0,0.1l-0.4,0v3.3c0,0-0.1,0-0.1,0C-180.1-161.3-180.2-161.2-180.2-161.2z"/>
			</g>
		</g>
	</g>
	<g>
		<g transform="translate(288.861256, 251.702503)">
			<g>
				<path class="st0" d="M-187.7-161.6v-1.1h-0.6c-0.1,0-0.1,0-0.1-0.1c0,0,0-0.1,0-0.1l0,0h1.3c0,0,0,0.1,0,0.1c0,0,0,0.1,0,0.1
					l-0.3,0v1.2c0,0,0,0.1,0,0.1c0,0,0,0.1-0.1,0.1c-0.1,0.1-0.3,0.1-0.5,0.2c-0.2,0-0.4,0.1-0.6,0.1c-0.4,0-0.7-0.1-0.9-0.2
					c-0.3-0.2-0.5-0.4-0.6-0.6c-0.1-0.3-0.2-0.6-0.2-1c0-0.4,0.1-0.7,0.2-1c0.1-0.3,0.3-0.5,0.6-0.6c0.3-0.2,0.6-0.2,0.9-0.2
					c0.1,0,0.3,0,0.5,0.1c0.2,0,0.3,0.1,0.5,0.1c0,0,0,0.1,0.1,0.1c0,0,0,0.1,0,0.1l0,0.7c0,0-0.1,0-0.1,0c0,0-0.1,0-0.1,0l-0.1-0.6
					c-0.1-0.1-0.3-0.1-0.4-0.1c-0.1,0-0.2,0-0.4,0c-0.3,0-0.5,0.1-0.7,0.2c-0.2,0.1-0.4,0.3-0.5,0.6c-0.1,0.2-0.2,0.5-0.2,0.8
					s0.1,0.6,0.2,0.8c0.1,0.2,0.3,0.4,0.5,0.5c0.2,0.1,0.5,0.2,0.8,0.2c0.1,0,0.3,0,0.4,0C-187.9-161.5-187.8-161.6-187.7-161.6z"/>
			</g>
		</g>
	</g>
	<path class="st3" d="M9,89.5h13.3"/>
	<path class="st3" d="M102.3,89.5h13.3"/>
</g>
</svg>
