<?xml version="1.0" encoding="utf-8"?>
<!-- Generator: Adobe Illustrator 25.2.0, SVG Export Plug-In . SVG Version: 6.00 Build 0)  -->
<svg version="1.1" id="Layer_1" xmlns="http://www.w3.org/2000/svg" xmlns:xlink="http://www.w3.org/1999/xlink" x="0px" y="0px"
	 viewBox="0 0 57 42" style="enable-background:new 0 0 57 42;" xml:space="preserve">
<style type="text/css">
	.st0{fill:url(#SVGID_1_);}
</style>
<linearGradient id="SVGID_1_" gradientUnits="userSpaceOnUse" x1="-9.476737e-03" y1="20.9897" x2="57.0762" y2="20.9897">
	<stop  offset="0" style="stop-color:#6E6156"/>
	<stop  offset="1" style="stop-color:#3A322B"/>
	<stop  offset="1" style="stop-color:#7763E5"/>
</linearGradient>
<path class="st0" d="M37.6,25.7c-3.3-3.2-6.8-6.3-10.4-9c0.2-0.4,0.4-0.8,0.5-1.1c2.1-6.2-3.2-12.1-9.6-11
	c-5.5,0.9-8.7,7.9-5.6,12.4c0.2,0.4,0.5,0.9,0.9,1.2c0.3,0.4,0.7,0.7,1,1c-1.1,1.8-2.2,3.7-3.2,5.4c-1.4,2.3-3,4.7-4.2,7.2
	c-1.5-0.8-3.3-0.6-4.7,0.5c-0.1,0.1-0.2,0.2-0.3,0.3c-0.5,0.2-0.9,0.6-1.2,1c-1,1.3-1,3.3-0.4,4.8c1.2,3.4,5.3,4.8,8.2,2.4
	c2.7-2.2,2-6.3-0.5-8.4c1.5-2.2,2.7-4.6,4-6.8c1.1-1.9,2.5-3.7,3.8-5.6c3.4,1.8,7.7,1.1,10.2-1.8c2.9,3.1,6,6.1,9.3,9
	c-1.7,1.9-2.3,4.7-1.6,7.4c-0.1,0.7,0.1,1.2,0.7,1.7c0,0,0,0,0,0.1c0.7,1.3,1.8,2.4,2.9,3.2c0.5,0.4,1,0.6,1.6,0.8
	c2.9,1.1,6.5,0.6,9-1.9c3.7-3.8,2.3-10.6-2.2-13c-0.3-0.2-0.7-0.3-1-0.4c1.5-2.9,2.5-6,3.9-8.9c1.2-2.5,2.5-5,3.8-7.5
	c1.3,0.1,2.6-0.3,3.5-1.4c2.1-2.5,1-6.5-2.2-7.2c-1.6-0.4-3.4,0.2-4.3,1.6c-0.3,0.4-0.5,0.9-0.7,1.4c-0.4,0.9-0.4,1.9,0,2.8
	c0.5,1.3,1.6,2.2,2.8,2.6c-1.4,2.5-2.7,5.1-3.9,7.7c-1.3,2.8-2.9,5.7-3.7,8.7c-1.7-0.3-3.4-0.2-4.9,0.4C38.5,25.4,38,25.5,37.6,25.7
	z M3.1,38.1c-0.2-0.3-0.4-0.8-0.4-1.3c0.2,0,0.3-0.1,0.4-0.3c0.1-0.1,0.1-0.2,0.2-0.3c0.1,0.9,0.2,1.7,0.4,2.6
	C3.5,38.6,3.3,38.4,3.1,38.1z M4.5,39.2c-0.2-1.3-0.6-2.7-0.9-3.9c0-0.2,0.1-0.3,0.2-0.5C4,34.7,4,34.6,4.1,34.5
	c0,1.5,0.3,3.5,1.1,4.8C5.1,39.3,4.8,39.3,4.5,39.2z M6.9,38.7c-0.2,0.2-0.5,0.3-0.7,0.5C6,38.5,5.6,37.8,5.3,37
	c-0.3-0.9-0.4-1.8-0.6-2.7c0.4,0,0.8,0,1.1,0.2c0,0,0,0,0,0.1c0,0,0,0,0,0.1s0,0.2,0.1,0.3c0.2,1.2,0.6,2.5,1.2,3.5
	C7.1,38.5,7,38.6,6.9,38.7z M6.6,35.1c0.5,0.6,0.9,1.4,0.9,2.2C7.2,36.6,6.9,35.8,6.6,35.1z M15.7,17.4c-0.1-0.1-0.2-0.1-0.3-0.2
	c-0.8-0.8-1.4-1.6-1.7-2.5c-0.3-2.3,0.1-4.7,1.6-6.2c1.3,2.3,2,4.5,2,7C16.8,16,16.2,16.7,15.7,17.4z M19,18.9
	c-0.7-0.1-1.3-0.3-2-0.6c0-0.1,0.1-0.2,0.2-0.3c0.1,0.1,0.4,0.2,0.4,0c0.1-0.3,0.1-0.7,0.2-1.1c0.2-0.4,0.4-0.8,0.6-1.1
	c0.1-0.4-0.1-0.8-0.5-0.7c-0.1-2.4-1-4.9-2.4-6.7c0.5-0.5,1-0.9,1.7-1.1C18,9,18.6,10.7,19,12.5C19.1,13,20,18,19,18.9z M20.6,18.9
	c-0.2,0-0.4,0-0.6,0c0.4-1,0.2-2.8,0.1-3.5C20,12.5,19.2,9.6,17.8,7c0.4-0.1,0.8-0.2,1.3-0.2c0.2,0,0.4,0,0.6,0l0,0
	c0.7,1.8,1.3,3.6,1.6,5.6C21.2,13,21.3,18,20.6,18.9z M22.5,18.3c-0.3,0.1-0.7,0.3-1,0.4c0.6-1.3,0.5-3.3,0.5-4.3
	c0-2.7-0.6-5.3-2-7.6c0.8,0,1.6,0.2,2.3,0.6c0.5,2,1.3,3.8,1.3,6C23.6,15.1,23.1,16.7,22.5,18.3z M25.6,14.6c-0.4,1.2-1,2.2-1.9,2.9
	c1.1-3.1,1-7.3-0.8-9.8C25.2,9,26.5,11.7,25.6,14.6z M54.4,6.2c-0.2,0.2-0.5,0.4-0.7,0.5c0.6-1,1-2.1,1.2-3.2
	C55.3,4.4,55.1,5.4,54.4,6.2z M53.4,2.3c0.5,0.1,0.9,0.4,1.2,0.8c-0.3,1-0.8,1.8-1.3,2.6c-0.1,0-0.2,0-0.3,0.2
	c-0.2,0.4-0.4,0.7-0.6,1.1c-0.2,0-0.3-0.1-0.5-0.1C52.8,5.6,53.3,3.9,53.4,2.3C53.4,2.2,53.4,2.3,53.4,2.3z M51.1,6.3
	c-0.1-0.1-0.3-0.2-0.4-0.4c0.1-0.1,0.2-0.3,0.2-0.5c0-1.4,0.3-3.2,1.8-3.2c0,0.7-0.1,1.3-0.3,1.9C52,5,51.5,5.7,51.1,6.3z
	 M47.7,31.1c0.5,1.5,0.4,3.1-0.3,4.6c-1.7,3.4-6.5,4.4-9.4,2c0.9,0.1,1.8,0.2,2.3,0.1C43.9,37.4,46.9,34.6,47.7,31.1z M45.7,28.1
	c0.6,0.5,1,1,1.4,1.7c-0.4,2.4-1.3,4.5-3.4,5.9c-1.3,0.9-2.7,1.4-4.2,1.5c-0.5,0-1.3,0-2.2-0.2c-0.8-0.9-1.4-1.8-1.7-2.8
	c1,1,2.6,1.4,4,1.3C42.5,35.2,46.3,31,45.7,28.1z M43.6,27c0.2,0,0.5,0.1,0.7,0.2c1.8,2.2-1,5.8-3.3,6.9c-1.5,0.7-3.3,0.7-4.7-0.2
	c-0.6-0.4-1-1-1.1-1.5c0-0.6,0-1.1,0.1-1.7c0.1,0,0.1,0,0.2,0c0.8-0.4,1.2-1.1,1.8-1.7c1,1,2.1,1.9,3.2,2.8c1.1,1,2.8-0.6,1.7-1.7
	c-1-0.9-1.9-1.8-2.8-2.7C40.7,26.8,42.2,26.6,43.6,27z"/>
</svg>
