<?xml version="1.0" encoding="utf-8"?>
<!-- Generator: Adobe Illustrator 25.2.0, SVG Export Plug-In . SVG Version: 6.00 Build 0)  -->
<svg version="1.1" id="Layer_1" xmlns="http://www.w3.org/2000/svg" xmlns:xlink="http://www.w3.org/1999/xlink" x="0px" y="0px"
	 viewBox="0 0 37 40" style="enable-background:new 0 0 37 40;" xml:space="preserve">
<style type="text/css">
	.st0{fill:url(#SVGID_1_);}
	.st1{fill:url(#SVGID_2_);}
	.st2{fill:url(#SVGID_3_);}
	.st3{fill:url(#SVGID_4_);}
	.st4{fill:url(#SVGID_5_);}
	.st5{fill:url(#SVGID_6_);}
	.st6{fill:url(#SVGID_7_);}
	.st7{fill:url(#SVGID_8_);}
	.st8{fill:url(#SVGID_9_);}
	.st9{fill:url(#SVGID_10_);}
	.st10{fill:url(#SVGID_11_);}
</style>
<linearGradient id="SVGID_1_" gradientUnits="userSpaceOnUse" x1="7.8451" y1="23.5159" x2="36.3498" y2="23.5159">
	<stop  offset="0" style="stop-color:#6E6156"/>
	<stop  offset="1" style="stop-color:#3A322B"/>
	<stop  offset="1" style="stop-color:#7763E5"/>
</linearGradient>
<path class="st0" d="M34.5,38.5c0.4,0.1,0.8,0.1,1.1-0.1c0.3-0.2,0.4-0.6,0.4-0.9c0-0.2-0.1-0.4-0.1-0.6c1.1-2.2,0.1-5.1-2.1-6.4
	c-0.2-0.2-0.3-0.4-0.5-0.5c0,0,0,0,0.1-0.1c0.2-0.2,0.1-0.5-0.1-0.5c-0.2,0-0.4-0.1-0.5-0.2c0-0.1-0.1-0.1-0.1-0.1
	c-2-2.2-2-5.3-2.4-8.1c-0.3-2.4-0.9-4.9-2.1-7.1c-2.1-4.1-6.2-6.5-10.9-6c-4.3,0.4-8,3.3-9.1,7.6c-1.1,4.2,0.4,8.9,3.9,11.5
	c2.5,1.8,5.5,2.6,8.3,3.6c3,1.1,5.2,2.6,7.3,5c0.1,0.1,0.1,0.1,0.2,0.1H28c1.3,2,4.3,4.6,6.3,3C34.4,38.6,34.5,38.6,34.5,38.5z
	 M32.7,30.7c0.4,0.2,0.7,0.5,1,0.9c-0.9,0.4-1.7,1.1-2.6,1.6c-0.5,0.3-1,0.6-1.4,0.9c0.4-0.4,0.7-0.9,1.1-1.3
	C31.5,32.1,32.1,31.4,32.7,30.7z M11.8,24.7c-1.5-1.6-2.3-3.8-2.4-5.9c-0.2-3.3,1.4-6.3,4-8c-1.3,1.1-2.4,2.5-3.1,3.9
	C8.7,17.8,9.7,22.1,12,25C11.9,24.7,11.9,24.7,11.8,24.7z M27.7,33.8c-1.8-3.1-6.2-4.4-9.4-5.5c-1.3-0.5-2.6-0.9-3.8-1.6
	c-3.8-2.6-6.2-8.3-3.8-12.3c1.1-1.8,2.9-3.7,5-4.7c0.2-0.1,0.5-0.1,0.7-0.2c4.8-1,9.1,1.5,11.1,5.9c1.1,2.5,1.5,5.3,1.9,8
	c0.3,2.2,0.7,4.3,2,6.1c-0.4,0.4-0.7,0.9-1,1.3c-1.3-2-2.9-3.8-4.4-5.6c-1.5-1.9-2.9-4.4-4.8-5.9c-0.2-0.2-0.6,0.1-0.4,0.3
	c1,2.1,3,3.8,4.4,5.6c1.6,2,3.1,4.1,4.8,5.9l0.1,0.1c-0.3,0.4-0.7,0.7-1.1,1.1c0-0.1,0-0.1-0.1-0.2c-1-0.8-2-1.5-2.9-2.4
	c-0.8-0.9-1.5-1.8-2.3-2.7c-1.5-1.9-3-4-5-5.3c-0.3-0.2-0.6,0.2-0.4,0.4c1.5,2,3.5,3.6,5.1,5.6c1.5,1.8,3,3.8,5.1,4.9
	c0.1,0,0.1,0,0.1,0C28.3,33,28,33.4,27.7,33.8z M28.1,34.4c0-0.1,0-0.1-0.1-0.1c0.8-0.5,1.4-1.5,2.1-2.2l1.2-1.3
	c0.2-0.2,0.4-0.4,0.5-0.6c0.1-0.1,0.1-0.1,0.2-0.2c0.1,0.1,0.2,0.1,0.2,0.1c0,0.1,0,0.2,0,0.2c-0.6,0.7-1.3,1.5-1.9,2.2
	s-1.3,1.4-1.9,2.2C28.3,34.6,28.2,34.5,28.1,34.4z M29.1,35.2c0.9-0.4,1.7-1,2.5-1.4c0.9-0.5,1.9-1,2.6-1.7c0.1,0.2,0.2,0.4,0.4,0.6
	c-0.9,0.6-1.8,1.2-2.7,1.9c-0.7,0.5-1.4,0.9-2,1.4C29.6,35.7,29.3,35.5,29.1,35.2z M30.3,36.3c0.7-0.4,1.3-0.8,1.9-1.2
	c0.5-0.3,1-0.7,1.5-1c0.3-0.2,0.5-0.3,0.8-0.5c0.3-0.1,0.4-0.2,0.4-0.4c0,0,0,0,0.1,0l0,0c0.3,0.6,0.4,1.2,0.4,1.8
	c-0.9,0.3-1.6,0.8-2.5,1.2c-0.5,0.3-1.1,0.5-1.6,0.8C30.9,36.9,30.6,36.6,30.3,36.3z M33.9,37.6c-0.2,0.1-0.3,0.3-0.2,0.5l0,0
	c-0.5,0.1-1-0.1-1.4-0.3c-0.1-0.1-0.3-0.2-0.4-0.3c0.4-0.2,0.8-0.4,1.3-0.6c0.7-0.3,1.5-0.6,2.2-1.1C35,36.5,34.6,37.1,33.9,37.6z"
	/>
<linearGradient id="SVGID_2_" gradientUnits="userSpaceOnUse" x1="31.1195" y1="12.777" x2="34.6" y2="12.777">
	<stop  offset="0" style="stop-color:#6E6156"/>
	<stop  offset="1" style="stop-color:#3A322B"/>
	<stop  offset="1" style="stop-color:#7763E5"/>
</linearGradient>
<path class="st1" d="M34.6,12c0-0.2-0.2-0.4-0.3-0.4c-0.6-0.2-1.2,0.3-1.6,0.6c-0.6,0.3-1.1,0.7-1.5,1.2c-0.2,0.3,0,0.6,0.3,0.6
	c0.7-0.1,1.3-0.5,1.9-0.8C33.9,12.9,34.5,12.7,34.6,12z"/>
<linearGradient id="SVGID_3_" gradientUnits="userSpaceOnUse" x1="26.0806" y1="6.8902" x2="29.0129" y2="6.8902">
	<stop  offset="0" style="stop-color:#6E6156"/>
	<stop  offset="1" style="stop-color:#3A322B"/>
	<stop  offset="1" style="stop-color:#7763E5"/>
</linearGradient>
<path class="st2" d="M28.6,5.4c-0.7-0.2-1.1,0.5-1.5,0.9s-0.8,0.9-1,1.5c-0.1,0.3,0.2,0.7,0.6,0.6c0.6-0.2,0.9-0.7,1.4-1.1
	s1-0.7,0.9-1.5C28.9,5.6,28.7,5.5,28.6,5.4z"/>
<linearGradient id="SVGID_4_" gradientUnits="userSpaceOnUse" x1="18.0106" y1="1.9629" x2="19.9" y2="1.9629">
	<stop  offset="0" style="stop-color:#6E6156"/>
	<stop  offset="1" style="stop-color:#3A322B"/>
	<stop  offset="1" style="stop-color:#7763E5"/>
</linearGradient>
<path class="st3" d="M18.1,0.6c-0.1,0.9-0.2,1.9,0.2,2.8c0.3,0.8,1.4,0.7,1.5-0.2c0.1-0.8,0.1-1.6,0.1-2.3
	C19.8-0.1,18.2-0.4,18.1,0.6z"/>
<linearGradient id="SVGID_5_" gradientUnits="userSpaceOnUse" x1="7.7526" y1="4.7626" x2="11.0157" y2="4.7626">
	<stop  offset="0" style="stop-color:#6E6156"/>
	<stop  offset="1" style="stop-color:#3A322B"/>
	<stop  offset="1" style="stop-color:#7763E5"/>
</linearGradient>
<path class="st4" d="M9.3,3C8.7,2.5,7.5,3,7.8,3.8C8.1,4.5,8.6,5,9,5.5s0.8,1,1.4,1.2C10.7,6.8,11,6.6,11,6.2
	c0.1-0.6-0.3-1.1-0.6-1.6C10,4,9.7,3.4,9.3,3z"/>
<linearGradient id="SVGID_6_" gradientUnits="userSpaceOnUse" x1="3" y1="9.8754" x2="6.7" y2="9.8754">
	<stop  offset="0" style="stop-color:#6E6156"/>
	<stop  offset="1" style="stop-color:#3A322B"/>
	<stop  offset="1" style="stop-color:#7763E5"/>
</linearGradient>
<path class="st5" d="M6.4,11.2c0.2,0,0.3-0.2,0.3-0.4c-0.1-0.6-0.5-1-0.9-1.3c-0.4-0.4-0.9-0.9-1.4-1C3.8,8.4,3.1,8.8,3,9.5
	c0,0.4,0.2,0.8,0.6,0.9c0.2,0.1,0.3,0,0.4,0c0.3,0.2,0.6,0.4,0.9,0.5C5.5,11.1,5.9,11.4,6.4,11.2z"/>
<linearGradient id="SVGID_7_" gradientUnits="userSpaceOnUse" x1="-4.681800e-02" y1="19.0935" x2="3.9598" y2="19.0935">
	<stop  offset="0" style="stop-color:#6E6156"/>
	<stop  offset="1" style="stop-color:#3A322B"/>
	<stop  offset="1" style="stop-color:#7763E5"/>
</linearGradient>
<path class="st6" d="M2.1,18.2c-0.7-0.1-1.3-0.1-1.9,0.4c-0.4,0.4-0.3,1.1,0.2,1.3c0.1,0,0.2,0.1,0.3,0.1c0.2,0.1,0.5,0,0.6-0.2
	c0.3-0.1,0.8-0.1,1.1-0.1c0.5,0,0.9,0,1.3-0.2C4,19.4,4,19.1,3.9,18.9C3.4,18.3,2.7,18.2,2.1,18.2z"/>
<linearGradient id="SVGID_8_" gradientUnits="userSpaceOnUse" x1="4.6103" y1="26.1651" x2="7.74" y2="26.1651">
	<stop  offset="0" style="stop-color:#6E6156"/>
	<stop  offset="1" style="stop-color:#3A322B"/>
	<stop  offset="1" style="stop-color:#7763E5"/>
</linearGradient>
<path class="st7" d="M4.7,26.2c-0.3,0.5,0.2,1.3,0.8,1.1C6,27,6.5,26.6,7,26.4c0.3-0.2,0.9-0.6,0.7-1C7.1,24.4,5.1,25.5,4.7,26.2z"
	/>
<linearGradient id="SVGID_9_" gradientUnits="userSpaceOnUse" x1="11.0801" y1="32.5251" x2="12.95" y2="32.5251">
	<stop  offset="0" style="stop-color:#6E6156"/>
	<stop  offset="1" style="stop-color:#3A322B"/>
	<stop  offset="1" style="stop-color:#7763E5"/>
</linearGradient>
<path class="st8" d="M12.3,33.5c0.2-0.4,0.3-0.7,0.5-1.1c0.2-0.4,0.2-0.7,0-1.1c0-0.1-0.1-0.1-0.1-0.1c-0.5,0.1-0.6,0.3-0.9,0.6
	c-0.2,0.3-0.4,0.6-0.6,0.9C10.7,33.6,11.9,34.3,12.3,33.5z"/>
<linearGradient id="SVGID_10_" gradientUnits="userSpaceOnUse" x1="17.2769" y1="34.0839" x2="18.7414" y2="34.0839">
	<stop  offset="0" style="stop-color:#6E6156"/>
	<stop  offset="1" style="stop-color:#3A322B"/>
	<stop  offset="1" style="stop-color:#7763E5"/>
</linearGradient>
<path class="st9" d="M18.7,32.3c0-0.1-0.2-0.2-0.3-0.1c-1,0.6-1.2,2.2-1.1,3.3c0.1,0.8,1.3,0.6,1.3-0.2c0-0.5-0.1-1.1,0-1.6
	C18.7,33.3,18.8,32.8,18.7,32.3z"/>
<linearGradient id="SVGID_11_" gradientUnits="userSpaceOnUse" x1="31.7343" y1="19.6622" x2="35.0073" y2="19.6622">
	<stop  offset="0" style="stop-color:#6E6156"/>
	<stop  offset="1" style="stop-color:#3A322B"/>
	<stop  offset="1" style="stop-color:#7763E5"/>
</linearGradient>
<path class="st10" d="M31.9,20.1c0.3,0.2,0.7,0.1,1.1,0.1s0.8,0.1,1.1,0.2c0.9,0.3,1.3-1.2,0.4-1.4c-0.8-0.2-2.2-0.2-2.7,0.5
	C31.7,19.8,31.7,20,31.9,20.1z"/>
</svg>
